<svg width="578" height="615" viewBox="0 0 578 615" fill="none" xmlns="http://www.w3.org/2000/svg">
<path d="M484.929 1.90039H62.9639C29.0129 1.90039 1.49023 29.3653 1.49023 63.245V551.353C1.49023 585.233 29.0129 612.698 62.9639 612.698H484.929C518.88 612.698 546.403 585.233 546.403 551.353V63.245C546.403 29.3653 518.88 1.90039 484.929 1.90039Z" stroke="#EE710A" stroke-width="3" stroke-miterlimit="10"/>
<path d="M514.526 62.687H63.8994C29.9485 62.687 2.42578 90.152 2.42578 124.032V552.034C2.42578 585.913 29.9485 613.378 63.8994 613.378H514.526C548.477 613.378 576 585.913 576 552.034V124.032C576 90.152 548.477 62.687 514.526 62.687Z" stroke="#EE710A" stroke-width="3" stroke-miterlimit="10"/>
</svg>
