<svg width="79" height="88" viewBox="0 0 79 88" fill="none" xmlns="http://www.w3.org/2000/svg">
<g clip-path="url(#clip0_68_193)">
<path d="M12.2826 46.5216C11.9938 46.5128 5.13493 46.2655 1.81956 39.6619C0.202306 36.4401 0.531533 33.8849 0.797225 31.8331C1.02249 30.084 1.164 29.0013 0.236962 27.8896C-0.0749374 27.5141 -0.0778254 26.9699 0.236962 26.5974L0.774121 25.9629C1.08891 25.5933 1.65784 25.5787 1.98706 25.9367C3.91044 28.0234 3.62742 30.2178 3.37328 32.1736C3.13069 34.0449 2.88233 35.9803 4.13859 38.4803C6.76085 43.7014 12.2913 43.9023 12.349 43.9023L12.2826 46.5216Z" fill="white"/>
<path d="M67.445 43.815C67.445 43.815 64.7217 44.1933 61.1031 42.3016C55.9567 39.6095 55.1683 22.4414 55.1683 22.4414H23.7445C23.7445 22.4414 22.959 39.6095 17.8097 42.3016C14.194 44.1933 11.4678 43.815 11.4678 43.815C11.4678 43.815 8.24484 59.6618 9.60217 67.1821C11.849 79.6267 19.6754 87.959 39.4521 87.9998C59.2317 87.959 67.0551 79.6267 69.302 67.1821C70.6593 59.6647 67.4364 43.815 67.4364 43.815H67.445Z" fill="white"/>
<path d="M39.4554 84.7982C30.8204 84.7778 24.2388 83.0636 19.8924 79.7022C16.141 76.8006 13.7988 72.5166 12.7332 66.6086C11.8235 61.5649 13.3079 51.6931 13.9894 47.6826L14.1223 46.9026L14.8905 46.7397C16.3749 46.4253 17.8506 45.8898 19.2744 45.1448C22.4107 43.5034 24.4958 39.3067 25.8329 31.9406C26.1304 30.2991 26.3816 28.5326 26.5809 26.6845L26.6935 25.6455H52.2173L52.3299 26.6845C52.5292 28.5326 52.7804 30.2991 53.0779 31.9406C54.415 39.3096 56.5001 43.5034 59.6364 45.1448C61.0602 45.8898 62.5359 46.4253 64.0204 46.7397L64.7885 46.9026L64.9214 47.6826C65.603 51.6931 67.0902 61.5679 66.1777 66.6086C65.112 72.5166 62.7699 76.8006 59.0184 79.7022C54.672 83.0636 48.0904 84.7778 39.4554 84.7982ZM16.141 48.8351C15.5345 52.5545 14.2002 61.7279 15.006 66.1924C15.9648 71.5067 18.0239 75.3221 21.2988 77.857C25.2322 80.9013 31.3403 82.4525 39.4554 82.4699C47.5706 82.4525 53.6815 80.8983 57.6149 77.857C60.8898 75.3221 62.9489 71.5067 63.9077 66.1924C64.7135 61.7279 63.3821 52.5574 62.7728 48.8351C61.3461 48.4684 59.9368 47.9242 58.5737 47.2111C54.75 45.2117 52.2837 40.4912 50.8051 32.3597C50.5538 30.9743 50.3343 29.5046 50.1495 27.9738H28.7584C28.5736 29.5046 28.3541 30.9743 28.1029 32.3597C26.6271 40.4941 24.1579 45.2117 20.3371 47.2111C18.974 47.9242 17.5647 48.4684 16.1381 48.8351H16.141Z" fill="#EE6C22"/>
<path d="M66.1142 46.5447L66.0449 43.9254L66.0795 45.235L66.042 43.9254C66.2904 43.9167 72.176 43.6635 74.7809 38.4772C76.0372 35.9743 75.7888 34.039 75.5463 32.1705C75.2921 30.1944 75.0033 27.9767 76.9873 25.8725C77.2906 25.5495 77.8046 25.5611 78.0905 25.8987L78.827 26.766C79.0696 27.0512 79.0551 27.4732 78.8039 27.7497C77.7469 28.9139 77.8884 30.011 78.1223 31.8329C78.388 33.8847 78.7172 36.44 77.1 39.6617C73.7846 46.2624 66.4261 46.536 66.1142 46.5447Z" fill="white"/>
<path d="M53.8232 8.67573C53.3409 3.75143 49.2342 0 44.3247 0H34.2197C29.2611 0 25.1429 3.85038 24.7675 8.83289L23.7451 22.4446H55.169L53.8232 8.67864V8.67573ZM26.2374 20.1134L27.072 9.00751C27.3522 5.2619 30.4943 2.32827 34.2197 2.32827H44.3247C48.0617 2.32827 51.1576 5.15421 51.5244 8.90273L52.6218 20.1134H26.2403H26.2374Z" fill="white"/>
<path d="M50.8426 54.5948H27.84C27.352 54.5948 26.8957 54.2311 26.8119 53.6985C26.7051 53.0087 27.1816 52.4092 27.7852 52.4092H50.7877C51.2758 52.4092 51.7321 52.773 51.8158 53.3056C51.9227 53.9953 51.4462 54.5948 50.8426 54.5948Z" fill="white"/>
<path d="M28.3652 56.9668H49.9383V63.0116C49.9383 67.6419 46.207 71.4021 41.6123 71.4021H36.6941C32.0994 71.4021 28.3681 67.6419 28.3681 63.0116V56.9668H28.3652Z" fill="#EE6C22"/>
</g>
<defs>
<clipPath id="clip0_68_193">
<rect width="79" height="88" fill="white"/>
</clipPath>
</defs>
</svg>
