<svg width="120" height="125" viewBox="0 0 120 125" fill="none" xmlns="http://www.w3.org/2000/svg">
<g clip-path="url(#clip0_193_206)">
<path d="M8.75856 10.3619C7.79612 9.41696 6.27226 9.43298 5.32586 10.3939C4.37947 11.3548 4.39551 12.8763 5.35794 13.8212L113.087 119.539C113.552 120.003 114.178 120.227 114.787 120.227C115.397 120.227 116.038 119.987 116.52 119.507C117.466 118.546 117.45 117.024 116.487 116.079L8.75856 10.3619Z" fill="white"/>
<path d="M115.365 79.0355C114.531 78.7151 113.648 78.555 112.766 78.555C111.756 78.555 110.777 78.7632 109.831 79.1796C108.82 79.628 107.922 80.3007 107.216 81.1495L93.6135 75.9125C94.576 72.8055 95.1053 69.5704 95.1534 66.2872C95.2336 62.0431 94.5279 57.8791 93.0521 53.9073L106.382 47.9977C107.745 49.4711 109.67 50.3199 111.707 50.3199C112.718 50.3199 113.696 50.1117 114.627 49.6953C116.391 48.9105 117.739 47.4852 118.444 45.6915C119.134 43.8817 119.086 41.9278 118.316 40.1661C117.161 37.5556 114.563 35.874 111.691 35.874C110.681 35.874 109.702 36.0822 108.772 36.4986C105.949 37.7478 104.232 40.6947 104.505 43.7376L91.1754 49.6472C90.5819 48.5102 89.9082 47.4051 89.2024 46.3641C88.7693 45.7235 88.0474 45.3391 87.2615 45.3391C86.7963 45.3391 86.3471 45.4832 85.9461 45.7395C85.4328 46.0918 85.0799 46.6203 84.9676 47.2289C84.8554 47.8375 84.9676 48.4621 85.3205 48.9746C86.3151 50.432 87.1812 52.0015 87.9031 53.6351C91.3999 61.4986 91.3197 70.4993 87.6785 78.2988C87.6785 78.3148 87.6625 78.3468 87.6464 78.3628C87.6464 78.3148 87.6464 78.3468 87.5021 78.587C86.8604 79.7081 87.2614 81.1335 88.3843 81.7741C88.7372 81.9663 89.1382 82.0784 89.5392 82.0784C89.8761 82.0784 90.1808 82.0143 90.4856 81.8702C90.9508 81.662 91.3197 81.3257 91.5603 80.8932C91.817 80.4448 91.7849 80.5569 91.7528 80.605C91.7528 80.5729 91.817 80.4768 91.9132 80.2686L105.516 85.5057C105.468 86.5947 105.692 87.6998 106.141 88.7087C106.927 90.4704 108.355 91.8317 110.151 92.5204C110.986 92.8407 111.868 93.0009 112.75 93.0009C113.761 93.0009 114.739 92.7927 115.685 92.3763C117.45 91.5915 118.813 90.1661 119.503 88.3724C120.193 86.5787 120.145 84.6088 119.359 82.8471C118.573 81.0854 117.145 79.7241 115.349 79.0355H115.365ZM110.649 40.7587C110.986 40.6146 111.322 40.5345 111.675 40.5345C112.686 40.5345 113.616 41.1271 114.017 42.056C114.29 42.6806 114.306 43.3692 114.065 44.0098C113.825 44.6504 113.344 45.1469 112.718 45.4352C112.381 45.5793 112.044 45.6594 111.691 45.6594C110.681 45.6594 109.75 45.0668 109.349 44.138C108.772 42.8567 109.349 41.3353 110.649 40.7587ZM115.14 86.6908C114.899 87.3314 114.418 87.8279 113.793 88.1162C113.456 88.2603 113.119 88.3404 112.75 88.3404C112.429 88.3404 112.124 88.2763 111.836 88.1642C111.194 87.924 110.697 87.4435 110.408 86.8189C110.135 86.1943 110.119 85.5057 110.36 84.8651C110.601 84.2244 111.082 83.728 111.707 83.4397C112.044 83.2955 112.381 83.2155 112.75 83.2155C113.071 83.2155 113.376 83.2795 113.664 83.3916C114.306 83.6319 114.803 84.1123 115.092 84.7369C115.365 85.3615 115.381 86.0502 115.14 86.6908Z" fill="#10DF2D"/>
<path d="M99.837 62.9563C99.2114 62.9563 98.6339 63.2125 98.1848 63.6609C97.7517 64.1094 97.5111 64.7019 97.5271 65.3105C97.5271 66.5757 98.5858 67.6167 99.8691 67.6167L104.024 67.5687C104.344 67.5687 104.649 67.5046 104.938 67.3765C105.788 66.9921 106.333 66.1433 106.333 65.2144C106.333 63.9492 105.275 62.9082 103.992 62.9082L99.837 62.9563Z" fill="#10DF2D"/>
<path d="M21.4141 68.4974C21.7349 68.4974 22.0397 68.4333 22.3284 68.3052C23.1786 67.9208 23.724 67.072 23.724 66.1431C23.724 64.8779 22.6653 63.8369 21.382 63.8369L19.0241 63.8689C18.3985 63.8689 17.821 64.1252 17.3879 64.5736C16.9548 65.0221 16.7142 65.6146 16.7302 66.2232C16.7302 67.4884 17.7889 68.5294 19.0722 68.5294L21.4302 68.4974H21.4141Z" fill="#10DF2D"/>
<path d="M60.1843 28.9236H60.2164C60.5372 28.9236 60.842 28.8595 61.1307 28.7314C61.9809 28.347 62.5262 27.4982 62.5262 26.5693L62.3979 14.814C62.3979 13.5488 61.3392 12.5078 60.056 12.5078H60.0239C58.7406 12.5078 57.698 13.5808 57.714 14.8621L57.8424 26.6174C57.8424 27.8826 58.9011 28.9236 60.1843 28.9236Z" fill="#10DF2D"/>
<path d="M61.0669 103.107H61.0348C60.4092 103.107 59.8318 103.364 59.3987 103.812C58.9656 104.261 58.7249 104.853 58.741 105.462L58.8693 116.64C58.8693 117.906 59.928 118.947 61.2112 118.947H61.2433C61.5641 118.947 61.8689 118.883 62.1576 118.754C63.0078 118.37 63.5532 117.521 63.5532 116.592L63.4249 105.414C63.4249 104.148 62.3662 103.107 61.0829 103.107H61.0669Z" fill="#10DF2D"/>
<path d="M37.9687 21.9569C38.1772 21.9569 38.3857 21.9569 38.5943 21.9249L44.5133 35.2336C43.6471 35.6981 45.0426 34.9454 44.2245 35.4578C43.6952 35.7942 43.3423 36.3067 43.1979 36.9152C43.0696 37.5238 43.1819 38.1484 43.5187 38.6769C43.9518 39.3496 44.6897 39.75 45.4917 39.75C45.8125 39.75 46.1334 39.6859 46.4381 39.5578C46.5504 39.5097 46.6467 39.4457 46.7589 39.3816C48.0261 38.5648 47.1279 39.0773 48.5234 38.4687C52.3571 36.7711 56.4314 35.9063 60.618 35.9063C66.0719 35.9063 71.4134 37.3957 76.0652 40.1984C76.4341 40.4226 76.8512 40.5347 77.2682 40.5347C77.6051 40.5347 77.9099 40.4707 78.2146 40.3265C78.6477 40.1343 79.0167 39.814 79.2733 39.3976C79.5941 38.8691 79.6904 38.2445 79.546 37.6359C79.4016 37.0274 79.0167 36.5149 78.4873 36.1946C77.4286 35.5539 76.3218 34.9774 75.199 34.4489L82.9306 14.4136C83.0268 14.4136 83.1231 14.4136 83.2193 14.4136C84.2299 14.4136 85.2083 14.2054 86.1547 13.789C87.9192 13.0043 89.2827 11.5789 89.9724 9.7852C91.4 6.06963 89.5393 1.88962 85.8179 0.448235C84.9838 0.127927 84.1015 -0.0322266 83.2193 -0.0322266C82.2087 -0.0322266 81.2303 0.175973 80.2839 0.592373C78.5194 1.37713 77.1559 2.80249 76.4662 4.59622C75.3594 7.47898 76.2256 10.7621 78.5675 12.732L70.8359 32.7673C68.3015 31.9825 65.7029 31.486 63.0723 31.3099C62.2542 31.2458 61.4361 31.2298 60.618 31.2298C58.6771 31.2298 56.7202 31.3899 54.8113 31.7263C52.7742 32.0786 50.7531 32.6071 48.7961 33.3278L42.8771 20.019C45.1228 17.937 45.8286 14.6058 44.5774 11.7871C43.4225 9.17661 40.8239 7.495 37.9526 7.495C36.9421 7.495 35.9636 7.7032 35.0332 8.1196C31.392 9.73715 29.7398 14.0133 31.3599 17.6487C32.5149 20.2593 35.1134 21.9409 37.9847 21.9409L37.9687 21.9569ZM80.8132 6.30986C81.0538 5.66925 81.535 5.17277 82.1606 4.88449C82.4975 4.74036 82.8343 4.66028 83.2033 4.66028C83.5241 4.66028 83.8288 4.72434 84.1176 4.83645C84.7592 5.07668 85.2565 5.55714 85.5292 6.18174C85.8018 6.80634 85.8179 7.495 85.5773 8.13561C85.3367 8.77623 84.8554 9.27271 84.2299 9.56098C83.893 9.70512 83.5562 9.7852 83.1872 9.7852C82.8664 9.7852 82.5616 9.72114 82.2729 9.60903C80.9576 9.09654 80.2999 7.62312 80.7972 6.30986H80.8132ZM35.5786 13.8211C35.8192 13.1805 36.3004 12.684 36.926 12.3957C37.2629 12.2516 37.5997 12.1715 37.9526 12.1715C38.9632 12.1715 39.8935 12.7641 40.2946 13.693C40.5673 14.3175 40.5833 15.0062 40.3427 15.6468C40.1021 16.2874 39.6209 16.7839 38.9953 17.0722C38.6584 17.2163 38.3216 17.2964 37.9687 17.2964C36.9581 17.2964 36.0278 16.7038 35.6267 15.775C35.354 15.1503 35.338 14.4617 35.5786 13.8211Z" fill="#10DF2D"/>
<path d="M83.2834 109.497C83.0749 109.497 82.8663 109.497 82.6578 109.529L76.7388 96.2202C77.0115 96.0761 76.6265 96.2843 76.8832 96.1402C77.4286 95.8359 77.8135 95.3394 77.99 94.7308C78.1664 94.1382 78.0862 93.4976 77.7815 92.9531C77.3644 92.2164 76.5944 91.752 75.7443 91.752C75.3433 91.752 74.9583 91.848 74.6054 92.0562C73.8034 92.5047 73.6109 92.5847 72.7447 92.9691C68.911 94.6667 64.8367 95.5316 60.634 95.5316C56.3351 95.5316 52.1646 94.6347 48.2506 92.857C47.9459 92.7129 47.6251 92.6488 47.2882 92.6488C46.3739 92.6488 45.5398 93.1773 45.1548 94.0101C44.6575 95.0992 45.0746 96.3644 46.0691 96.973L40.8238 110.57C39.717 110.522 38.6263 110.73 37.6157 111.195C35.8512 111.979 34.4878 113.405 33.798 115.198C33.1083 116.992 33.1564 118.962 33.9424 120.724C34.7284 122.485 36.156 123.847 37.9526 124.535C38.7867 124.856 39.6689 125.016 40.5511 125.016C41.5617 125.016 42.5402 124.808 43.4866 124.391C45.251 123.607 46.6145 122.181 47.3042 120.387C48.411 117.505 47.5449 114.222 45.2029 112.252L50.4482 98.6706C53.6082 99.6475 56.8965 100.176 60.233 100.208C64.4356 100.256 68.5581 99.5514 72.488 98.1101L78.407 111.419C76.1614 113.501 75.4556 116.832 76.7067 119.651C77.8617 122.261 80.4602 123.943 83.3315 123.943C84.3421 123.943 85.3206 123.735 86.2509 123.318C88.0154 122.533 89.3628 121.108 90.0686 119.314C90.7583 117.505 90.7102 115.551 89.9403 113.789C88.7853 111.179 86.1867 109.497 83.3155 109.497H83.2834ZM42.9251 118.706C42.6845 119.346 42.2033 119.843 41.5777 120.131C41.2409 120.275 40.904 120.355 40.5351 120.355C40.2143 120.355 39.9095 120.291 39.6208 120.179C38.9792 119.939 38.4819 119.459 38.1932 118.834C37.9205 118.209 37.9044 117.521 38.145 116.88C38.3856 116.239 38.8669 115.743 39.4925 115.455C39.8293 115.311 40.1662 115.23 40.5351 115.23C40.8559 115.23 41.1607 115.295 41.4494 115.407C42.7647 115.919 43.4224 117.393 42.9251 118.706ZM84.326 119.042C83.9892 119.186 83.6523 119.266 83.2994 119.266C82.2889 119.266 81.3585 118.674 80.9575 117.745C80.6848 117.12 80.6688 116.432 80.9094 115.791C81.15 115.15 81.6312 114.654 82.2568 114.366C82.5936 114.222 82.9305 114.141 83.2834 114.141C84.2939 114.141 85.2243 114.734 85.6253 115.663C86.2028 116.944 85.6253 118.466 84.326 119.042Z" fill="#10DF2D"/>
<path d="M30.1244 81.7904C30.5575 82.3349 31.2152 82.6552 31.937 82.6552C32.2578 82.6552 32.5786 82.5911 32.8834 82.447C32.9155 82.431 32.9636 82.415 32.9957 82.399C33.5571 82.1107 33.9581 81.6302 34.1506 81.0377C34.3431 80.4451 34.295 79.8205 34.0063 79.26C33.7657 78.7955 33.5411 78.315 33.3326 77.8346V77.8026C30.0923 70.5476 29.8838 62.4598 32.739 55.0447C32.739 55.0447 32.739 55.0287 32.739 55.0127C32.739 55.0127 32.739 54.9967 32.739 54.9806C33.4288 53.219 32.9957 53.9557 34.0063 52.3541C34.3431 51.8256 34.4394 51.201 34.295 50.5924C34.1506 49.9838 33.7817 49.4714 33.2523 49.135C32.8834 48.8948 32.4503 48.7827 32.0172 48.7827C31.1991 48.7827 30.4613 49.1991 30.0282 49.8717C29.2743 51.0729 29.8678 49.9038 29.2582 51.185L22.1201 48.4464C22.2324 45.3874 20.3717 42.5367 17.5004 41.4316C16.6663 41.1113 15.7841 40.9512 14.9019 40.9512C13.8913 40.9512 12.9128 41.1594 11.9664 41.5758C10.202 42.3605 8.8385 43.7859 8.14875 45.5796C6.72114 49.2952 8.58185 53.4752 12.3033 54.9166C13.1374 55.2369 14.0196 55.397 14.9019 55.397C15.9124 55.397 16.8909 55.1888 17.8373 54.7724C18.8479 54.324 19.7461 53.6514 20.4519 52.8026L27.59 55.5412C26.4832 59.1126 25.9699 62.8122 26.0501 66.5437C26.1463 70.3074 26.8361 74.0069 28.1354 77.5463L12.4797 84.481C11.1163 83.0075 9.19139 82.1587 7.15423 82.1587C6.14367 82.1587 5.16519 82.3669 4.23484 82.7833C2.47037 83.5681 1.10691 84.9935 0.417167 86.7872C-0.272581 88.5809 -0.224459 90.5508 0.561532 92.3125C1.71646 94.923 4.31504 96.6046 7.18632 96.6046C8.19687 96.6046 9.17535 96.3964 10.1057 95.98C12.9289 94.7308 14.6452 91.784 14.3725 88.7411L30.0603 81.7904H30.1244ZM17.34 49.087C17.0994 49.7276 16.6182 50.2241 15.9926 50.5124C15.6558 50.6565 15.3189 50.7366 14.95 50.7366C14.6292 50.7366 14.3244 50.6725 14.0357 50.5604C12.7203 50.0479 12.0627 48.5745 12.5599 47.2612C12.8005 46.6206 13.2818 46.1241 13.9073 45.8359C14.2442 45.6917 14.581 45.6116 14.95 45.6116C15.2708 45.6116 15.5756 45.6757 15.8643 45.7878C17.1796 46.3003 17.8373 47.7737 17.34 49.087ZM9.62449 90.3106C9.38388 90.9512 8.90266 91.4476 8.27708 91.7359C7.94022 91.8801 7.60337 91.9601 7.25048 91.9601C6.23992 91.9601 5.30956 91.3676 4.90854 90.4387C4.63585 89.8141 4.61981 89.1254 4.86042 88.4848C5.10103 87.8442 5.58225 87.3477 6.20784 87.0594C6.54469 86.9153 6.88154 86.8352 7.23444 86.8352C8.245 86.8352 9.17535 87.4278 9.57637 88.3567C9.84906 88.9813 9.8651 89.6699 9.62449 90.3106Z" fill="#10DF2D"/>
<path d="M87.2772 34.1612L76.0166 46.6692C75.5996 47.1336 75.3911 47.7262 75.4231 48.3508C75.4552 48.9754 75.7279 49.5519 76.1931 49.9683C76.6262 50.3527 77.1716 50.5609 77.749 50.5609C78.0859 50.5609 78.3907 50.4968 78.6954 50.3527C79.0002 50.2246 79.2569 50.0324 79.4814 49.7762L90.6297 37.3963C91.2071 37.6685 91.8167 37.8607 92.4583 37.9728C92.8754 38.0529 93.3084 38.0849 93.7255 38.0849C94.7361 38.0849 95.7306 37.8767 96.6609 37.4603C97.479 37.092 98.2169 36.5955 98.8425 35.9549C101.65 33.1362 101.65 28.5558 98.8264 25.7371C97.7677 24.6961 96.4364 24.0074 94.9767 23.7352C94.5596 23.6551 94.1265 23.623 93.7095 23.623C92.6989 23.623 91.7044 23.8312 90.774 24.2476C89.956 24.616 89.2181 25.1125 88.5925 25.7531C86.3789 27.9792 85.8656 31.3745 87.2772 34.1451V34.1612ZM91.8969 29.0683C92.1214 28.8441 92.3781 28.6679 92.6668 28.5398C92.9876 28.3956 93.3405 28.3156 93.6934 28.3156C94.3671 28.3156 95.0408 28.5878 95.506 29.0523C95.9872 29.5327 96.2599 30.1733 96.2599 30.862C96.2599 31.5507 96.0033 32.1913 95.5221 32.6717C95.2975 32.8959 95.0408 33.0721 94.7521 33.2002C94.4313 33.3444 94.0784 33.4245 93.7255 33.4245C93.0518 33.4245 92.3941 33.1522 91.929 32.7038C90.9344 31.6948 90.9184 30.0772 91.929 29.0683H91.8969Z" fill="#10DF2D"/>
<path d="M36.3639 97.5979C37.3745 97.5979 38.369 97.3897 39.2993 96.9733H39.3314V96.9573C40.1335 96.5889 40.8553 96.0924 41.4809 95.4678C42.8443 94.1065 43.5982 92.2808 43.5822 90.3589C43.5822 89.2218 43.3095 88.1007 42.7962 87.0918L51.5704 77.4185C52.4366 76.4576 52.3564 74.9842 51.41 74.1193C50.9769 73.735 50.4155 73.5107 49.838 73.5107C49.1804 73.5107 48.5548 73.783 48.1056 74.2795L39.4277 83.8407C38.8502 83.5684 38.2407 83.3762 37.599 83.2641C37.182 83.184 36.7489 83.152 36.3318 83.152C35.3213 83.152 34.3267 83.3602 33.3964 83.7766C32.5783 84.145 31.8404 84.6414 31.2149 85.282C29.8514 86.6433 29.0975 88.4691 29.1135 90.3909C29.1135 92.3128 29.8674 94.1385 31.2469 95.4999C32.3056 96.5408 33.637 97.2295 35.0967 97.5018C35.5137 97.5819 35.9468 97.6139 36.3639 97.6139V97.5979ZM33.7974 90.3909C33.7974 89.7023 34.054 89.0617 34.5513 88.5812C34.7759 88.357 35.0325 88.1808 35.3213 88.0527C35.6421 87.9086 35.995 87.8285 36.3479 87.8285C37.0216 87.8285 37.6953 88.1007 38.1605 88.5652C38.6417 89.0457 38.9144 89.6863 38.9144 90.3749C38.9144 91.0636 38.6577 91.7042 38.1605 92.1847C37.9359 92.4089 37.6792 92.5851 37.4065 92.7132H37.3905C37.0697 92.8573 36.7168 92.9374 36.3639 92.9374C35.6902 92.9374 35.0165 92.6651 34.5513 92.2007C34.0701 91.7202 33.7974 91.0796 33.7974 90.3909Z" fill="#10DF2D"/>
<path d="M80.941 66.5437L77.396 65.9832C77.2677 65.9672 77.1554 65.9512 77.027 65.9512C75.8721 65.9512 74.8936 66.784 74.7172 67.9211C74.5247 69.1863 75.3909 70.3874 76.6581 70.5796L80.2031 71.1401C80.3314 71.1562 80.4437 71.1722 80.572 71.1722C80.8928 71.1722 81.2136 71.1081 81.5184 70.98C82.2402 70.6597 82.7535 69.987 82.8819 69.2023C82.9781 68.5937 82.8338 67.9691 82.4648 67.4726C82.0959 66.9762 81.5505 66.6398 80.941 66.5437Z" fill="#10DF2D"/>
<path d="M70.4342 41.5918C69.5199 41.5918 68.6858 42.1363 68.3008 42.9691L65.189 49.8717C64.6596 51.0409 65.189 52.4342 66.3599 52.9627C66.6647 53.1069 66.9855 53.1709 67.3224 53.1709C67.6592 53.1709 67.964 53.1069 68.2688 52.9627C68.7981 52.7225 69.2152 52.3061 69.4558 51.7936L72.5676 44.891C73.097 43.7218 72.5676 42.3285 71.3967 41.8C71.0919 41.6559 70.7711 41.5918 70.4342 41.5918Z" fill="#10DF2D"/>
<path d="M43.8872 66.7523L48.154 67.0886C48.154 67.0886 48.2823 67.0886 48.3465 67.0886C48.6673 67.0886 48.9881 67.0245 49.2929 66.8964C50.0788 66.5441 50.6082 65.8074 50.6724 64.9425C50.7686 63.6613 49.8062 62.5402 48.5229 62.4281L44.2561 62.0918C44.2561 62.0918 44.1278 62.0918 44.0636 62.0918C42.8606 62.0918 41.834 63.0367 41.7377 64.2379C41.6896 64.8625 41.8821 65.455 42.2831 65.9355C42.6841 66.4159 43.2616 66.7042 43.8711 66.7523H43.8872Z" fill="#10DF2D"/>
</g>
<defs>
<clipPath id="clip0_193_206">
<rect width="120" height="125" fill="white"/>
</clipPath>
</defs>
</svg>
