<svg width="46" height="46" viewBox="0 0 46 46" fill="none" xmlns="http://www.w3.org/2000/svg">
<g clip-path="url(#clip0_193_199)">
<path d="M0.681093 31.5387C0.654276 30.3369 1.09719 29.1977 1.92646 28.3289L12.6994 17.0676L8.23293 12.7961C6.92964 11.5497 6.45849 9.71177 6.99144 7.9926C7.52604 6.2734 8.96307 5.02897 10.7404 4.74352L39.2833 0.165597C40.751 -0.0730903 42.2094 0.382635 43.2836 1.4116C44.356 2.43395 44.8746 3.8656 44.7068 5.35075L41.4049 34.0678C41.199 35.8561 40.0199 37.3472 38.3263 37.9596C36.6327 38.572 34.7738 38.1784 33.4722 36.9336L29.0057 32.6588L18.2328 43.9234C17.4019 44.7922 16.2835 45.2839 15.0817 45.3107C13.8799 45.3375 12.7407 44.8946 11.8702 44.0654L2.06844 34.6914C1.19958 33.8605 0.70791 32.7405 0.681056 31.537L0.681093 31.5387ZM16.7629 16.9769C16.7725 17.4068 16.6178 17.8421 16.2965 18.1781L4.36164 30.6577C3.92663 31.1092 3.94606 31.8312 4.39735 32.2579L14.1991 41.6318C14.4181 41.8429 14.7046 41.9544 15.0067 41.9476C15.3088 41.9409 15.5917 41.8167 15.7993 41.5961L27.7342 29.1165C28.3769 28.4445 29.4426 28.4207 30.1146 29.0634L35.7995 34.5001C36.3425 35.0194 36.9472 34.8797 37.1828 34.7931C37.4168 34.7098 37.9736 34.4317 38.0598 33.6824L41.3617 4.96536C41.4125 4.56232 41.2652 4.13878 40.9563 3.84342C40.6492 3.54967 40.2344 3.42108 39.8157 3.48689L11.2745 8.06477C10.5332 8.18428 10.2801 8.75293 10.2057 8.99208C10.1314 9.23455 10.0155 9.84332 10.5601 10.361L16.2433 15.7961C16.5794 16.1174 16.7534 16.547 16.7629 16.9769Z" fill="white"/>
</g>
<defs>
<clipPath id="clip0_193_199">
<rect width="44.6438" height="44.6438" fill="white" transform="translate(44.6328) rotate(88.7217)"/>
</clipPath>
</defs>
</svg>
