<svg width="57" height="81" viewBox="0 0 57 81" fill="none" xmlns="http://www.w3.org/2000/svg">
<g clip-path="url(#clip0_68_233)">
<path d="M48.0476 64.0203L44.9589 78.3404C44.625 79.8932 43.2424 81.0027 41.6459 81.0027H15.4441C13.8476 81.0027 12.465 79.8932 12.1311 78.3404L2.80762 35.1055H54.285L49.6598 56.5466L48.0476 64.0203Z" fill="white"/>
<path d="M28.545 47.4188C25.8268 47.4188 23.6172 45.2231 23.6172 42.5219C23.6172 39.8207 25.8268 37.625 28.545 37.625C31.2633 37.625 33.4728 39.8207 33.4728 42.5219C33.4728 45.2231 31.2633 47.4188 28.545 47.4188ZM28.545 39.6989C26.9798 39.6989 25.7041 40.9639 25.7041 42.5219C25.7041 44.0799 26.9772 45.345 28.545 45.345C30.1128 45.345 31.3859 44.0799 31.3859 42.5219C31.3859 40.9639 30.1128 39.6989 28.545 39.6989Z" fill="#EE6C22"/>
<path d="M51.8489 64.0643C51.6063 64.0643 51.3637 63.9813 51.1655 63.8102L30.755 46.1798C30.3194 45.8039 30.275 45.148 30.6533 44.7177C31.0315 44.2848 31.6889 44.2381 32.1246 44.6166L52.535 62.247C52.9707 62.6229 53.015 63.2788 52.6368 63.7091C52.4307 63.945 52.1411 64.0669 51.8489 64.0669V64.0643Z" fill="#EE6C22"/>
<path d="M54.4021 28.4039C54.3525 28.4039 54.3029 28.4013 54.2508 28.3936C53.6795 28.3106 53.2855 27.7869 53.3664 27.2192C53.4134 26.9004 53.4368 26.5737 53.4368 26.2497C53.4368 22.5323 50.3951 19.5096 46.6542 19.5096C44.5099 19.5096 42.5351 20.4869 41.2412 22.1901C41.0534 22.4364 40.7638 22.5867 40.4534 22.5997C40.1403 22.6152 39.8429 22.4882 39.6342 22.2575C38.4968 21.0054 36.8716 20.2847 35.176 20.2847C34.1899 20.2847 33.2481 20.5155 32.3795 20.9717C32.0925 21.1221 31.7481 21.1324 31.4534 20.995C31.1586 20.8602 30.9421 20.5958 30.8716 20.2796C30.0577 16.6399 26.7368 13.9957 22.9803 13.9957C19.6751 13.9957 16.7351 15.9633 15.4881 19.0067C15.3734 19.2893 15.136 19.507 14.8438 19.603C14.5516 19.6963 14.2334 19.66 13.9699 19.4993C13.0125 18.9108 11.9116 18.5997 10.7821 18.5997C7.43771 18.5997 4.71684 21.3035 4.71684 24.6269C4.71684 25.3553 4.84727 26.0682 5.10293 26.7448C5.3064 27.2814 5.03249 27.8777 4.49249 28.0799C3.95249 28.2821 3.35249 28.0099 3.14901 27.4733C2.80467 26.5634 2.62988 25.6042 2.62988 24.6243C2.62988 20.1577 6.28728 16.5233 10.7821 16.5233C11.909 16.5233 13.0177 16.754 14.0403 17.1973C15.809 13.9594 19.2029 11.9219 22.9777 11.9219C27.2847 11.9219 31.1351 14.6827 32.5621 18.6386C33.3995 18.3535 34.2864 18.2083 35.1734 18.2083C37.0647 18.2083 38.8908 18.8719 40.3334 20.0566C41.9925 18.3742 44.2386 17.4306 46.6516 17.4306C51.5429 17.4306 55.5212 21.3839 55.5212 26.2445C55.5212 26.6697 55.4899 27.0948 55.4299 27.5096C55.3542 28.0254 54.9081 28.3987 54.3995 28.3987L54.4021 28.4039Z" fill="white"/>
<path d="M43.9044 17.1401C43.5549 17.1401 43.2131 16.9664 43.0175 16.6476C41.721 14.5685 39.4827 13.3268 37.0253 13.3268C35.7497 13.3268 34.5001 13.669 33.4123 14.3171C32.9166 14.6126 32.2775 14.4519 31.9801 13.9593C31.6827 13.4668 31.8444 12.8317 32.3401 12.5361C33.7514 11.6962 35.3714 11.2529 37.0253 11.2529C40.2105 11.2529 43.114 12.8602 44.794 15.5562C45.0966 16.0436 44.9453 16.6813 44.4549 16.9846C44.2827 17.0909 44.0949 17.1401 43.907 17.1401H43.9044Z" fill="white"/>
<path d="M12.1547 13.5451C10.0677 13.5451 8.37207 11.8601 8.37207 9.78622C8.37207 7.71236 10.0677 6.02734 12.1547 6.02734C14.2416 6.02734 15.9373 7.71236 15.9373 9.78622C15.9373 11.8601 14.2416 13.5451 12.1547 13.5451ZM12.1547 8.10121C11.2208 8.10121 10.459 8.85817 10.459 9.78622C10.459 10.7143 11.2208 11.4712 12.1547 11.4712C13.0886 11.4712 13.8503 10.7143 13.8503 9.78622C13.8503 8.85817 13.0886 8.10121 12.1547 8.10121Z" fill="white"/>
<path d="M28.3937 10.6286C25.4459 10.6286 23.0459 8.24362 23.0459 5.31428C23.0459 2.38495 25.4433 0 28.3937 0C31.3442 0 33.7416 2.38495 33.7416 5.31428C33.7416 8.24362 31.3416 10.6286 28.3937 10.6286ZM28.3937 2.07387C26.5963 2.07387 25.1329 3.52816 25.1329 5.31428C25.1329 7.1004 26.5963 8.5547 28.3937 8.5547C30.1911 8.5547 31.6546 7.1004 31.6546 5.31428C31.6546 3.52816 30.1911 2.07387 28.3937 2.07387Z" fill="white"/>
<path d="M18.5299 27.875C17.956 27.875 17.4891 27.4136 17.4864 26.8433C17.4812 25.9982 17.6456 25.1712 17.9743 24.3857C19.3178 21.1738 23.043 19.6495 26.2725 20.9846C27.4934 21.4901 28.5082 22.343 29.2099 23.4525C29.5151 23.9372 29.3691 24.5776 28.8812 24.8809C28.3934 25.1842 27.7491 25.039 27.4438 24.5542C26.9743 23.8102 26.2934 23.2373 25.4743 22.9003C24.423 22.4648 23.2647 22.4648 22.2134 22.8951C21.1621 23.3255 20.3404 24.1394 19.9047 25.1842C19.683 25.713 19.5734 26.2678 19.576 26.8329C19.5786 27.4058 19.1143 27.8724 18.5378 27.875H18.5325H18.5299Z" fill="white"/>
<path d="M55.5 30.0557H1.5C0.670435 30.0557 0 30.7219 0 31.5463C0 32.3706 0.670435 33.0368 1.5 33.0368H55.5C56.3296 33.0368 57 32.3706 57 31.5463C57 30.7219 56.3296 30.0557 55.5 30.0557Z" fill="white"/>
</g>
<defs>
<clipPath id="clip0_68_233">
<rect width="57" height="81" fill="white"/>
</clipPath>
</defs>
</svg>
