<svg width="111" height="119" viewBox="0 0 111 119" fill="none" xmlns="http://www.w3.org/2000/svg">
<g clip-path="url(#clip0_104_193)">
<path d="M21.4675 52.1239H30.226C31.3329 52.1239 32.2315 53.0235 32.2315 54.1318V62.9007C32.2315 64.009 31.3329 64.9087 30.226 64.9087H21.4675C20.3605 64.9087 19.4619 64.009 19.4619 62.9007V54.131C19.4619 53.0227 20.3605 52.123 21.4675 52.123V52.1239Z" fill="white"/>
<path d="M41.2361 52.124H49.9945C51.1015 52.124 52.0001 53.0237 52.0001 54.132V62.9009C52.0001 64.0092 51.1015 64.9089 49.9945 64.9089H41.2361C40.1291 64.9089 39.2305 64.0092 39.2305 62.9009V54.132C39.2305 53.0237 40.1291 52.124 41.2361 52.124Z" fill="white"/>
<path d="M61.0056 52.1239H69.7648C70.8718 52.1239 71.7704 53.0235 71.7704 54.1318V62.9007C71.7704 64.009 70.8718 64.9087 69.7648 64.9087H61.0056C59.8986 64.9087 59 64.009 59 62.9007V54.131C59 53.0227 59.8986 52.123 61.0056 52.123V52.1239Z" fill="white"/>
<path d="M80.7741 52.1239H89.5326C90.6396 52.1239 91.5382 53.0235 91.5382 54.1318V62.9007C91.5382 64.009 90.6396 64.9087 89.5326 64.9087H80.7741C79.6672 64.9087 78.7686 64.009 78.7686 62.9007V54.131C78.7686 53.0227 79.6672 52.123 80.7741 52.123V52.1239Z" fill="white"/>
<path d="M21.4675 71.8797H30.226C31.3329 71.8797 32.2315 72.7794 32.2315 73.8877V82.6566C32.2315 83.7649 31.3329 84.6646 30.226 84.6646H21.4675C20.3605 84.6646 19.4619 83.7649 19.4619 82.6566V73.8869C19.4619 72.7786 20.3605 71.8789 21.4675 71.8789V71.8797Z" fill="white"/>
<path d="M41.2362 71.8797H49.9955C51.1025 71.8797 52.0011 72.7794 52.0011 73.8877V82.6566C52.0011 83.7649 51.1025 84.6646 49.9955 84.6646H41.237C40.1301 84.6646 39.2314 83.7649 39.2314 82.6566V73.8869C39.2314 72.7786 40.1301 71.8789 41.237 71.8789L41.2362 71.8797Z" fill="white"/>
<path d="M61.0056 71.8797H69.7648C70.8718 71.8797 71.7704 72.7794 71.7704 73.8877V82.6566C71.7704 83.7649 70.8718 84.6646 69.7648 84.6646H61.0056C59.8986 84.6646 59 83.7649 59 82.6566V73.8869C59 72.7786 59.8986 71.8789 61.0056 71.8789V71.8797Z" fill="white"/>
<path d="M80.7741 71.8797H89.5326C90.6396 71.8797 91.5382 72.7794 91.5382 73.8877V82.6566C91.5382 83.7649 90.6396 84.6646 89.5326 84.6646H80.7741C79.6672 84.6646 78.7686 83.7649 78.7686 82.6566V73.8869C78.7686 72.7786 79.6672 71.8789 80.7741 71.8789V71.8797Z" fill="white"/>
<path d="M21.4677 91.6357H30.2269C31.3339 91.6357 32.2325 92.5354 32.2325 93.6437V102.413C32.2325 103.522 31.3339 104.421 30.2269 104.421H21.4685C20.3615 104.421 19.4629 103.522 19.4629 102.413V93.6437C19.4629 92.5354 20.3615 91.6357 21.4685 91.6357H21.4677Z" fill="white"/>
<path d="M41.2361 91.6357H49.9945C51.1015 91.6357 52.0001 92.5354 52.0001 93.6437V102.413C52.0001 103.521 51.1015 104.421 49.9945 104.421H41.2361C40.1291 104.421 39.2305 103.521 39.2305 102.413V93.6437C39.2305 92.5354 40.1291 91.6357 41.2361 91.6357Z" fill="white"/>
<path d="M61.0048 91.6356H69.764C70.871 91.6356 71.7696 92.5353 71.7696 93.6436V102.412C71.7696 103.521 70.871 104.42 69.764 104.42H61.0056C59.8986 104.42 59 103.521 59 102.412V93.6428C59 92.5345 59.8986 91.6348 61.0056 91.6348L61.0048 91.6356Z" fill="white"/>
<path d="M103.019 12.2935H87.6296V4.3027C87.6296 1.9363 85.6956 0 83.3321 0C80.9685 0 79.0345 1.9363 79.0345 4.3027V12.2935H31.9655V4.3027C31.9655 1.9363 30.0315 0 27.6679 0C25.3044 0 23.3704 1.9363 23.3704 4.3027V12.2935H7.98132C3.57353 12.2935 0 15.8713 0 20.2844V111.01C0 115.423 3.57353 119.001 7.98132 119.001H103.019C107.426 119.001 111 115.423 111 111.01V20.2844C111 15.8713 107.426 12.2935 103.019 12.2935ZM79.0345 18.9336V23.8082C79.0345 26.1746 80.9685 28.1109 83.3321 28.1109C85.6956 28.1109 87.6296 26.1746 87.6296 23.8082V18.9336C89.1051 20.1668 90.0447 22.0209 90.0447 24.095C90.0447 27.8065 87.0391 30.8156 83.3321 30.8156C79.625 30.8156 76.6194 27.8065 76.6194 24.095C76.6194 22.0201 77.5591 20.166 79.0345 18.9336ZM23.3704 18.9336V23.8082C23.3704 26.1746 25.3044 28.1109 27.6679 28.1109C30.0315 28.1109 31.9655 26.1746 31.9655 23.8082V18.9336C33.4409 20.1668 34.3806 22.0209 34.3806 24.095C34.3806 27.8065 31.375 30.8156 27.6679 30.8156C23.9609 30.8156 20.9553 27.8065 20.9553 24.095C20.9553 22.0201 21.8949 20.166 23.3704 18.9336ZM104.369 109.411C104.369 111.041 103.05 112.362 101.422 112.362H9.57823C7.95075 112.362 6.63059 111.041 6.63059 109.411V44.0974H104.369V109.411Z" fill="white"/>
</g>
<defs>
<clipPath id="clip0_104_193">
<rect width="111" height="119" fill="white"/>
</clipPath>
</defs>
</svg>
