<svg width="112" height="113" viewBox="0 0 112 113" fill="none" xmlns="http://www.w3.org/2000/svg">
<g clip-path="url(#clip0_17_221)">
<path d="M56 0C25.0733 0 0 25.2972 0 56.5C0 87.7028 25.0733 113 56 113C86.9267 113 112 87.7028 112 56.5C112 25.2972 86.9286 0 56 0ZM56 100.641C31.8759 100.641 12.2498 80.8394 12.2498 56.5C12.2498 32.1606 31.8759 12.3591 56 12.3591C80.1241 12.3591 99.7502 32.1606 99.7502 56.5C99.7502 80.8394 80.1241 100.641 56 100.641Z" fill="white"/>
<path d="M83.0493 55.1599H58.5998V26.2067C58.5998 23.7686 56.6378 21.793 54.2213 21.793C51.8049 21.793 49.8486 23.7686 49.8486 26.2067V63.3695C49.8486 65.8076 51.1984 67.519 56.1949 67.519H83.0493C86.4304 67.519 89.1722 64.7527 89.1722 61.3375C89.1722 57.9224 86.4304 55.158 83.0493 55.158V55.1599Z" fill="white"/>
</g>
<defs>
<clipPath id="clip0_17_221">
<rect width="112" height="113" fill="white"/>
</clipPath>
</defs>
</svg>
