<svg width="94" height="67" viewBox="0 0 94 67" fill="none" xmlns="http://www.w3.org/2000/svg">
<g clip-path="url(#clip0_13_22)">
<path d="M7.88018 66.88C4.82018 66.88 2.54018 65.64 1.24018 63.63C-0.029821 61.67 -0.259821 59.18 0.280179 56.8C0.430179 56.16 1.00018 55.7 1.67018 55.7H7.91018V5.75C7.91018 2.58 10.4802 0 13.6602 0H80.1602C83.3302 0 85.9202 2.58 85.9202 5.75V55.7H91.8202C92.6002 55.7 93.2302 56.34 93.2302 57.12C93.2302 59.17 93.1302 61.63 91.9402 63.59C90.6702 65.69 88.3802 66.88 84.7902 66.88H7.88018ZM84.7802 64.03C86.2502 64.03 87.2702 63.79 88.0002 63.45C88.6902 63.11 89.1702 62.66 89.5002 62.11C90.0402 61.23 90.2702 60.07 90.3402 58.64V58.55H2.88018L2.85018 58.78C2.77018 60.06 3.05018 61.21 3.61018 62.08C4.33018 63.18 5.65018 64.03 7.87018 64.03H84.7702H84.7802ZM12.7602 62.65C11.9702 62.65 11.3302 62.01 11.3302 61.23C11.3302 60.45 11.9702 59.8 12.7602 59.8H15.8102C16.6002 59.8 17.2402 60.44 17.2402 61.23C17.2402 62.02 16.6102 62.65 15.8102 62.65H12.7602ZM20.8302 62.65C20.0502 62.65 19.4102 62.01 19.4102 61.23C19.4102 60.45 20.0502 59.8 20.8302 59.8H23.8902C24.6802 59.8 25.3102 60.44 25.3102 61.23C25.3102 62.02 24.6802 62.65 23.8902 62.65H20.8302ZM78.9502 62.65C78.1702 62.65 77.5302 62.01 77.5302 61.23C77.5302 60.45 78.1702 59.8 78.9502 59.8H82.0102C82.7902 59.8 83.4302 60.44 83.4302 61.23C83.4302 62.02 82.7902 62.65 82.0102 62.65H78.9502ZM83.0702 55.7V5.75C83.0702 4.16 81.7602 2.86 80.1602 2.86H13.6602C12.0502 2.86 10.7602 4.16 10.7602 5.75V55.7H83.0702ZM18.7202 52.3C16.0702 52.3 13.9302 50.17 13.9302 47.52V11.01C13.9302 8.38 16.0702 6.23 18.7202 6.23H74.7502C77.3902 6.23 79.5302 8.37 79.5302 11.01V47.51C79.5302 50.16 77.3902 52.29 74.7502 52.29H18.7202V52.3ZM74.7602 49.46C75.8302 49.46 76.6902 48.6 76.6902 47.52V11.93C76.7902 10.29 76.0702 9.08 74.7602 9.08H18.7202C17.6502 9.08 16.7802 9.95 16.7802 11.01V47.51C16.7802 48.59 17.6502 49.45 18.7202 49.45H74.7502L74.7602 49.46Z" fill="white"/>
</g>
<defs>
<clipPath id="clip0_13_22">
<rect width="93.23" height="66.88" fill="white"/>
</clipPath>
</defs>
</svg>
