<svg width="49" height="37" viewBox="0 0 49 37" fill="none" xmlns="http://www.w3.org/2000/svg">
<g clip-path="url(#clip0_13_22)">
<path d="M4.14199 37C2.53371 37 1.33539 36.314 0.652129 35.202C-0.01536 34.1177 -0.136244 32.7401 0.14757 31.4234C0.226408 31.0694 0.525989 30.8149 0.878129 30.8149H4.15776V3.18107C4.15776 1.42733 5.50851 0 7.17986 0H42.131C43.7971 0 45.1584 1.42733 45.1584 3.18107V30.8149H48.2593C48.6693 30.8149 49.0004 31.169 49.0004 31.6005C49.0004 32.7346 48.9478 34.0955 48.3224 35.1799C47.6549 36.3417 46.4513 37 44.5645 37H4.14199ZM44.5592 35.4233C45.3318 35.4233 45.8679 35.2905 46.2516 35.1024C46.6143 34.9143 46.8665 34.6654 47.04 34.3611C47.3238 33.8743 47.4447 33.2325 47.4815 32.4414V32.3916H1.51408L1.49832 32.5188C1.45627 33.227 1.60343 33.8632 1.89776 34.3445C2.27618 34.9531 2.96994 35.4233 4.13674 35.4233H44.554H44.5592ZM6.70683 34.6598C6.29162 34.6598 5.95525 34.3058 5.95525 33.8743C5.95525 33.4427 6.29162 33.0831 6.70683 33.0831H8.30986C8.72507 33.0831 9.06144 33.4372 9.06144 33.8743C9.06144 34.3113 8.73032 34.6598 8.30986 34.6598H6.70683ZM10.9483 34.6598C10.5383 34.6598 10.202 34.3058 10.202 33.8743C10.202 33.4427 10.5383 33.0831 10.9483 33.0831H12.5566C12.9718 33.0831 13.3029 33.4372 13.3029 33.8743C13.3029 34.3113 12.9718 34.6598 12.5566 34.6598H10.9483ZM41.4951 34.6598C41.0851 34.6598 40.7488 34.3058 40.7488 33.8743C40.7488 33.4427 41.0851 33.0831 41.4951 33.0831H43.1034C43.5133 33.0831 43.8497 33.4372 43.8497 33.8743C43.8497 34.3113 43.5133 34.6598 43.1034 34.6598H41.4951ZM43.6605 30.8149V3.18107C43.6605 2.30144 42.972 1.58224 42.131 1.58224H7.17986C6.33367 1.58224 5.65567 2.30144 5.65567 3.18107V30.8149H43.6605ZM9.8393 28.9339C8.44651 28.9339 7.32176 27.7555 7.32176 26.2895V6.09106C7.32176 4.63607 8.44651 3.44662 9.8393 3.44662H39.2876C40.6752 3.44662 41.7999 4.63053 41.7999 6.09106V26.2839C41.7999 27.75 40.6752 28.9284 39.2876 28.9284H9.8393V28.9339ZM39.2929 27.3627C39.8553 27.3627 40.3073 26.887 40.3073 26.2895V6.60003C40.3598 5.69273 39.9814 5.02333 39.2929 5.02333H9.8393C9.27693 5.02333 8.81967 5.50464 8.81967 6.09106V26.2839C8.81967 26.8814 9.27693 27.3572 9.8393 27.3572H39.2876L39.2929 27.3627Z" fill="#EE6C22"/>
</g>
<defs>
<clipPath id="clip0_13_22">
<rect width="49" height="37" fill="white"/>
</clipPath>
</defs>
</svg>
