<svg width="40" height="41" viewBox="0 0 40 41" fill="none" xmlns="http://www.w3.org/2000/svg">
<path d="M30.2227 15.793H32.0004V33.4078H30.2227V15.793Z" fill="#EE6C22"/>
<path d="M8 15.793H9.77778V33.4078H8V15.793Z" fill="#EE6C22"/>
<path d="M33.6307 34.015H6.36999C4.32489 34.015 2.66699 32.3421 2.66699 30.2785V10.7218C2.66699 8.65822 4.32489 6.98535 6.36999 6.98535H33.6307C35.6758 6.98535 37.3337 8.65822 37.3337 10.7218V30.2785C37.3337 32.3421 35.6758 34.015 33.6307 34.015ZM6.36999 8.57524C5.1951 8.57524 4.24266 9.53628 4.24266 10.7218V30.2785C4.24266 31.4641 5.1951 32.4251 6.36999 32.4251H33.6307C34.8055 32.4251 35.758 31.4641 35.758 30.2785V10.7218C35.758 9.53628 34.8055 8.57524 33.6307 8.57524H6.36999Z" fill="#EE6C22"/>
<path d="M19.9999 26.7262L2.96289 11.2285L4.00493 10.0225L19.9999 24.5755L35.9949 10.0225L37.037 11.2285L19.9999 26.7262Z" fill="#EE6C22"/>
<path d="M20 19.4372L7.40723 8.19232L8.44671 6.98535L20 17.295L31.5431 6.98535L32.5924 8.19232L20 19.4372Z" fill="#EE6C22"/>
</svg>
