<svg width="36" height="36" viewBox="0 0 36 36" fill="none" xmlns="http://www.w3.org/2000/svg">
<g clip-path="url(#clip0_109_3)">
<path d="M18 0C8.05922 0 0 8.05922 0 18C0 27.9408 8.05922 36 18 36C27.9408 36 36 27.9408 36 18C36 8.05922 27.9408 0 18 0ZM20.1642 31.6835V22.0043H23.3916L24.0061 18H20.1642V15.402C20.1642 14.3065 20.7007 13.2384 22.4212 13.2384H24.1685V9.82969C24.1685 9.82969 22.583 9.55898 21.0677 9.55898C17.9037 9.55898 15.8358 11.4771 15.8358 14.9484V18H12.3187V22.0043H15.8358V31.6835C9.21375 30.6443 4.14844 24.9138 4.14844 18C4.14844 10.35 10.35 4.14844 18 4.14844C25.65 4.14844 31.8516 10.35 31.8516 18C31.8516 24.9138 26.7862 30.6443 20.1642 31.6835Z" fill="#EE6C22"/>
</g>
<defs>
<clipPath id="clip0_109_3">
<rect width="36" height="36" fill="white"/>
</clipPath>
</defs>
</svg>
