<svg width="76" height="76" viewBox="0 0 76 76" fill="none" xmlns="http://www.w3.org/2000/svg">
<g clip-path="url(#clip0_68_214)">
<path d="M75.0954 46.9069C74.4095 46.1269 73.4141 45.6797 72.3658 45.6797H4.08108C3.05604 45.6797 2.07538 46.1269 1.38956 46.9069C0.716409 47.6731 0.418407 48.6799 0.551557 49.7418C1.72349 59.0931 6.28968 67.6306 13.41 73.7815C15.0659 75.2111 17.1488 75.9996 19.276 75.9996H57.2078C59.3594 75.9996 61.456 75.2122 63.1119 73.7815C70.2322 67.6306 74.7984 59.0931 75.9703 49.7418C76.0982 48.7191 75.7791 47.6858 75.0943 46.908L75.0954 46.9069Z" fill="white"/>
<path d="M54.4523 10.5763C54.7587 10.5371 55.0705 10.4873 55.4012 10.4343C56.8067 10.2096 58.5567 9.92984 59.1326 10.6738C59.1833 10.7395 59.2636 10.9038 59.3524 11.3118C59.5595 12.2603 59.5891 13.2755 59.6208 14.3512C59.6525 15.4215 59.6853 16.5279 59.8935 17.6714C60.0055 18.2861 60.1703 19.0088 60.5444 19.7115C61.2545 21.0478 62.6167 21.884 64.5928 22.1987C65.2543 22.3037 65.8989 22.3535 66.5214 22.4012C67.3002 22.4605 68.0367 22.5167 68.7067 22.6756C70.2929 23.0508 71.2196 24.4571 71.5589 25.6462C71.9911 27.1659 71.6783 28.6474 70.7219 29.6118C70.2569 30.0802 69.6419 30.4797 68.991 30.9026C67.7599 31.7017 66.365 32.6067 65.51 34.2801C64.1416 36.9592 64.8284 40.3165 65.3304 42.7688L65.4097 43.1556C65.583 44.0098 66.3311 44.599 67.1681 44.599C67.2864 44.599 67.4069 44.5873 67.5274 44.563C68.4996 44.3648 69.1283 43.4142 68.9307 42.4392L68.8504 42.0439C68.4341 40.0081 67.9152 37.4753 68.7078 35.9227C69.1241 35.1077 69.9674 34.5609 70.9428 33.9272C71.6878 33.4439 72.5321 32.895 73.2687 32.1531C75.1275 30.2795 75.7964 27.4075 75.0133 24.6574C74.224 21.8861 72.1242 19.7825 69.532 19.1689C68.5883 18.9453 67.6764 18.8753 66.794 18.8086C66.217 18.764 65.6717 18.7227 65.155 18.6401C64.3962 18.5192 63.8584 18.2872 63.7157 18.018C63.5741 17.7509 63.4906 17.3652 63.4283 17.0239C63.2687 16.1496 63.2412 15.2244 63.2127 14.2452C63.1778 13.0519 63.1408 11.8183 62.8629 10.5424C62.7319 9.9415 62.511 9.16151 61.97 8.46313C60.09 6.03732 56.9282 6.54283 54.8369 6.87666C54.5336 6.92541 54.2483 6.97098 53.9968 7.00277C53.013 7.12888 52.3177 8.0318 52.4434 9.01844C52.5692 10.0051 53.4706 10.7024 54.4533 10.5763H54.4523Z" fill="white"/>
<path d="M60.9044 37.1205C60.9033 34.416 59.52 32.2562 57.2058 31.3448C55.1441 30.532 52.7537 30.745 50.9699 31.9001C48.662 33.3955 47.1086 36.3702 47.1064 39.3037C47.1054 40.6368 47.322 41.8916 47.5323 43.105C47.7014 44.0853 48.6324 44.7424 49.6088 44.5728C50.5863 44.4033 51.2415 43.4707 51.0724 42.4904C50.8801 41.3787 50.6983 40.3285 50.6994 39.3079C50.7015 37.5741 51.6145 35.7736 52.9196 34.9279C53.7238 34.4075 54.9179 34.3153 55.8912 34.699C57.0642 35.161 57.3104 36.2727 57.3104 37.1237C57.3104 37.9037 57.2385 38.6943 57.1624 39.5315C57.0652 40.6029 56.9638 41.7093 57.0113 42.8751C57.0515 43.8437 57.8472 44.6025 58.8046 44.6025C58.8289 44.6025 58.8543 44.6025 58.8796 44.6014C59.8709 44.5612 60.6412 43.7218 60.6011 42.7278C60.563 41.8005 60.6486 40.8583 60.7406 39.86C60.8209 38.9794 60.9033 38.068 60.9033 37.1227L60.9044 37.1205Z" fill="white"/>
<path d="M8.97355 35.9456C9.43746 36.3176 9.91722 36.7033 10.378 37.0827C12.9871 39.2309 15.0076 41.4235 16.5546 43.7857C16.9002 44.3124 17.4729 44.5986 18.0584 44.5986C18.3965 44.5986 18.7389 44.5032 19.0433 44.3029C19.8728 43.7571 20.1032 42.6401 19.559 41.8082C17.81 39.1366 15.5528 36.68 12.6584 34.2977C12.1797 33.9034 11.6915 33.5113 11.2191 33.133C9.19969 31.5115 7.29121 29.9802 5.78958 28.08C4.02693 25.8492 2.71023 22.2916 4.30485 19.001C5.33412 16.8762 7.33031 15.348 10.2364 14.4599C10.4276 14.4016 10.6189 14.3444 10.8112 14.2872C11.2847 14.1462 11.7655 14.0021 12.2505 13.8368C11.7538 16.5339 11.7486 19.3709 12.2262 22.1835C10.6665 21.784 9.23245 20.9754 8.05947 19.8139C7.47826 19.2384 6.54093 19.2437 5.96711 19.8266C5.3933 20.4094 5.39859 21.3495 5.97979 21.9249C7.89462 23.8219 10.3368 25.0067 12.9702 25.3395C13.4531 26.9185 14.1083 28.47 14.9674 30.065C15.0625 30.2409 15.1618 30.4147 15.2643 30.5853C14.513 30.1911 13.8082 29.7015 13.172 29.1207C12.5675 28.5686 11.6323 28.6131 11.0818 29.2182C10.5312 29.8244 10.5756 30.7623 11.179 31.3144C13.1868 33.1478 15.7124 34.2934 18.3913 34.6029C18.5191 34.7512 18.6438 34.8964 18.7675 35.0437C18.983 35.2991 19.1986 35.5482 19.4131 35.7962C20.2247 36.7351 20.9908 37.6221 21.5752 38.6406C22.3456 39.9822 22.967 41.4309 23.5894 42.921C23.639 43.0407 23.7014 43.152 23.7733 43.2548C23.787 43.2908 23.8007 43.3269 23.8145 43.364C24.0797 44.0973 24.7687 44.552 25.5031 44.552C25.706 44.552 25.9132 44.517 26.115 44.4439C27.0481 44.1047 27.53 43.0715 27.1918 42.1367C27.1115 41.9142 27.0238 41.6916 26.9308 41.4744C26.878 41.3515 26.8125 41.237 26.7374 41.1331C26.1235 39.6717 25.4915 38.2411 24.6895 36.8443C23.9318 35.5249 23.0156 34.464 22.129 33.4382C21.924 33.2008 21.7168 32.9613 21.5108 32.7176C21.2582 32.4187 20.9982 32.1188 20.7478 31.8284C19.7344 30.6584 18.7759 29.5531 18.1302 28.3534C17.3049 26.8231 16.6994 25.3501 16.2788 23.8526C15.3658 20.6023 15.2179 17.2429 15.8519 14.1378C16.0981 12.9339 16.4606 11.7851 16.9319 10.7221C17.5554 9.31582 18.4029 8.0759 19.4522 7.03627C19.9764 6.51698 21.8035 4.86375 23.3041 5.39151C24.2879 5.73805 25.166 6.51062 26.0949 7.32982C26.655 7.82367 27.2352 8.33448 27.884 8.79654C30.007 10.3078 32.3297 10.3502 34.6007 8.91735C35.7176 8.21261 36.7152 7.40083 37.6811 6.61554C38.5148 5.93729 39.3032 5.29613 40.1369 4.74293C40.7213 4.35506 41.348 3.96719 41.9662 3.75523C43.9465 3.0791 45.5602 5.05662 46.5662 6.83491C48.5032 10.2611 48.3753 13.8601 47.9822 18.5686C47.7645 21.182 47.2509 23.2348 46.4129 24.8446C45.2653 27.0489 43.4615 29.0423 41.8605 30.7379C39.6635 33.0652 37.7202 35.2038 36.1932 37.8002C35.4524 38.9649 34.8881 40.528 34.5182 42.4504C34.3301 43.4275 34.9663 44.3729 35.9406 44.5615C36.0558 44.5837 36.171 44.5943 36.2841 44.5943C37.1273 44.5943 37.8797 43.9956 38.0456 43.135C38.3289 41.6662 38.741 40.4835 39.2366 39.7152C39.244 39.7046 39.2493 39.6929 39.2556 39.6823C39.262 39.6717 39.2704 39.6611 39.2768 39.6505C40.6135 37.371 42.4185 35.3882 44.4685 33.2178C46.2365 31.3462 48.2358 29.1292 49.5969 26.5147C50.66 24.4726 51.3025 21.9726 51.5614 18.8728C51.9196 14.5829 52.3254 9.72065 49.691 5.06086C47.3577 0.934138 44.1209 -0.782681 40.808 0.348088C39.8041 0.690392 38.9397 1.22027 38.1545 1.74062C37.1749 2.39026 36.2819 3.11725 35.4175 3.81988C34.4939 4.57125 33.6221 5.28024 32.688 5.86946C31.6534 6.52228 30.8894 6.52016 29.9647 5.86099C29.4681 5.50702 28.982 5.07888 28.4673 4.6253C27.3746 3.66303 26.1372 2.57254 24.495 1.99496C22.1216 1.15987 19.3635 2.06385 16.9287 4.47693C15.6881 5.70626 14.6662 7.14436 13.8864 8.75732C13.8832 8.76262 13.88 8.76792 13.8779 8.77322C13.6243 9.30522 12.7958 9.71747 12.0392 10.0619C11.3544 10.3735 10.5967 10.5992 9.79358 10.8376C9.5928 10.897 9.39202 10.9574 9.1923 11.0178C5.34575 12.1931 2.53903 14.4112 1.0765 17.4315C-0.865796 21.4417 -0.137699 26.3812 2.97758 30.3235C4.73178 32.5438 6.89071 34.2765 8.97778 35.952L8.97355 35.9456Z" fill="white"/>
<path d="M29.1872 42.2607C28.9009 43.0279 29.2876 43.8832 30.0527 44.1714C30.2239 44.2361 30.3993 44.2668 30.5726 44.2668C31.1718 44.2668 31.735 43.8991 31.958 43.3035C33.1511 40.1136 33.7703 36.7817 33.8105 33.4318C37.3252 31.68 40.1266 28.737 41.753 25.0628C42.0848 24.3135 41.7477 23.4371 41.0006 23.1043C40.2535 22.7716 39.3795 23.1096 39.0477 23.8578C37.8885 26.4765 36.0117 28.6437 33.6604 30.1179C33.5252 28.7985 33.3011 27.4822 32.9841 26.1787C32.6692 24.8805 32.2687 23.6152 31.7868 22.3869C34.5164 19.6347 36.7081 16.448 38.309 12.8999C38.6461 12.1527 38.3154 11.2742 37.5704 10.9361C36.8264 10.5981 35.9493 10.9298 35.6122 11.6758C34.3124 14.5573 32.5836 17.175 30.4606 19.4842C28.8818 16.4766 26.7821 13.7583 24.2248 11.4427C23.6182 10.8937 22.683 10.9414 22.1356 11.5497C21.5882 12.158 21.6357 13.0959 22.2423 13.6449C25.9694 17.0213 28.5521 21.2604 29.8657 25.8481C26.818 25.191 24.043 23.683 21.752 21.4204C21.1697 20.8449 20.2334 20.8523 19.6596 21.4363C19.0869 22.0202 19.0932 22.9592 19.6755 23.5346C22.6999 26.521 26.4439 28.3915 30.5568 28.985C31.2384 33.3449 30.8146 37.904 29.1851 42.2596L29.1872 42.2607Z" fill="white"/>
</g>
<defs>
<clipPath id="clip0_68_214">
<rect width="76" height="76" fill="white"/>
</clipPath>
</defs>
</svg>
