<svg width="77" height="85" viewBox="0 0 77 85" fill="none" xmlns="http://www.w3.org/2000/svg">
<path d="M39.8814 77.1635C19.4435 77.1635 2.86035 60.7212 2.86035 40.4567C2.86035 20.1923 19.4435 3.75 39.8814 3.75C60.3194 3.75 76.9025 20.1923 76.9025 40.4567C76.9025 60.7212 60.3194 77.1635 39.8814 77.1635ZM39.8814 74.0385C58.5738 74.0385 73.775 58.9904 73.775 40.4567C73.775 21.9231 58.5738 6.875 39.8814 6.875C21.1891 6.875 5.98787 21.9231 5.98787 40.4567C5.98787 58.9904 21.1648 74.0385 39.8572 74.0385H39.8814ZM39.0571 70.5769C29.9413 70.3846 21.0194 66.1058 15.225 58.2692C5.35752 44.8558 8.29108 26.0337 21.8194 16.226C35.3478 6.44231 54.3311 9.35096 64.2228 22.7644C74.0902 36.1539 71.1566 55 57.6525 64.8077C52.5855 68.4856 46.7426 70.3606 40.8997 70.5769C40.2936 70.601 39.6875 70.625 39.0814 70.5769H39.0571ZM39.1299 67.0433C39.6632 67.0433 40.1966 67.0433 40.73 67.0433C45.894 66.851 51.0581 65.1923 55.519 61.9471C67.4473 53.2933 70.0656 36.6587 61.3377 24.8317C52.6097 13.0048 35.8326 10.4087 23.9044 19.0625C11.9762 27.7163 9.38208 44.351 18.0858 56.1779C23.2013 63.125 31.0565 66.875 39.1299 67.0433ZM40.1966 57.7644C39.2511 57.7644 38.4995 57.0192 38.4995 56.0817V54.8077L35.2265 54.0385C34.0628 53.6298 32.9476 53.0769 31.9051 52.4038C31.0323 51.851 30.7898 50.6971 31.3474 49.8317C31.9051 48.9663 33.0688 48.726 33.9658 49.2789C34.7174 49.7596 35.5175 50.1683 36.3175 50.4567L38.4995 51.0337V41.9712L36.5115 41.1058C35.8084 40.7452 35.1296 40.3606 34.4992 39.8798C32.7294 38.5096 31.5172 36.5625 31.5172 33.7981C31.5172 30.0481 34.4022 27.5481 37.6752 26.7548L38.4995 26.5865V24.8798C38.4995 23.9663 39.2511 23.1971 40.1966 23.1971C41.1422 23.1971 41.8937 23.9423 41.8937 24.8798L41.9422 26.5865L45.0455 27.4038C46.1607 27.8846 47.2517 28.5577 48.27 29.4231C49.07 30.0962 49.167 31.274 48.4882 32.0433C47.8093 32.8365 46.6214 32.9327 45.8456 32.2596C45.191 31.7067 44.4879 31.274 43.7848 30.9615L41.8937 30.3606V39.2308L41.9665 39.2548C43.5423 39.8077 45.3122 40.4327 46.7183 41.3462C48.4639 42.476 49.8459 44.2067 49.8459 46.8029C49.8459 51.3221 46.8153 53.9183 43.1302 54.7115L41.8937 54.9039V56.1058C41.8937 57.0192 41.1179 57.7885 40.1966 57.7885V57.7644ZM41.8937 51.1539L42.3544 51.0817C44.6576 50.601 46.088 49.2308 46.088 46.8269C46.088 45.7933 45.6516 45.1442 44.6576 44.4952C44.2454 44.2308 43.7605 43.9904 43.2272 43.75L41.918 43.2452V51.1779L41.8937 51.1539ZM38.4995 37.9087V30.4087L37.1418 30.9135C35.9296 31.5865 35.275 32.6202 35.275 33.7981C35.275 35.2885 35.8569 36.1779 36.8267 36.9471L38.4995 37.9087ZM20.5587 36.1058C19.5889 36.1058 18.7889 35.2885 18.8131 34.3269C18.8859 26.5144 27.0804 18.6058 34.5719 19.1827C35.5417 19.2548 36.269 20.0962 36.2206 21.0817C36.1478 22.0433 35.2993 22.7885 34.3052 22.7163C29.0442 22.3077 22.4255 28.4375 22.377 34.399C22.377 35.3606 21.577 36.1538 20.583 36.1298L20.5587 36.1058Z" fill="white"/>
<path d="M73.3634 3.60596L3.63672 81.3944" stroke="white" stroke-width="3" stroke-miterlimit="10" stroke-linecap="round"/>
</svg>
