<svg width="41" height="46" viewBox="0 0 41 46" fill="none" xmlns="http://www.w3.org/2000/svg">
<g clip-path="url(#clip0_13_19)">
<path d="M19.236 41.7589C8.35341 41.7589 -0.476562 32.8607 -0.476562 21.8941C-0.476562 10.9275 8.35341 2.0293 19.236 2.0293C30.1185 2.0293 38.9485 10.9275 38.9485 21.8941C38.9485 32.8607 30.1185 41.7589 19.236 41.7589ZM19.236 40.0678C29.1891 40.0678 37.2832 31.9241 37.2832 21.8941C37.2832 11.8641 29.1891 3.72047 19.236 3.72047C9.28288 3.72047 1.18874 11.8641 1.18874 21.8941C1.18874 31.9241 9.26997 40.0678 19.2231 40.0678H19.236ZM18.7971 38.1945C13.9431 38.0904 9.19252 35.7748 6.10719 31.5338C0.853098 24.2748 2.41513 14.0887 9.61853 8.78099C16.8219 3.48631 26.9299 5.06041 32.1969 12.3195C37.451 19.5655 35.889 29.7646 28.6985 35.0723C26.0005 37.0627 22.8893 38.0774 19.7782 38.1945C19.4554 38.2075 19.1327 38.2205 18.81 38.1945H18.7971ZM18.8358 36.2821C19.1198 36.2821 19.4038 36.2821 19.6878 36.2821C22.4375 36.1781 25.1872 35.2804 27.5625 33.5242C33.9139 28.841 35.3081 19.8387 30.6607 13.4382C26.0134 7.03778 17.0801 5.6328 10.7287 10.3161C4.37734 14.9993 2.99605 24.0016 7.63049 30.402C10.3544 34.1617 14.537 36.1911 18.8358 36.2821ZM19.4038 31.2606C18.9003 31.2606 18.5001 30.8574 18.5001 30.35V29.6605L16.7574 29.2442C16.1377 29.0231 15.5439 28.7239 14.9888 28.3596C14.5241 28.0604 14.395 27.436 14.6919 26.9676C14.9888 26.4993 15.6084 26.3692 16.0861 26.6684C16.4863 26.9286 16.9123 27.1498 17.3383 27.3059L18.5001 27.6181V22.7137L17.4416 22.2454C17.0672 22.0502 16.7057 21.8421 16.3701 21.5819C15.4277 20.8404 14.7823 19.7866 14.7823 18.2906C14.7823 16.2612 16.3185 14.9083 18.0612 14.479L18.5001 14.3879V13.4643C18.5001 12.9699 18.9003 12.5536 19.4038 12.5536C19.9073 12.5536 20.3074 12.9569 20.3074 13.4643L20.3333 14.3879L21.9857 14.8302C22.5795 15.0904 23.1604 15.4546 23.7026 15.923C24.1286 16.2872 24.1802 16.9247 23.8188 17.3409C23.4573 17.7702 22.8248 17.8223 22.4117 17.458C22.0631 17.1588 21.6887 16.9247 21.3144 16.7555L20.3074 16.4303V21.2307L20.3462 21.2437C21.1853 21.5429 22.1277 21.8811 22.8764 22.3755C23.8059 22.9869 24.5417 23.9235 24.5417 25.3285C24.5417 27.7742 22.928 29.1792 20.9658 29.6085L20.3074 29.7126V30.363C20.3074 30.8574 19.8943 31.2736 19.4038 31.2736V31.2606ZM20.3074 27.6831L20.5527 27.6441C21.7791 27.3839 22.5408 26.6424 22.5408 25.3415C22.5408 24.7821 22.3084 24.4309 21.7791 24.0796C21.5596 23.9365 21.3015 23.8064 21.0175 23.6764L20.3204 23.4032V27.6962L20.3074 27.6831ZM18.5001 20.5152V16.4563L17.7772 16.7295C17.1318 17.0938 16.7832 17.6532 16.7832 18.2906C16.7832 19.0972 17.093 19.5785 17.6094 19.9948L18.5001 20.5152ZM8.94724 19.5395C8.43087 19.5395 8.00486 19.0972 8.01777 18.5768C8.0565 14.3489 12.4198 10.0689 16.4088 10.3811C16.9252 10.4201 17.3125 10.8755 17.2867 11.4088C17.2479 11.9292 16.7961 12.3325 16.2668 12.2934C13.4655 12.0723 9.94126 15.3896 9.91544 18.6158C9.91544 19.1362 9.48943 19.5655 8.96015 19.5525L8.94724 19.5395Z" fill="#EE6C22"/>
<path d="M37.0637 1.95117L-0.0634766 44.0485" stroke="#EE6C22" stroke-width="2" stroke-miterlimit="10" stroke-linecap="round"/>
</g>
<defs>
<clipPath id="clip0_13_19">
<rect width="41" height="46" fill="white"/>
</clipPath>
</defs>
</svg>
