<svg width="91" height="66" viewBox="0 0 91 66" fill="none" xmlns="http://www.w3.org/2000/svg">
<path d="M86.4185 25.2912C84.4024 26.9597 80.6219 29.4384 78.52 30.243C77.2216 30.741 76.9585 29.6015 77.5562 28.9376C80.7076 25.446 86.9161 18.3953 90.3564 13.331C91.0141 12.3604 90.9112 11.0718 90.119 10.208L89.8816 9.9492C88.895 9.29647 87.5653 9.48497 86.8074 10.3881C84.4939 13.1453 79.5838 18.9158 75.4915 23.1727C75.074 23.6088 74.3733 23.0826 74.6908 22.5706C77.7821 17.5682 83.1985 8.59591 85.5349 3.50627C85.9953 2.50748 85.5949 1.32862 84.6169 0.805308C83.6589 0.29325 82.4635 0.588668 81.8658 1.48336L69.6634 19.7486C69.3059 20.286 68.4651 19.8556 68.7054 19.2591C71.3649 12.6502 72.8262 8.66624 75.1741 3.28119C75.6087 2.28521 75.0683 1.14012 74.0159 0.819375L73.953 0.799681C73.1236 0.546465 72.2228 0.875646 71.7624 1.60153L59.5399 20.8093C59.4398 20.9669 59.3255 21.1132 59.1996 21.2482L57.7354 22.821C56.7746 23.8564 55.0301 23.4231 54.6813 22.0642L54.5812 21.6703C54.1894 20.1453 54.1579 18.5557 54.4839 17.0167L55.4677 12.3913C55.7537 11.0465 54.9958 9.6988 53.6861 9.22332L53.1484 9.02919C51.7443 8.51994 50.18 9.1783 49.5852 10.5288C46.9657 16.4906 46.0077 23.0348 46.8113 29.4834C46.8999 30.1952 46.9857 30.8761 47.0629 31.495C47.2231 32.7724 47.0572 34.0581 46.6025 35.2454C46.6969 35.4002 46.7998 35.5493 46.9114 35.6956L46.9485 35.7434C47.5377 36.5171 48.2526 37.1699 49.0762 37.6876L59.2597 44.0855C60.4465 44.831 61.1557 46.1028 61.1585 47.487C61.1585 48.8712 60.455 50.1458 59.2683 50.8942L47.5434 58.2993L58.8193 65.4231C59.9289 66.1237 61.4073 65.5047 61.6647 64.233L64.1098 52.1433C64.2928 51.2458 64.716 50.413 65.3366 49.7322L67.53 47.3238L78.9746 37.0348C78.9746 37.0348 87.6968 31.0364 90.0418 28.1244C92.3868 25.2153 89.5814 22.6747 86.4242 25.2912H86.4185Z" fill="white"/>
<path d="M44.9768 37.2337L44.9379 37.1803C43.7298 35.5456 43.1938 33.5085 43.4382 31.4912C43.5132 30.8722 43.5965 30.1913 43.6826 29.4795C44.463 23.0307 43.5326 16.4891 40.9886 10.5243C40.4109 9.17096 38.8918 8.51258 37.5281 9.02466L37.006 9.2188C35.734 9.69429 34.998 11.042 35.2757 12.3869L36.2311 17.0124C36.5477 18.5515 36.5172 20.144 36.1367 21.6661L36.0395 22.06C35.7007 23.419 34.0065 23.8523 33.0734 22.8169L31.6542 21.2441C31.532 21.109 31.4209 20.9599 31.3237 20.8052L19.4452 1.59959C18.9981 0.873685 18.1232 0.547308 17.3178 0.797718L17.2567 0.817413C16.2347 1.13816 15.7098 2.28329 16.1319 3.27931C18.4121 8.66452 19.8313 12.6486 22.4141 19.2577C22.6474 19.8542 21.8309 20.2846 21.4838 19.7473L9.63308 1.48423C9.05263 0.589512 7.88895 0.294085 6.96134 0.803345C6.00873 1.32667 5.62269 2.50557 6.06983 3.50439C8.33887 8.59418 13.6018 17.5639 16.6013 22.5693C16.9068 23.0814 16.2291 23.6075 15.8236 23.1714C11.8521 18.9144 7.08076 13.1438 4.83394 10.3864C4.09796 9.48327 2.80652 9.29476 1.84836 9.94751L1.61784 10.2064C0.845758 11.073 0.745775 12.3588 1.38733 13.3295C4.7284 18.3939 10.7607 25.4448 13.8185 28.9364C14.3989 29.5976 14.1434 30.7371 12.8825 30.2419C10.8412 29.4373 7.16963 26.9613 5.21165 25.29C2.14553 22.6734 -0.578989 25.2141 1.69838 28.1233C3.97576 31.0326 12.4465 37.034 12.4465 37.034L23.5612 47.3233L25.6913 49.7317C26.294 50.4126 26.705 51.2454 26.8828 52.1429L29.2574 64.2329C29.5073 65.5047 30.9432 66.1237 32.0208 65.4231L57.5746 48.8032C58.5188 48.1898 58.5161 46.7915 57.5746 46.1809C54.8723 44.4337 50.1425 41.3725 47.6846 39.7856C46.6376 39.1076 45.7211 38.2466 44.9768 37.2393V37.2337Z" fill="white"/>
</svg>
