<svg width="1386" height="1518" viewBox="0 0 1386 1518" fill="none" xmlns="http://www.w3.org/2000/svg">
<path d="M555.546 1513.32C541.011 1513.32 529.218 1501.55 529.218 1487.01V1015.12C529.218 1000.59 540.999 988.811 555.546 988.811H939.456C953.991 988.811 965.784 1000.58 965.784 1015.12V1474.92C965.784 1489.44 954.003 1501.22 939.456 1501.22C924.908 1501.22 913.127 1489.45 913.127 1474.92V1041.42H581.863V1487.02C581.863 1501.55 570.082 1513.33 555.534 1513.33L555.546 1513.32Z" fill="#FC842B" fill-opacity="0.08"/>
<path d="M276.819 508.732C262.283 508.732 250.49 496.961 250.49 482.425V88.4525C250.49 73.9288 262.271 62.1455 276.819 62.1455H473.901C488.436 62.1455 500.229 73.9169 500.229 88.4525V294.142C500.229 308.666 488.448 320.449 473.901 320.449C459.353 320.449 447.572 308.678 447.572 294.142V114.748H303.135V482.425C303.135 496.949 291.354 508.732 276.807 508.732H276.819Z" fill="#FC842B" fill-opacity="0.08"/>
<path d="M1468.68 773.198H1284.43C1269.9 773.198 1258.1 761.427 1258.1 746.891C1258.1 732.356 1269.88 720.584 1284.43 720.584H1405.13L747.499 63.506L89.8715 720.596H210.568C225.103 720.596 236.896 732.368 236.896 746.903C236.896 761.439 225.115 773.21 210.568 773.21H26.3278C15.6795 773.21 6.08058 766.8 2.00253 756.971C-2.07553 747.142 0.178135 735.835 7.71419 728.317L728.886 7.71095C739.153 -2.55925 755.834 -2.55925 766.113 7.71095L1487.3 728.305C1494.83 735.823 1497.07 747.142 1493.01 756.959C1488.93 766.788 1479.34 773.198 1468.69 773.198H1468.68Z" fill="#FC842B" fill-opacity="0.08"/>
<path d="M1111.95 612.113C1105.21 612.113 1098.48 609.54 1093.34 604.405L792.728 304.043C782.45 293.773 782.45 277.116 792.728 266.846C802.995 256.576 819.677 256.576 829.956 266.846L1130.56 567.208C1140.84 577.478 1140.84 594.134 1130.56 604.405C1125.42 609.54 1118.69 612.113 1111.95 612.113Z" fill="#FC842B" fill-opacity="0.08"/>
<path d="M210.58 1518C196.045 1518 184.252 1506.23 184.252 1491.69V746.889C184.252 732.365 196.033 720.582 210.58 720.582C225.128 720.582 236.909 732.353 236.909 746.889V1491.69C236.909 1506.22 225.128 1518 210.58 1518Z" fill="#FC842B" fill-opacity="0.08"/>
<path d="M1284.42 1518C1269.88 1518 1258.09 1506.23 1258.09 1491.69V746.889C1258.09 732.365 1269.87 720.582 1284.42 720.582C1298.97 720.582 1310.75 732.353 1310.75 746.889V1491.69C1310.75 1506.22 1298.97 1518 1284.42 1518Z" fill="#FC842B" fill-opacity="0.08"/>
</svg>
