<svg width="34" height="33" viewBox="0 0 34 33" fill="none" xmlns="http://www.w3.org/2000/svg">
<g clip-path="url(#clip0_109_12)">
<path d="M33.9666 9.70209C33.8869 7.94867 33.5948 6.74321 33.1763 5.69867C32.7446 4.58991 32.0804 3.59724 31.2102 2.77203C30.36 1.93397 29.3305 1.28277 28.2013 0.870287C27.1189 0.464103 25.8834 0.180554 24.0769 0.103246C22.2568 0.0193901 21.679 0 17.0629 0C12.4468 0 11.869 0.0193901 10.0557 0.0966986C8.24911 0.174007 7.00712 0.457807 5.93119 0.86374C4.78857 1.28277 3.76581 1.92742 2.9156 2.77203C2.05215 3.59724 1.38147 4.59646 0.95623 5.69237C0.537737 6.74321 0.245596 7.94212 0.165945 9.69554C0.079548 11.4621 0.0595703 12.0229 0.0595703 16.5032C0.0595703 20.9836 0.079548 21.5444 0.159199 23.3044C0.23885 25.0578 0.531251 26.2632 0.949744 27.3078C1.38147 28.4165 2.05215 29.4092 2.9156 30.2344C3.76581 31.0725 4.79531 31.7237 5.92444 32.1362C7.00712 32.5423 8.24237 32.8259 10.0492 32.9032C11.8622 32.9808 12.4403 32.9999 17.0564 32.9999C21.6725 32.9999 22.2503 32.9808 24.0636 32.9032C25.8702 32.8259 27.1122 32.5423 28.1881 32.1362C30.4731 31.2787 32.2796 29.5253 33.1631 27.3078C33.5813 26.2569 33.8737 25.0578 33.9534 23.3044C34.033 21.5444 34.053 20.9836 34.053 16.5032C34.053 12.0229 34.0462 11.4621 33.9666 9.70209ZM30.9048 23.1754C30.8316 24.7871 30.5527 25.6574 30.3203 26.2375C29.749 27.6752 28.5734 28.8162 27.0922 29.3707C26.4944 29.5963 25.5913 29.867 23.9373 29.9378C22.144 30.0153 21.6061 30.0345 17.0696 30.0345C12.5332 30.0345 11.9886 30.0153 10.2017 29.9378C8.54125 29.867 7.64459 29.5963 7.04682 29.3707C6.30972 29.1063 5.63878 28.6872 5.0942 28.1393C4.52964 27.6042 4.09791 26.9595 3.82549 26.2441C3.59302 25.6639 3.31411 24.7871 3.24121 23.182C3.1613 21.4414 3.14158 20.9191 3.14158 16.5161C3.14158 12.113 3.1613 11.5844 3.24121 9.85041C3.31411 8.23877 3.59302 7.36848 3.82549 6.78829C4.09791 6.07262 4.52964 5.42167 5.10094 4.89285C5.65202 4.34489 6.31621 3.92586 7.05357 3.6617C7.65134 3.43607 8.55474 3.16537 10.2085 3.09435C12.0018 3.01705 12.5399 2.99766 17.0761 2.99766C21.6194 2.99766 22.1572 3.01705 23.944 3.09435C25.6045 3.16537 26.5012 3.43607 27.0989 3.6617C27.836 3.92586 28.507 4.34489 29.0516 4.89285C29.6161 5.42796 30.0478 6.07262 30.3203 6.78829C30.5527 7.36848 30.8316 8.24506 30.9048 9.85041C30.9845 11.591 31.0044 12.113 31.0044 16.5161C31.0044 20.9191 30.9845 21.4348 30.9048 23.1754Z" fill="#EE6C22"/>
<path d="M17.0632 8.02637C12.2413 8.02637 8.3291 11.8233 8.3291 16.5036C8.3291 21.1839 12.2413 24.9809 17.0632 24.9809C21.8854 24.9809 25.7974 21.1839 25.7974 16.5036C25.7974 11.8233 21.8854 8.02637 17.0632 8.02637ZM17.0632 22.0026C13.935 22.0026 11.3976 19.54 11.3976 16.5036C11.3976 13.4672 13.935 11.0046 17.0632 11.0046C20.1917 11.0046 22.7288 13.4672 22.7288 16.5036C22.7288 19.54 20.1917 22.0026 17.0632 22.0026Z" fill="#EE6C22"/>
<path d="M28.1818 7.69096C28.1818 8.78386 27.2688 9.67001 26.1425 9.67001C25.0165 9.67001 24.1035 8.78386 24.1035 7.69096C24.1035 6.59781 25.0165 5.71191 26.1425 5.71191C27.2688 5.71191 28.1818 6.59781 28.1818 7.69096Z" fill="#EE6C22"/>
</g>
<defs>
<clipPath id="clip0_109_12">
<rect width="34" height="33" fill="white"/>
</clipPath>
</defs>
</svg>
