<svg width="82" height="124" viewBox="0 0 82 124" fill="none" xmlns="http://www.w3.org/2000/svg">
<g clip-path="url(#clip0_17_224)">
<path d="M41 0C18.3564 0 0 18.3467 0 40.9783C0 76.2518 27.9294 102.958 37.6848 111.211C39.5984 112.83 42.4016 112.83 44.3152 111.211C54.0706 102.958 82 76.2518 82 40.9783C82 18.3467 63.6436 0 41 0ZM41 67.2437C26.486 67.2437 14.7206 55.4846 14.7206 40.9783C14.7206 26.4719 26.486 14.7128 41 14.7128C55.514 14.7128 67.2794 26.4719 67.2794 40.9783C67.2794 55.4846 55.514 67.2437 41 67.2437Z" fill="white"/>
<path d="M67.5076 114.65C67.5076 119.814 55.6409 124 41.0013 124C26.3618 124 14.4951 119.814 14.4951 114.65C14.4951 111.218 19.7378 108.217 27.5531 106.591C30.8987 109.993 33.8603 112.64 35.9817 114.436C37.3833 115.622 39.1663 116.274 41.0026 116.274C42.8389 116.274 44.6219 115.622 46.0235 114.436C48.1462 112.64 51.1066 109.994 54.4522 106.591C62.2674 108.217 67.5101 111.218 67.5101 114.65H67.5076Z" fill="white"/>
</g>
<defs>
<clipPath id="clip0_17_224">
<rect width="82" height="124" fill="white"/>
</clipPath>
</defs>
</svg>
