<svg width="625" height="131" viewBox="0 0 625 131" fill="none" xmlns="http://www.w3.org/2000/svg">
<g clip-path="url(#clip0_62_224)">
<path d="M95.5938 6.83105H103.647L129.497 76.7402L155.581 6.83105H163.523L133.015 86.5358H125.526L95.5938 6.83105Z" fill="#514C4C"/>
<path d="M174.187 6.83105H181.675V86.5358H174.187V6.83105Z" fill="#514C4C"/>
<path d="M202.647 6.83105H227.481C234.438 6.83105 240.334 7.67664 245.168 9.36781C250.002 11.059 254.028 13.2114 257.247 15.836C260.455 18.4606 262.988 21.3707 264.847 24.5664C266.694 27.7621 268.054 30.815 268.928 33.7361C269.791 36.6682 270.344 39.3038 270.576 41.6758C270.798 44.0369 270.919 45.7061 270.919 46.6834C270.919 47.6608 270.809 49.33 270.576 51.6911C270.355 54.0521 269.802 56.6987 268.928 59.6308C268.054 62.5629 266.694 65.6158 264.847 68.8114C262.988 72.0071 260.466 74.9062 257.247 77.5418C254.028 80.1665 250.002 82.3298 245.168 84.01C240.334 85.7012 234.427 86.5468 227.481 86.5468H202.647V6.83105ZM210.125 79.7931H225.545C230.832 79.7931 235.788 79.1342 240.401 77.8274C245.013 76.5096 249.018 74.5109 252.424 71.8094C255.831 69.1079 258.508 65.6707 260.477 61.5086C262.446 57.3466 263.431 52.4049 263.431 46.7054C263.431 41.0059 262.446 36.0642 260.477 31.9021C258.508 27.7401 255.831 24.3028 252.424 21.6014C249.018 18.8999 245.013 16.8902 240.401 15.5834C235.788 14.2766 230.832 13.6177 225.545 13.6177H210.125V79.815V79.7931Z" fill="#514C4C"/>
<path d="M312.3 6.83105H320.01L353.803 86.5358H345.408L336.68 65.3742H294.16L285.089 86.5358H277.269L312.312 6.83105H312.3ZM315.818 14.9465L297.102 58.6315H333.959L315.818 14.9465Z" fill="#514C4C"/>
<path d="M362.387 47.4412C363.659 49.341 365.296 50.7357 367.276 51.6362C369.267 52.5367 371.314 52.9869 373.415 52.9869C374.588 52.9869 375.794 52.8003 377.021 52.4379C378.249 52.0755 379.367 51.5264 380.373 50.7906C381.38 50.0658 382.198 49.1653 382.84 48.0891C383.481 47.0239 383.791 45.772 383.791 44.3664C383.791 42.3677 383.15 40.8522 381.878 39.798C380.605 38.7547 379.024 37.8762 377.132 37.1734C375.241 36.4705 373.183 35.7897 370.949 35.1308C368.714 34.4719 366.657 33.5604 364.765 32.3964C362.874 31.2323 361.292 29.6619 360.02 27.6852C358.748 25.7085 358.106 23.051 358.106 19.6906C358.106 18.1861 358.438 16.5718 359.102 14.8697C359.765 13.1675 360.805 11.6081 362.232 10.1915C363.659 8.77485 365.484 7.59981 367.708 6.64441C369.942 5.69999 372.619 5.2168 375.76 5.2168C378.603 5.2168 381.324 5.61214 383.924 6.38085C386.523 7.16055 388.802 8.7419 390.76 11.1249L385.019 16.3083C384.134 14.9465 382.884 13.8484 381.269 13.0247C379.654 12.2011 377.807 11.7838 375.749 11.7838C373.692 11.7838 372.154 12.0364 370.86 12.5525C369.555 13.0687 368.515 13.7166 367.73 14.5292C366.944 15.3309 366.391 16.1984 366.071 17.1209C365.75 18.0434 365.595 18.8999 365.595 19.6796C365.595 21.8759 366.236 23.5561 367.509 24.7202C368.781 25.8842 370.362 26.8397 372.254 27.5644C374.145 28.2892 376.203 28.9481 378.437 29.5411C380.672 30.1232 382.729 30.9358 384.621 31.99C386.512 33.0333 388.094 34.4499 389.366 36.229C390.638 38.008 391.28 40.4569 391.28 43.5647C391.28 46.0465 390.804 48.2868 389.842 50.2855C388.891 52.2841 387.596 53.9643 385.981 55.326C384.366 56.6878 382.453 57.731 380.24 58.4668C378.028 59.2025 375.683 59.5649 373.183 59.5649C369.843 59.5649 366.679 58.9829 363.692 57.8079C360.695 56.6438 358.327 54.8428 356.558 52.4049L362.365 47.4412H362.387Z" fill="#514C4C"/>
<path d="M401.744 6.55664H435.361V13.1237H408.802V28.5309H433.513V35.1089H408.802V51.6912H436.677V58.2582H401.733V6.55664H401.744Z" fill="#514C4C"/>
<path d="M446.167 6.55664H456.687L473.235 45.6952H473.533L489.938 6.55664H500.457V58.2582H493.4V15.7483H493.256L475.679 58.2472H470.967L453.39 15.7483H453.246V58.2472H446.189V6.55664H446.167Z" fill="#514C4C"/>
<path d="M520.988 34.3614C521.242 34.3614 521.441 34.4383 521.574 34.592C521.707 34.7457 521.773 34.9434 521.773 35.174V53.6451C521.773 55.7097 521.11 57.346 519.804 58.532C518.488 59.718 516.641 60.311 514.274 60.311C513.123 60.311 512.094 60.1573 511.187 59.8498C510.28 59.5423 509.484 59.092 508.82 58.51C508.156 57.928 507.648 57.2252 507.294 56.4125C506.94 55.5999 506.763 54.6774 506.763 53.6342V11.4317C506.763 9.36717 507.415 7.73091 508.732 6.54489C510.048 5.35887 511.895 4.75488 514.262 4.75488C515.38 4.75488 516.408 4.90863 517.326 5.21611C518.256 5.5236 519.041 5.97385 519.705 6.55587C520.368 7.1379 520.877 7.82974 521.231 8.65337C521.585 9.46601 521.762 10.3885 521.762 11.4317V30.397C521.762 30.6276 521.696 30.8253 521.563 30.979C521.43 31.1328 521.242 31.2097 520.977 31.2097H518.787C518.034 31.2097 517.459 31.001 517.083 30.5727C516.707 30.1444 516.519 29.5954 516.519 28.9255V11.4317C516.519 10.7289 516.331 10.1688 515.977 9.74055C515.612 9.31226 515.037 9.10361 514.262 9.10361C513.488 9.10361 512.935 9.31226 512.559 9.74055C512.183 10.1688 511.995 10.7289 511.995 11.4317V53.6451C511.995 54.348 512.172 54.908 512.537 55.3363C512.902 55.7646 513.477 55.9733 514.251 55.9733C515.026 55.9733 515.579 55.7646 515.955 55.3363C516.331 54.908 516.519 54.348 516.519 53.6451V39.5667C515.811 39.5667 515.247 39.38 514.816 39.0066C514.384 38.6332 514.174 38.0732 514.174 37.3155V35.1411C514.174 34.8775 514.251 34.6908 514.406 34.5591C514.561 34.4273 514.76 34.3614 514.992 34.3614H520.977H520.988Z" fill="#10DF2D"/>
<path d="M536.894 5.38086C537.127 5.38086 537.326 5.44675 537.481 5.57853C537.636 5.71031 537.713 5.897 537.713 6.16056V7.47835C537.713 8.14823 537.525 8.69732 537.171 9.10364C536.806 9.52094 536.319 9.72959 535.722 9.72959H530.91V30.6386H536.109C536.341 30.6386 536.541 30.7045 536.695 30.8363C536.85 30.9681 536.928 31.1548 536.928 31.4183V32.7361C536.928 33.406 536.74 33.9551 536.375 34.3614C536.01 34.7787 535.523 34.9874 534.926 34.9874H530.899V55.3583H535.711C536.308 55.3583 536.795 55.567 537.16 55.9843C537.525 56.4016 537.702 56.9397 537.702 57.6096V58.9273C537.702 59.1909 537.625 59.3776 537.47 59.5094C537.315 59.6412 537.116 59.707 536.883 59.707H526.452C526.187 59.707 525.999 59.6302 525.866 59.4764C525.733 59.3227 525.667 59.125 525.667 58.8944V6.20448C525.667 5.97387 525.733 5.7762 525.866 5.62246C525.999 5.46871 526.187 5.39184 526.452 5.39184H536.883L536.894 5.38086Z" fill="#10DF2D"/>
<path d="M548.111 5.38086C549.228 5.38086 550.246 5.54558 551.164 5.86405C552.071 6.18252 552.856 6.63277 553.509 7.20381C554.161 7.77486 554.659 8.47768 555.013 9.30131C555.367 10.1249 555.544 11.0474 555.544 12.0577V30.4519C555.544 31.594 555.312 32.5165 554.858 33.2413C554.405 33.9661 553.774 34.5481 552.967 34.9874C553.774 35.4266 554.405 35.9977 554.858 36.7115C555.312 37.4253 555.544 38.3368 555.544 39.4459V58.8834C555.544 59.114 555.478 59.3117 555.345 59.4654C555.212 59.6192 555.024 59.6961 554.759 59.6961H552.569C551.816 59.6961 551.241 59.4874 550.865 59.0591C550.489 58.6308 550.301 58.0817 550.301 57.4119V39.4459C550.301 38.7431 550.124 38.183 549.77 37.7547C549.416 37.3265 548.841 37.1178 548.033 37.1178H545.766V57.4119C545.766 58.0817 545.578 58.6308 545.202 59.0591C544.825 59.4874 544.261 59.6961 543.498 59.6961H541.308C541.042 59.6961 540.854 59.6192 540.722 59.4654C540.589 59.3117 540.522 59.114 540.522 58.8834V6.20448C540.522 5.97387 540.589 5.7762 540.722 5.62246C540.854 5.46871 541.042 5.39184 541.308 5.39184H548.111V5.38086ZM545.766 9.72959V32.7691H548.033C548.819 32.7691 549.383 32.5494 549.748 32.1102C550.113 31.6709 550.29 31.1108 550.29 30.441V12.0577C550.29 11.3878 550.102 10.8278 549.726 10.3885C549.35 9.94922 548.785 9.72959 548.022 9.72959H545.755H545.766Z" fill="#10DF2D"/>
<path d="M573.74 13.2984C573.917 11.5194 574.139 10.1027 574.404 9.04849C574.659 8.00523 574.946 7.20357 575.267 6.66547C575.577 6.11639 575.92 5.77596 576.285 5.62222C576.65 5.46847 577.015 5.3916 577.38 5.3916H580.344C580.599 5.3916 580.798 5.46847 580.93 5.62222C581.063 5.77596 581.13 5.97363 581.13 6.20424V58.8832C581.13 59.1138 581.063 59.3115 580.93 59.4652C580.798 59.6189 580.61 59.6958 580.344 59.6958H578.154C577.402 59.6958 576.827 59.4872 576.439 59.0589C576.052 58.6306 575.864 58.0815 575.897 57.4116L577.07 19.3932L573.044 57.763C572.988 58.3121 572.69 58.7624 572.148 59.1357C571.606 59.5091 570.997 59.6958 570.345 59.6958H570.267C569.614 59.6958 569.017 59.5091 568.475 59.1357C567.933 58.7624 567.623 58.3011 567.579 57.763L563.52 19.3163L564.692 57.4116C564.714 58.0815 564.537 58.6306 564.15 59.0589C563.763 59.4872 563.188 59.6958 562.436 59.6958H560.245C559.98 59.6958 559.792 59.6189 559.659 59.4652C559.526 59.3115 559.46 59.1138 559.46 58.8832V6.20424C559.46 5.97363 559.526 5.77596 559.659 5.62222C559.792 5.46847 559.98 5.3916 560.245 5.3916H562.9C563.265 5.3916 563.652 5.45749 564.051 5.60025C564.449 5.74301 564.836 6.08345 565.201 6.63253C565.566 7.17063 565.898 7.97229 566.196 9.01554C566.495 10.0588 566.738 11.4974 566.915 13.2984L570.311 46.1225L573.752 13.2984H573.74Z" fill="#10DF2D"/>
<path d="M597.036 5.38086C597.268 5.38086 597.467 5.44675 597.622 5.57853C597.777 5.71031 597.855 5.897 597.855 6.16056V7.47835C597.855 8.14823 597.667 8.69732 597.313 9.10364C596.948 9.52094 596.461 9.72959 595.864 9.72959H591.052V30.6386H596.251C596.483 30.6386 596.682 30.7045 596.837 30.8363C596.992 30.9681 597.069 31.1548 597.069 31.4183V32.7361C597.069 33.406 596.881 33.9551 596.516 34.3614C596.151 34.7787 595.664 34.9874 595.067 34.9874H591.041V55.3583H595.852C596.45 55.3583 596.936 55.567 597.301 55.9843C597.667 56.4016 597.844 56.9397 597.844 57.6096V58.9273C597.844 59.1909 597.766 59.3776 597.611 59.5094C597.456 59.6412 597.257 59.707 597.025 59.707H586.594C586.328 59.707 586.14 59.6302 586.008 59.4764C585.875 59.3227 585.809 59.125 585.809 58.8944V6.20448C585.809 5.97387 585.875 5.7762 586.008 5.62246C586.14 5.46871 586.328 5.39184 586.594 5.39184H597.025L597.036 5.38086Z" fill="#10DF2D"/>
<path d="M612.71 24.126C611.958 24.126 611.383 23.9174 611.007 23.4891C610.631 23.0608 610.442 22.5117 610.442 21.8418V11.4422C610.442 10.7394 610.254 10.1793 609.878 9.75105C609.502 9.32277 608.938 9.11412 608.175 9.11412C607.412 9.11412 606.814 9.32277 606.46 9.75105C606.095 10.1793 605.918 10.7394 605.918 11.4422C605.918 13.7923 606.051 15.9118 606.328 17.8006C606.604 19.6894 606.969 21.4355 607.445 23.0388C607.909 24.6422 608.44 26.1576 609.027 27.5743C609.613 29.0019 610.21 30.4185 610.808 31.8242C611.405 33.2298 612.002 34.6794 612.588 36.1509C613.175 37.6225 613.706 39.2258 614.17 40.9609C614.635 42.696 615.011 44.5958 615.287 46.6604C615.564 48.7249 615.697 51.053 615.697 53.6447C615.697 54.677 615.52 55.5994 615.166 56.423C614.812 57.2357 614.303 57.9385 613.639 58.5205C612.976 59.1026 612.179 59.5528 611.261 59.8603C610.332 60.1678 609.314 60.3215 608.197 60.3215C605.83 60.3215 603.983 59.7285 602.666 58.5425C601.35 57.3565 600.697 55.7202 600.697 53.6557V41.7845C600.697 41.5539 600.764 41.3562 600.896 41.2025C601.029 41.0487 601.217 40.9719 601.483 40.9719H603.673C604.425 40.9719 605 41.1805 605.376 41.6088C605.752 42.0371 605.94 42.5862 605.94 43.256V53.6557C605.94 54.3585 606.128 54.9186 606.505 55.3468C606.881 55.7751 607.445 55.9838 608.208 55.9838C608.971 55.9838 609.558 55.7751 609.923 55.3468C610.288 54.9186 610.465 54.3585 610.465 53.6557C610.465 50.3392 610.221 47.451 609.746 44.9692C609.259 42.4873 608.662 40.2361 607.932 38.2045C607.202 36.1729 606.416 34.2511 605.586 32.4281C604.757 30.6052 603.971 28.6834 603.241 26.6628C602.511 24.6422 601.903 22.4239 601.427 19.9859C600.941 17.559 600.708 14.7148 600.708 11.4532C600.708 10.4209 600.885 9.49847 601.239 8.67485C601.593 7.86221 602.102 7.15938 602.766 6.57736C603.429 5.99533 604.215 5.54508 605.133 5.2376C606.051 4.93011 607.069 4.77637 608.219 4.77637C610.586 4.77637 612.434 5.36938 613.75 6.56638C615.066 7.75239 615.719 9.38866 615.719 11.4532V23.3244C615.719 23.555 615.653 23.7526 615.52 23.9064C615.387 24.0601 615.199 24.137 614.933 24.137H612.743L612.71 24.126Z" fill="#10DF2D"/>
<path d="M357.753 130.001C356.536 129.375 355.596 128.485 354.943 127.321C354.291 126.157 353.97 124.807 353.97 123.247C353.97 121.358 354.379 119.678 355.209 118.218C356.038 116.746 357.2 115.615 358.693 114.813C360.186 114.012 361.912 113.616 363.859 113.616C365.695 113.616 367.277 114.044 368.604 114.89C369.932 115.747 370.861 116.933 371.392 118.481L365.629 120.82C365.275 119.755 364.6 119.217 363.615 119.217C362.852 119.217 362.233 119.546 361.757 120.205C361.281 120.864 361.049 121.721 361.049 122.797C361.049 123.62 361.215 124.268 361.558 124.752C361.901 125.235 362.377 125.476 362.996 125.476C364.025 125.476 364.788 124.872 365.264 123.664L370.628 126.256C369.865 127.75 368.737 128.914 367.233 129.737C365.728 130.561 364.014 130.967 362.067 130.967C360.408 130.967 358.981 130.66 357.753 130.023V130.001Z" fill="#514C4C"/>
<path d="M386.767 114.56C388.083 115.197 389.09 116.098 389.787 117.273C390.495 118.448 390.838 119.821 390.838 121.402C390.838 123.291 390.395 124.96 389.521 126.41C388.647 127.859 387.408 128.979 385.827 129.77C384.245 130.561 382.42 130.956 380.351 130.956C378.548 130.956 377 130.638 375.683 129.99C374.367 129.342 373.36 128.43 372.641 127.266C371.933 126.091 371.568 124.718 371.568 123.137C371.568 121.248 372.011 119.59 372.885 118.151C373.759 116.713 374.997 115.604 376.59 114.813C378.183 114.022 380.008 113.627 382.077 113.627C383.88 113.627 385.428 113.945 386.745 114.582L386.767 114.56ZM379.466 120.117C378.924 120.809 378.659 121.687 378.659 122.786C378.659 123.653 378.858 124.334 379.245 124.85C379.632 125.366 380.185 125.619 380.893 125.619C381.745 125.619 382.431 125.278 382.973 124.587C383.515 123.895 383.78 123.016 383.78 121.918C383.78 121.051 383.581 120.37 383.194 119.854C382.796 119.337 382.254 119.085 381.546 119.085C380.694 119.085 380.008 119.425 379.466 120.117Z" fill="#514C4C"/>
<path d="M420.494 114.308C421.324 114.78 421.965 115.439 422.43 116.274C422.895 117.119 423.127 118.075 423.127 119.14C423.127 119.59 423.072 120.106 422.972 120.677L420.959 130.682H413.979L415.782 121.721C415.826 121.435 415.848 121.215 415.848 121.073C415.848 120.535 415.705 120.128 415.428 119.821C415.152 119.524 414.764 119.371 414.267 119.371C413.647 119.371 413.072 119.623 412.541 120.128C412.01 120.633 411.634 121.27 411.413 122.05L409.676 130.671H402.696L404.499 121.71C404.543 121.424 404.566 121.205 404.566 121.062C404.566 120.524 404.422 120.117 404.145 119.81C403.869 119.513 403.482 119.36 402.984 119.36C402.32 119.36 401.712 119.656 401.137 120.238C400.572 120.82 400.196 121.556 400.03 122.434L398.382 130.66H391.402L394.754 113.814H401.734L401.336 115.911C402.718 114.352 404.389 113.572 406.324 113.572C407.585 113.572 408.681 113.902 409.599 114.561C410.517 115.22 411.169 116.087 411.534 117.174C413.315 114.769 415.34 113.572 417.618 113.572C418.713 113.572 419.676 113.814 420.505 114.286L420.494 114.308Z" fill="#514C4C"/>
<path d="M449.187 110.3C450.78 111.091 451.975 112.222 452.771 113.682C453.568 115.154 453.911 116.856 453.811 118.811C453.689 121.172 453.026 123.247 451.809 125.048C450.603 126.849 448.966 128.233 446.92 129.221C444.873 130.21 442.55 130.704 439.94 130.704H429.984L434.298 109.125H443.513C445.703 109.125 447.594 109.52 449.187 110.311V110.3ZM445.349 115.802C444.652 115.033 443.701 114.649 442.484 114.649H440.371L438.292 125.147H441.234C442.207 125.147 443.081 124.884 443.867 124.368C444.652 123.84 445.271 123.105 445.714 122.149C446.156 121.194 446.378 120.107 446.378 118.899C446.378 117.603 446.035 116.571 445.338 115.802H445.349Z" fill="#514C4C"/>
<path d="M469.12 113.54L468.313 119.756C467.903 119.69 467.516 119.668 467.162 119.668C465.901 119.668 464.817 119.975 463.921 120.579C463.025 121.183 462.483 121.974 462.295 122.94H462.262L460.713 130.704H453.733L457.118 113.859H464.098L463.667 116.044C465.16 114.386 466.974 113.551 469.12 113.551V113.54Z" fill="#514C4C"/>
<path d="M494.916 120.766C495.502 121.578 495.801 122.534 495.801 123.643C495.801 125.038 495.369 126.268 494.518 127.333C493.655 128.398 492.46 129.222 490.934 129.815C489.407 130.397 487.671 130.693 485.724 130.693H474.187L478.523 109.114H489.529C491.885 109.114 493.743 109.543 495.115 110.388C496.487 111.234 497.161 112.387 497.161 113.825C497.161 115.033 496.73 116.132 495.856 117.12C494.982 118.108 493.865 118.789 492.471 119.184C493.5 119.426 494.319 119.964 494.905 120.766H494.916ZM487.682 124.906C488.168 124.532 488.412 124.06 488.412 123.489C488.412 123.083 488.246 122.753 487.903 122.523C487.56 122.292 487.095 122.171 486.487 122.171H483.08L482.427 125.466H485.834C486.575 125.466 487.195 125.279 487.682 124.917V124.906ZM488.876 116.9C489.252 116.549 489.429 116.11 489.429 115.571C489.429 115.187 489.308 114.88 489.075 114.66C488.843 114.44 488.5 114.342 488.069 114.342H484.629L484.009 117.416H487.449C488.025 117.416 488.5 117.241 488.876 116.889V116.9Z" fill="#514C4C"/>
<path d="M500.259 130.012C499.308 129.397 498.567 128.53 498.036 127.421C497.505 126.311 497.239 125.049 497.239 123.632C497.239 121.787 497.626 120.096 498.401 118.569C499.175 117.043 500.226 115.824 501.564 114.934C502.903 114.045 504.374 113.595 505.978 113.595C507.051 113.595 508.002 113.803 508.821 114.221C509.639 114.638 510.281 115.253 510.756 116.055L511.188 113.836H518.168L514.783 130.682H507.803L508.146 129.024C506.741 130.298 505.193 130.935 503.489 130.935C502.272 130.935 501.188 130.627 500.237 130.012H500.259ZM507.936 125.224C508.423 124.862 508.81 124.379 509.086 123.775C509.363 123.171 509.507 122.523 509.507 121.82C509.507 121.04 509.307 120.414 508.92 119.953C508.522 119.492 508.002 119.261 507.338 119.261C506.487 119.261 505.768 119.646 505.181 120.414C504.595 121.183 504.297 122.106 504.297 123.171C504.297 123.994 504.474 124.631 504.839 125.082C505.204 125.532 505.712 125.762 506.376 125.762C506.929 125.762 507.46 125.587 507.947 125.224H507.936Z" fill="#514C4C"/>
<path d="M522.492 130.001C521.275 129.375 520.335 128.485 519.682 127.321C519.03 126.157 518.709 124.807 518.709 123.247C518.709 121.358 519.118 119.678 519.948 118.218C520.777 116.746 521.939 115.615 523.432 114.813C524.926 114.012 526.651 113.616 528.598 113.616C530.434 113.616 532.016 114.044 533.343 114.89C534.671 115.747 535.6 116.933 536.131 118.481L530.368 120.82C530.014 119.755 529.339 119.217 528.355 119.217C527.591 119.217 526.972 119.546 526.496 120.205C526.021 120.864 525.788 121.721 525.788 122.797C525.788 123.62 525.954 124.268 526.297 124.752C526.64 125.235 527.116 125.476 527.735 125.476C528.764 125.476 529.527 124.872 530.003 123.664L535.368 126.256C534.604 127.75 533.476 128.914 531.972 129.737C530.467 130.561 528.753 130.967 526.806 130.967C525.147 130.967 523.72 130.66 522.492 130.023V130.001Z" fill="#514C4C"/>
<path d="M545.202 124.5C545.158 124.741 545.136 124.895 545.136 124.961C545.136 125.455 545.401 125.675 545.943 125.642C546.397 125.642 547.06 125.466 547.923 125.115L548.543 130.067C547.945 130.375 547.193 130.605 546.308 130.759C545.423 130.913 544.538 130.99 543.676 130.99C541.939 130.99 540.567 130.551 539.55 129.683C538.532 128.815 538.034 127.662 538.034 126.246C538.034 125.796 538.079 125.378 538.156 124.983L539.34 119.13H537.017L537.89 114.759H540.213L541.176 110.048H548.122L547.16 114.759H551.131L550.257 119.13H546.286L545.202 124.489V124.5Z" fill="#514C4C"/>
<path d="M565.301 114.605C566.628 115.252 567.646 116.164 568.354 117.35C569.073 118.536 569.427 119.887 569.427 121.424C569.427 122.182 569.338 122.984 569.15 123.829H557.923C558.155 125.18 559.04 125.861 560.588 125.861C561.772 125.861 562.9 125.443 563.995 124.598L567.59 128.112C565.588 129.979 563.166 130.912 560.334 130.912C558.454 130.912 556.816 130.605 555.423 129.99C554.029 129.375 552.956 128.496 552.193 127.343C551.43 126.19 551.064 124.861 551.064 123.346C551.064 121.501 551.474 119.832 552.292 118.36C553.111 116.878 554.25 115.725 555.699 114.901C557.159 114.066 558.808 113.649 560.644 113.649C562.48 113.649 563.973 113.968 565.301 114.616V114.605ZM561.849 106.676L567.093 108.521L562.071 112.496L557.668 112.189L561.849 106.676ZM562.812 119.92C562.812 119.469 562.657 119.085 562.347 118.778C562.038 118.47 561.628 118.316 561.142 118.316C560.6 118.316 560.091 118.525 559.604 118.942C559.117 119.36 558.719 119.92 558.409 120.622H562.657C562.757 120.359 562.812 120.117 562.812 119.909V119.92Z" fill="#514C4C"/>
<path d="M585.333 113.54L584.525 119.756C584.116 119.69 583.729 119.668 583.375 119.668C582.114 119.668 581.03 119.975 580.134 120.579C579.238 121.183 578.696 121.974 578.508 122.94H578.475L576.926 130.704H569.946L573.331 113.859H580.311L579.88 116.044C581.373 114.386 583.187 113.551 585.333 113.551V113.54Z" fill="#514C4C"/>
<path d="M594.724 113.847L591.339 130.693H584.359L587.744 113.847H594.724ZM595.023 106.325C595.554 106.852 595.819 107.544 595.819 108.4C595.819 109.18 595.631 109.894 595.244 110.531C594.857 111.168 594.337 111.662 593.673 112.024C593.009 112.386 592.29 112.562 591.505 112.562C590.62 112.562 589.912 112.299 589.381 111.772C588.85 111.244 588.585 110.553 588.585 109.696C588.585 108.916 588.773 108.202 589.16 107.577C589.547 106.951 590.067 106.445 590.731 106.083C591.394 105.721 592.113 105.545 592.899 105.545C593.784 105.545 594.492 105.808 595.023 106.336V106.325Z" fill="#514C4C"/>
<path d="M598.198 130.012C597.246 129.397 596.505 128.53 595.974 127.421C595.443 126.311 595.178 125.049 595.178 123.632C595.178 121.787 595.565 120.096 596.339 118.569C597.113 117.043 598.164 115.824 599.503 114.934C600.841 114.045 602.312 113.595 603.916 113.595C604.989 113.595 605.941 113.803 606.759 114.221C607.578 114.638 608.219 115.253 608.695 116.055L609.126 113.836H616.106L612.721 130.682H605.742L606.084 129.024C604.68 130.298 603.131 130.935 601.428 130.935C600.211 130.935 599.127 130.627 598.175 130.012H598.198ZM605.874 125.224C606.361 124.862 606.748 124.379 607.025 123.775C607.301 123.171 607.445 122.523 607.445 121.82C607.445 121.04 607.246 120.414 606.859 119.953C606.461 119.492 605.941 119.261 605.277 119.261C604.425 119.261 603.706 119.646 603.12 120.414C602.534 121.183 602.235 122.106 602.235 123.171C602.235 123.994 602.412 124.631 602.777 125.082C603.142 125.532 603.651 125.762 604.315 125.762C604.868 125.762 605.399 125.587 605.885 125.224H605.874Z" fill="#514C4C"/>
<path d="M6.03926 7.10513C5.37557 6.45721 4.32472 6.46819 3.67209 7.12709C3.01946 7.78599 3.03052 8.82925 3.69421 9.47716L77.9836 81.967C78.3044 82.2855 78.7358 82.4392 79.1561 82.4392C79.5765 82.4392 80.0189 82.2745 80.3508 81.945C81.0034 81.2861 80.9924 80.2429 80.3287 79.595L6.03926 7.10513Z" fill="#514C4C"/>
<path d="M79.554 54.1951C78.9788 53.9755 78.3704 53.8657 77.762 53.8657C77.0651 53.8657 76.3904 54.0084 75.7378 54.294C75.0409 54.6015 74.4214 55.0627 73.9347 55.6447L64.5545 52.0537C65.2182 49.9233 65.5832 47.705 65.6164 45.4537C65.6717 42.5436 65.185 39.6884 64.1674 36.9649L73.3595 32.9127C74.2997 33.923 75.6271 34.5051 77.032 34.5051C77.7288 34.5051 78.4036 34.3623 79.0452 34.0768C80.2619 33.5387 81.1911 32.5613 81.6778 31.3314C82.1534 30.0904 82.1203 28.7507 81.5893 27.5427C80.7929 25.7527 79.0009 24.5996 77.0209 24.5996C76.324 24.5996 75.6493 24.7424 75.0077 25.0279C73.0609 25.8845 71.8773 27.9051 72.0653 29.9916L62.8732 34.0438C62.4639 33.2641 61.9993 32.5064 61.5126 31.7926C61.2139 31.3533 60.7162 31.0898 60.1741 31.0898C59.8534 31.0898 59.5436 31.1886 59.2671 31.3643C58.9131 31.6059 58.6698 31.9683 58.5923 32.3856C58.5149 32.8029 58.5923 33.2312 58.8357 33.5826C59.5215 34.5819 60.1188 35.6581 60.6166 36.7783C63.028 42.1702 62.9727 48.3419 60.4617 53.69C60.4617 53.701 60.4507 53.7229 60.4396 53.7339C60.4396 53.701 60.4396 53.7229 60.3401 53.8876C59.8976 54.6564 60.1741 55.6337 60.9485 56.073C61.1918 56.2048 61.4683 56.2816 61.7449 56.2816C61.9772 56.2816 62.1873 56.2377 62.3975 56.1389C62.7183 55.9961 62.9727 55.7655 63.1386 55.469C63.3156 55.1615 63.2935 55.2384 63.2714 55.2713C63.2714 55.2494 63.3156 55.1835 63.382 55.0407L72.7622 58.6317C72.729 59.3785 72.8839 60.1362 73.1936 60.828C73.7356 62.036 74.7201 62.9695 75.959 63.4417C76.5342 63.6613 77.1426 63.7711 77.751 63.7711C78.4478 63.7711 79.1226 63.6284 79.7752 63.3428C80.992 62.8047 81.9322 61.8274 82.4079 60.5974C82.8835 59.3675 82.8503 58.0167 82.3083 56.8088C81.7663 55.6008 80.7818 54.6673 79.5429 54.1951H79.554ZM76.3019 27.949C76.5342 27.8502 76.7665 27.7953 77.0098 27.7953C77.7067 27.7953 78.3483 28.2016 78.6248 28.8385C78.8129 29.2668 78.8239 29.739 78.658 30.1783C78.4921 30.6175 78.1602 30.958 77.7288 31.1557C77.4965 31.2545 77.2642 31.3094 77.0209 31.3094C76.324 31.3094 75.6824 30.9031 75.4059 30.2661C75.0077 29.3876 75.4059 28.3444 76.3019 27.949ZM79.3991 59.4444C79.2332 59.8836 78.9014 60.2241 78.47 60.4217C78.2377 60.5206 78.0054 60.5755 77.751 60.5755C77.5297 60.5755 77.3196 60.5315 77.1204 60.4547C76.678 60.2899 76.3351 59.9605 76.136 59.5322C75.9479 59.1039 75.9369 58.6317 76.1028 58.1925C76.2687 57.7532 76.6006 57.4128 77.032 57.2151C77.2642 57.1162 77.4965 57.0613 77.751 57.0613C77.9722 57.0613 78.1824 57.1053 78.3815 57.1821C78.8239 57.3469 79.1668 57.6763 79.3659 58.1046C79.554 58.5329 79.565 59.0051 79.3991 59.4444Z" fill="#10DF2D"/>
<path d="M68.8473 43.1687C68.4159 43.1687 68.0177 43.3444 67.7079 43.6519C67.4093 43.9594 67.2434 44.3657 67.2544 44.783C67.2544 45.6505 67.9845 46.3643 68.8694 46.3643L71.7344 46.3314C71.9556 46.3314 72.1658 46.2875 72.3649 46.1996C72.9511 45.9361 73.3272 45.354 73.3272 44.7171C73.3272 43.8496 72.5972 43.1357 71.7122 43.1357L68.8473 43.1687Z" fill="#10DF2D"/>
<path d="M14.7666 46.9691C14.9879 46.9691 15.198 46.9252 15.3971 46.8373C15.9834 46.5738 16.3595 45.9917 16.3595 45.3548C16.3595 44.4872 15.6294 43.7734 14.7445 43.7734L13.1185 43.7954C12.6871 43.7954 12.2888 43.9711 11.9902 44.2786C11.6915 44.5861 11.5256 44.9924 11.5367 45.4097C11.5367 46.2772 12.2667 46.9911 13.1516 46.9911L14.7777 46.9691H14.7666Z" fill="#10DF2D"/>
<path d="M41.5024 19.8333H41.5246C41.7458 19.8333 41.956 19.7894 42.1551 19.7016C42.7413 19.438 43.1174 18.856 43.1174 18.219L43.0289 10.1585C43.0289 9.29096 42.2989 8.57715 41.4139 8.57715H41.3918C40.5069 8.57715 39.7879 9.31292 39.799 10.1914L39.8874 18.252C39.8874 19.1195 40.6175 19.8333 41.5024 19.8333Z" fill="#10DF2D"/>
<path d="M42.1113 70.7002H42.0892C41.6578 70.7002 41.2595 70.8759 40.9609 71.1834C40.6622 71.4909 40.4963 71.8972 40.5074 72.3145L40.5959 79.9797C40.5959 80.8472 41.3259 81.561 42.2108 81.561H42.233C42.4542 81.561 42.6644 81.5171 42.8635 81.4293C43.4497 81.1657 43.8258 80.5837 43.8258 79.9467L43.7373 72.2816C43.7373 71.414 43.0073 70.7002 42.1223 70.7002H42.1113Z" fill="#10DF2D"/>
<path d="M26.182 15.0563C26.3258 15.0563 26.4696 15.0563 26.6134 15.0343L30.6951 24.1601C30.0978 24.4786 31.0602 23.9624 30.496 24.3138C30.131 24.5444 29.8877 24.8959 29.7881 25.3132C29.6996 25.7305 29.777 26.1587 30.0093 26.5211C30.308 26.9824 30.8168 27.2569 31.3699 27.2569C31.5911 27.2569 31.8124 27.213 32.0225 27.1251C32.1 27.0922 32.1663 27.0483 32.2438 27.0043C33.1176 26.4443 32.4982 26.7957 33.4605 26.3784C36.1042 25.2143 38.9139 24.6213 41.801 24.6213C45.5619 24.6213 49.2454 25.6426 52.4532 27.5644C52.7076 27.7181 52.9952 27.795 53.2828 27.795C53.5151 27.795 53.7253 27.7511 53.9355 27.6522C54.2341 27.5205 54.4886 27.3008 54.6655 27.0153C54.8868 26.6529 54.9531 26.2246 54.8536 25.8073C54.754 25.39 54.4886 25.0386 54.1235 24.819C53.3935 24.3797 52.6302 23.9844 51.8559 23.622L57.1876 9.88396C57.2539 9.88396 57.3203 9.88396 57.3867 9.88396C58.0836 9.88396 58.7583 9.74119 59.4109 9.45567C60.6277 8.91757 61.568 7.9402 62.0436 6.71026C63.0281 4.16252 61.7449 1.29631 59.1787 0.307965C58.6035 0.088332 57.9951 -0.0214844 57.3867 -0.0214844C56.6898 -0.0214844 56.015 0.121277 55.3624 0.4068C54.1456 0.9449 53.2054 1.92227 52.7298 3.15221C51.9665 5.1289 52.5638 7.38014 54.1788 8.73088L48.8472 22.4689C47.0994 21.9308 45.3075 21.5904 43.4934 21.4696C42.9292 21.4257 42.3651 21.4147 41.801 21.4147C40.4625 21.4147 39.113 21.5245 37.7967 21.7551C36.3918 21.9967 34.9981 22.3591 33.6486 22.8533L29.5669 13.7275C31.1155 12.2999 31.6022 10.0157 30.7394 8.08297C29.943 6.29296 28.151 5.13989 26.171 5.13989C25.4741 5.13989 24.7993 5.28265 24.1578 5.56817C21.6468 6.67732 20.5075 9.60942 21.6247 12.1022C22.4211 13.8923 24.2131 15.0453 26.1931 15.0453L26.182 15.0563ZM55.7275 4.32724C55.8934 3.88798 56.2252 3.54755 56.6566 3.34988C56.8889 3.25104 57.1212 3.19614 57.3756 3.19614C57.5969 3.19614 57.807 3.24006 58.0061 3.31693C58.4486 3.48166 58.7915 3.81111 58.9795 4.23939C59.1676 4.66768 59.1787 5.13989 59.0127 5.57915C58.8468 6.01842 58.515 6.35885 58.0836 6.55652C57.8513 6.65535 57.619 6.71026 57.3646 6.71026C57.1433 6.71026 56.9332 6.66633 56.7341 6.58946C55.827 6.23805 55.3735 5.22774 55.7164 4.32724H55.7275ZM24.5339 9.47763C24.6998 9.03837 25.0316 8.69794 25.463 8.50027C25.6953 8.40143 25.9276 8.34653 26.171 8.34653C26.8678 8.34653 27.5094 8.75285 27.786 9.38978C27.974 9.81807 27.9851 10.2903 27.8191 10.7295C27.6532 11.1688 27.3214 11.5092 26.89 11.7069C26.6577 11.8057 26.4254 11.8607 26.182 11.8607C25.4852 11.8607 24.8436 11.4543 24.567 10.8174C24.379 10.3891 24.3679 9.9169 24.5339 9.47763Z" fill="#10DF2D"/>
<path d="M57.431 75.0817C57.2872 75.0817 57.1434 75.0817 56.9996 75.1037L52.9179 65.9779C53.106 65.8791 52.8405 66.0219 53.0175 65.923C53.3936 65.7144 53.659 65.374 53.7807 64.9566C53.9024 64.5503 53.8471 64.1111 53.6369 63.7377C53.3493 63.2325 52.8184 62.9141 52.2321 62.9141C51.9556 62.9141 51.6901 62.98 51.4467 63.1227C50.8936 63.4302 50.7609 63.4851 50.1636 63.7487C47.5199 64.9127 44.7102 65.5057 41.8121 65.5057C38.8476 65.5057 35.9716 64.8908 33.2726 63.6718C33.0624 63.573 32.8412 63.529 32.6089 63.529C31.9784 63.529 31.4032 63.8914 31.1377 64.4625C30.7948 65.2092 31.0824 66.0768 31.7682 66.4941L28.1511 75.8175C27.3878 75.7845 26.6357 75.9273 25.9388 76.2458C24.722 76.7839 23.7818 77.7612 23.3061 78.9912C22.8305 80.2211 22.8637 81.5719 23.4057 82.7799C23.9477 83.9878 24.9322 84.9213 26.1711 85.3935C26.7463 85.6131 27.3547 85.7229 27.963 85.7229C28.6599 85.7229 29.3347 85.5802 29.9873 85.2946C31.2041 84.7565 32.1443 83.7792 32.62 82.5492C33.3832 80.5725 32.7859 78.3213 31.1709 76.9706L34.788 67.6581C36.9671 68.328 39.2348 68.6904 41.5356 68.7124C44.4337 68.7453 47.2765 68.2621 49.9866 67.2738L54.0683 76.3995C52.5197 77.8271 52.033 80.1113 52.8958 82.0441C53.6922 83.8341 55.4842 84.9872 57.4642 84.9872C58.1611 84.9872 58.8358 84.8444 59.4774 84.5589C60.6942 84.0208 61.6234 83.0434 62.1101 81.8135C62.5857 80.5725 62.5525 79.2328 62.0216 78.0248C61.2251 76.2348 59.4332 75.0817 57.4531 75.0817H57.431ZM29.6002 81.3962C29.4342 81.8354 29.1024 82.1759 28.671 82.3735C28.4387 82.4724 28.2064 82.5273 27.952 82.5273C27.7307 82.5273 27.5206 82.4834 27.3215 82.4065C26.879 82.2418 26.5361 81.9123 26.337 81.484C26.1489 81.0557 26.1379 80.5835 26.3038 80.1443C26.4697 79.705 26.8016 79.3646 27.233 79.1669C27.4653 79.0681 27.6976 79.0131 27.952 79.0131C28.1732 79.0131 28.3834 79.0571 28.5825 79.1339C29.4895 79.4854 29.9431 80.4957 29.6002 81.3962ZM58.15 81.6268C57.9177 81.7256 57.6854 81.7805 57.4421 81.7805C56.7452 81.7805 56.1036 81.3742 55.8271 80.7373C55.639 80.309 55.628 79.8368 55.7939 79.3975C55.9598 78.9582 56.2917 78.6178 56.7231 78.4201C56.9554 78.3213 57.1877 78.2664 57.431 78.2664C58.1279 78.2664 58.7695 78.6727 59.046 79.3097C59.4442 80.1882 59.046 81.2314 58.15 81.6268Z" fill="#10DF2D"/>
<path d="M20.7736 56.0833C21.0722 56.4566 21.5258 56.6763 22.0235 56.6763C22.2448 56.6763 22.466 56.6324 22.6762 56.5335C22.6983 56.5225 22.7315 56.5116 22.7536 56.5006C23.1407 56.3029 23.4173 55.9734 23.55 55.5671C23.6828 55.1608 23.6496 54.7325 23.4505 54.3482C23.2845 54.0297 23.1297 53.7003 22.9859 53.3708V53.3488C20.7514 48.3742 20.6076 42.8284 22.5766 37.7439C22.5766 37.7439 22.5766 37.7329 22.5766 37.722C22.5766 37.722 22.5766 37.711 22.5766 37.7C23.0523 36.492 22.7536 36.9972 23.4505 35.899C23.6828 35.5366 23.7491 35.1083 23.6496 34.691C23.55 34.2737 23.2956 33.9223 22.9306 33.6917C22.6762 33.527 22.3775 33.4501 22.0788 33.4501C21.5147 33.4501 21.0059 33.7356 20.7072 34.1969C20.1873 35.0205 20.5966 34.2188 20.1762 35.0973L15.2539 33.2195C15.3313 31.122 14.0481 29.1673 12.0681 28.4095C11.4929 28.1899 10.8845 28.0801 10.2762 28.0801C9.57928 28.0801 8.90452 28.2228 8.25189 28.5084C7.03512 29.0465 6.09489 30.0238 5.61924 31.2538C4.63476 33.8015 5.9179 36.6677 8.48418 37.6561C9.05938 37.8757 9.66777 37.9855 10.2762 37.9855C10.973 37.9855 11.6478 37.8428 12.3004 37.5572C12.9973 37.2498 13.6167 36.7885 14.1035 36.2065L19.0258 38.0844C18.2626 40.5333 17.9086 43.07 17.9639 45.6287C18.0303 48.2094 18.506 50.7462 19.4019 53.1731L8.60586 57.9282C7.66563 56.9179 6.33824 56.3358 4.93342 56.3358C4.23655 56.3358 3.56179 56.4786 2.92022 56.7641C1.70345 57.3022 0.763218 58.2796 0.287571 59.5095C-0.188075 60.7395 -0.154891 62.0902 0.387125 63.2982C1.18356 65.0882 2.97553 66.2413 4.95555 66.2413C5.65243 66.2413 6.32718 66.0985 6.96875 65.813C8.91558 64.9564 10.0992 62.9358 9.91112 60.8493L20.7293 56.0833H20.7736ZM11.9575 33.6588C11.7916 34.098 11.4597 34.4385 11.0283 34.6361C10.796 34.735 10.5638 34.7899 10.3093 34.7899C10.0881 34.7899 9.87794 34.7459 9.67883 34.6691C8.77178 34.3177 8.31826 33.3073 8.66117 32.4068C8.82709 31.9676 9.15894 31.6272 9.59034 31.4295C9.82263 31.3306 10.0549 31.2757 10.3093 31.2757C10.5306 31.2757 10.7407 31.3197 10.9398 31.3965C11.8469 31.7479 12.3004 32.7583 11.9575 33.6588ZM6.6369 61.9255C6.47098 62.3648 6.13913 62.7052 5.70773 62.9029C5.47544 63.0017 5.24315 63.0566 4.99979 63.0566C4.30292 63.0566 3.66135 62.6503 3.38481 62.0134C3.19676 61.5851 3.1857 61.1129 3.35162 60.6736C3.51755 60.2343 3.84939 59.8939 4.28079 59.6962C4.51309 59.5974 4.74538 59.5425 4.98873 59.5425C5.68561 59.5425 6.32718 59.9488 6.60372 60.5857C6.79177 61.014 6.80283 61.4862 6.6369 61.9255Z" fill="#10DF2D"/>
<path d="M60.1855 23.4242L52.4203 32.0008C52.1327 32.3193 51.9889 32.7256 52.011 33.1539C52.0331 33.5822 52.2212 33.9775 52.542 34.263C52.8406 34.5266 53.2167 34.6694 53.6149 34.6694C53.8472 34.6694 54.0574 34.6254 54.2676 34.5266C54.4777 34.4388 54.6547 34.307 54.8096 34.1313L62.4974 25.6425C62.8956 25.8291 63.3159 25.9609 63.7584 26.0378C64.046 26.0927 64.3446 26.1147 64.6322 26.1147C65.3291 26.1147 66.0149 25.9719 66.6565 25.6864C67.2206 25.4338 67.7295 25.0934 68.1609 24.6541C70.0966 22.7213 70.0966 19.5806 68.1498 17.6478C67.4198 16.934 66.5016 16.4618 65.495 16.2751C65.2074 16.2202 64.9088 16.1982 64.6212 16.1982C63.9243 16.1982 63.2385 16.341 62.5969 16.6265C62.0328 16.8791 61.5239 17.2195 61.0925 17.6588C59.566 19.1852 59.2121 21.5134 60.1855 23.4132V23.4242ZM63.3712 19.932C63.5261 19.7783 63.7031 19.6575 63.9022 19.5696C64.1234 19.4708 64.3668 19.4159 64.6101 19.4159C65.0747 19.4159 65.5393 19.6026 65.8601 19.921C66.1919 20.2505 66.38 20.6897 66.38 21.1619C66.38 21.6342 66.203 22.0734 65.8711 22.4029C65.7163 22.5566 65.5393 22.6774 65.3402 22.7653C65.1189 22.8641 64.8756 22.919 64.6322 22.919C64.1677 22.919 63.7141 22.7323 63.3933 22.4248C62.7075 21.733 62.6965 20.6238 63.3933 19.932H63.3712Z" fill="#10DF2D"/>
<path d="M25.0762 66.9226C25.773 66.9226 26.4589 66.7799 27.1004 66.4944H27.1226V66.4834C27.6756 66.2308 28.1734 65.8904 28.6048 65.4621C29.545 64.5286 30.0649 63.2767 30.0539 61.9589C30.0539 61.1792 29.8658 60.4105 29.5119 59.7187L35.5625 53.0858C36.1598 52.4269 36.1045 51.4166 35.4519 50.8235C35.1532 50.56 34.7661 50.4062 34.3679 50.4062C33.9144 50.4062 33.483 50.5929 33.1732 50.9334L27.1889 57.4894C26.7907 57.3027 26.3704 57.1709 25.9279 57.0941C25.6403 57.0392 25.3416 57.0172 25.054 57.0172C24.3572 57.0172 23.6714 57.16 23.0298 57.4455C22.4656 57.6981 21.9568 58.0385 21.5254 58.4778C20.5852 59.4112 20.0653 60.6631 20.0763 61.9809C20.0763 63.2987 20.5962 64.5506 21.5475 65.484C22.2776 66.1978 23.1957 66.6701 24.2023 66.8567C24.4899 66.9117 24.7886 66.9336 25.0762 66.9336V66.9226ZM23.3063 61.9809C23.3063 61.5087 23.4833 61.0694 23.8262 60.74C23.9811 60.5862 24.1581 60.4654 24.3572 60.3776C24.5784 60.2787 24.8218 60.2238 25.0651 60.2238C25.5297 60.2238 25.9943 60.4105 26.3151 60.729C26.6469 61.0584 26.835 61.4977 26.835 61.9699C26.835 62.4421 26.658 62.8814 26.3151 63.2108C26.1602 63.3646 25.9832 63.4854 25.7952 63.5732H25.7841C25.5629 63.6721 25.3195 63.727 25.0762 63.727C24.6116 63.727 24.147 63.5403 23.8262 63.2218C23.4944 62.8924 23.3063 62.4531 23.3063 61.9809Z" fill="#10DF2D"/>
<path d="M55.8162 45.629L53.3716 45.2446C53.2831 45.2336 53.2057 45.2227 53.1172 45.2227C52.3207 45.2227 51.646 45.7937 51.5243 46.5734C51.3916 47.4409 51.9889 48.2646 52.8628 48.3963L55.3074 48.7807C55.3959 48.7917 55.4733 48.8027 55.5618 48.8027C55.783 48.8027 56.0042 48.7587 56.2144 48.6709C56.7122 48.4513 57.0662 47.99 57.1546 47.4519C57.221 47.0346 57.1215 46.6063 56.867 46.2659C56.6126 45.9255 56.2365 45.6949 55.8162 45.629Z" fill="#10DF2D"/>
<path d="M48.5714 28.5195C47.9409 28.5195 47.3657 28.8929 47.1002 29.464L44.9542 34.197C44.5892 34.9987 44.9542 35.9541 45.7617 36.3165C45.9719 36.4153 46.1931 36.4593 46.4254 36.4593C46.6577 36.4593 46.8679 36.4153 47.0781 36.3165C47.4431 36.1518 47.7307 35.8663 47.8966 35.5148L50.0426 30.7818C50.4076 29.9801 50.0426 29.0247 49.2351 28.6623C49.0249 28.5635 48.8037 28.5195 48.5714 28.5195Z" fill="#10DF2D"/>
<path d="M30.2646 45.7718L33.207 46.0024C33.207 46.0024 33.2955 46.0024 33.3397 46.0024C33.5609 46.0024 33.7822 45.9585 33.9923 45.8707C34.5344 45.6291 34.8994 45.1239 34.9436 44.5309C35.01 43.6524 34.3463 42.8837 33.4614 42.8068L30.519 42.5762C30.519 42.5762 30.4305 42.5762 30.3863 42.5762C29.5567 42.5762 28.8487 43.2241 28.7823 44.0477C28.7492 44.476 28.8819 44.8823 29.1584 45.2118C29.435 45.5412 29.8332 45.7389 30.2535 45.7718H30.2646Z" fill="#10DF2D"/>
<path d="M489.452 56.4893V92.3443H487.063V86.4033C485.072 90.3127 481.222 92.542 476.643 92.542C469.486 92.542 464.088 87.2708 464.088 79.7374C464.088 72.204 469.486 66.9328 476.643 66.9328C481.167 66.9328 484.972 69.1511 487.007 72.9727V56.4893H489.441H489.452ZM487.019 79.7374C487.019 73.412 482.638 69.1072 476.798 69.1072C470.957 69.1072 466.577 73.412 466.577 79.7374C466.577 86.0628 470.957 90.3676 476.798 90.3676C482.638 90.3676 487.019 86.0628 487.019 79.7374Z" fill="#514C4C"/>
<path d="M496.94 79.7372C496.94 72.2477 502.338 66.9326 509.65 66.9326C516.962 66.9326 522.36 72.2477 522.36 79.7372C522.36 87.2267 516.962 92.5418 509.65 92.5418C502.338 92.5418 496.94 87.2267 496.94 79.7372ZM519.871 79.7372C519.871 73.4118 515.491 69.107 509.65 69.107C503.81 69.107 499.429 73.4118 499.429 79.7372C499.429 86.0626 503.81 90.3674 509.65 90.3674C515.491 90.3674 519.871 86.0626 519.871 79.7372Z" fill="#514C4C"/>
<path d="M584.172 77.6073V92.3446H581.738V77.7939C581.738 72.0945 578.774 69.0965 573.807 69.0965C568.066 69.0965 564.504 72.9181 564.504 78.9031V92.3336H562.071V77.783C562.071 72.0835 559.106 69.0855 554.14 69.0855C548.399 69.0855 544.837 72.9071 544.837 78.8921V92.3227H542.403V67.0978H544.737V72.5118C546.397 68.9867 549.848 66.9111 554.471 66.9111C559.095 66.9111 562.403 68.9867 563.774 72.995C565.433 69.3271 569.128 66.9111 574.05 66.9111C580.179 66.9111 584.172 70.5351 584.172 77.5963V77.6073Z" fill="#514C4C"/>
<path d="M612.534 76.3549V92.3551H610.2V87.8636C608.596 90.7628 605.477 92.5528 601.052 92.5528C595.356 92.5528 591.904 89.6536 591.904 85.3488C591.904 81.5272 594.338 78.2986 601.395 78.2986H610.112V76.267C610.112 71.5778 607.534 69.0631 602.568 69.0631C599.061 69.0631 595.898 70.3699 593.807 72.2477L592.59 70.5126C595.123 68.2943 598.818 66.9326 602.767 66.9326C609.05 66.9326 612.556 70.1173 612.556 76.3549H612.534ZM610.101 84.9096V80.1765H601.439C596.185 80.1765 594.338 82.3508 594.338 85.25C594.338 88.5335 596.915 90.5651 601.395 90.5651C605.875 90.5651 608.652 88.5335 610.112 84.9096H610.101Z" fill="#514C4C"/>
<path d="M622.566 56.4893H625V92.3443H622.566V56.4893Z" fill="#514C4C"/>
</g>
<defs>
<clipPath id="clip0_62_224">
<rect width="625" height="131" fill="white"/>
</clipPath>
</defs>
</svg>
