<svg width="199" height="240" viewBox="0 0 199 240" fill="none" xmlns="http://www.w3.org/2000/svg">
<g clip-path="url(#clip0_100_99)">
<path d="M0.826172 107.294H6.8217L26.0753 159.676L45.4942 107.294H51.4071L28.692 167.015H23.1189L0.826172 107.294Z" fill="#514C4C"/>
<path d="M59.3398 107.294H64.913V167.015H59.3398V107.294Z" fill="#514C4C"/>
<path d="M80.5312 107.294H99.0228C104.201 107.294 108.59 107.927 112.198 109.193C115.797 110.459 118.8 112.074 121.187 114.046C123.574 116.019 125.466 118.193 126.843 120.587C128.22 122.981 129.23 125.266 129.882 127.458C130.525 129.651 130.938 131.632 131.103 133.403C131.268 135.173 131.36 136.43 131.36 137.155C131.36 137.879 131.277 139.136 131.103 140.907C130.938 142.677 130.525 144.659 129.882 146.851C129.23 149.044 128.22 151.337 126.843 153.722C125.466 156.116 123.574 158.291 121.187 160.263C118.791 162.235 115.797 163.85 112.198 165.116C108.599 166.382 104.201 167.015 99.0228 167.015H80.5312V107.294ZM86.1044 161.96H97.5905C101.529 161.96 105.22 161.465 108.654 160.483C112.088 159.501 115.072 157.997 117.606 155.97C120.14 153.942 122.133 151.374 123.602 148.255C125.062 145.136 125.796 141.439 125.796 137.164C125.796 132.889 125.062 129.192 123.602 126.073C122.142 122.954 120.14 120.376 117.606 118.358C115.072 116.33 112.088 114.826 108.654 113.844C105.22 112.863 101.529 112.367 97.5905 112.367H86.1044V161.969V161.96Z" fill="#514C4C"/>
<path d="M162.173 107.294H167.911L193.068 167.015H186.825L180.324 151.153H148.667L141.909 167.015H136.088L162.173 107.294ZM164.789 113.367L150.861 146.099H178.304L164.798 113.367H164.789Z" fill="#514C4C"/>
<path d="M5.10476 204.37C6.05046 205.792 7.2716 206.837 8.74982 207.516C10.228 208.195 11.7522 208.525 13.3222 208.525C14.1945 208.525 15.0942 208.388 16.0032 208.113C16.9122 207.837 17.7477 207.425 18.4914 206.883C19.2351 206.333 19.8503 205.663 20.3277 204.856C20.8051 204.058 21.0439 203.122 21.0439 202.067C21.0439 200.572 20.5664 199.434 19.6207 198.645C18.675 197.866 17.4906 197.205 16.0858 196.673C14.6811 196.141 13.1478 195.636 11.4859 195.141C9.82406 194.646 8.29075 193.967 6.88598 193.086C5.48121 192.215 4.30597 191.031 3.3511 189.554C2.4054 188.077 1.92796 186.078 1.92796 183.564C1.92796 182.436 2.17586 181.234 2.67166 179.95C3.16747 178.674 3.93871 177.509 4.99459 176.445C6.05046 175.39 7.40932 174.5 9.07117 173.794C10.733 173.079 12.7346 172.73 15.0667 172.73C17.1876 172.73 19.2076 173.024 21.1449 173.601C23.0822 174.189 24.7807 175.372 26.2406 177.161L21.9712 181.05C21.3101 180.032 20.3828 179.207 19.18 178.592C17.9772 177.968 16.6092 177.665 15.0759 177.665C13.5426 177.665 12.4041 177.858 11.4308 178.243C10.4668 178.629 9.68634 179.115 9.09872 179.72C8.5111 180.326 8.10712 180.968 7.8684 181.665C7.62968 182.362 7.51032 182.995 7.51032 183.582C7.51032 185.224 7.98776 186.481 8.93345 187.362C9.87915 188.233 11.0636 188.949 12.4683 189.499C13.8731 190.05 15.4064 190.536 17.0683 190.976C18.7301 191.417 20.2634 192.022 21.6682 192.811C23.073 193.6 24.2482 194.655 25.2031 195.985C26.1488 197.315 26.6262 199.15 26.6262 201.48C26.6262 203.342 26.2681 205.021 25.5612 206.516C24.845 208.012 23.8901 209.268 22.6873 210.296C21.4846 211.314 20.0614 212.103 18.4179 212.644C16.7745 213.186 15.0208 213.461 13.1569 213.461C10.6779 213.461 8.31829 213.02 6.09637 212.149C3.86526 211.277 2.10241 209.929 0.780273 208.103L5.10476 204.379V204.37Z" fill="#514C4C"/>
<path d="M34.4033 173.73H59.4321V178.656H39.6643V190.206H58.0641V195.132H39.6643V207.553H60.4237V212.479H34.4125V173.739L34.4033 173.73Z" fill="#514C4C"/>
<path d="M67.4744 173.73H75.3062L87.6278 203.058H87.8482L100.06 173.73H107.891V212.47H102.63V180.629H102.52L89.4274 212.47H85.9201L72.8272 180.629H72.7171V212.47H67.4561V173.73H67.4744Z" fill="#514C4C"/>
<path d="M123.188 194.572C123.381 194.572 123.528 194.627 123.629 194.747C123.73 194.866 123.775 195.013 123.775 195.178V209.012C123.775 210.562 123.289 211.782 122.306 212.672C121.324 213.562 119.956 214.011 118.193 214.011C117.339 214.011 116.577 213.892 115.898 213.663C115.218 213.433 114.631 213.094 114.135 212.663C113.639 212.222 113.263 211.699 112.996 211.094C112.73 210.479 112.602 209.791 112.602 209.012V177.381C112.602 175.831 113.088 174.611 114.071 173.721C115.053 172.831 116.421 172.381 118.184 172.381C119.019 172.381 119.782 172.501 120.47 172.73C121.159 172.959 121.746 173.299 122.242 173.73C122.738 174.161 123.114 174.684 123.381 175.299C123.647 175.913 123.775 176.601 123.775 177.381V191.591C123.775 191.765 123.73 191.912 123.629 192.031C123.528 192.15 123.39 192.206 123.188 192.206H121.563C121.003 192.206 120.58 192.05 120.296 191.728C120.011 191.407 119.873 190.995 119.873 190.49V177.381C119.873 176.858 119.736 176.436 119.469 176.115C119.194 175.794 118.772 175.638 118.193 175.638C117.615 175.638 117.211 175.794 116.926 176.115C116.641 176.436 116.504 176.858 116.504 177.381V209.012C116.504 209.534 116.641 209.956 116.908 210.278C117.183 210.599 117.605 210.755 118.184 210.755C118.762 210.755 119.166 210.599 119.451 210.278C119.736 209.956 119.873 209.534 119.873 209.012V198.462C119.35 198.462 118.928 198.324 118.606 198.04C118.285 197.756 118.129 197.334 118.129 196.774V195.15C118.129 194.958 118.184 194.811 118.303 194.71C118.423 194.618 118.57 194.563 118.744 194.563H123.197L123.188 194.572Z" fill="#10DF2D"/>
<path d="M135.023 172.858C135.197 172.858 135.344 172.904 135.463 173.005C135.583 173.106 135.638 173.244 135.638 173.436V174.427C135.638 174.932 135.5 175.335 135.234 175.647C134.958 175.959 134.6 176.115 134.16 176.115H130.579V191.784H134.444C134.619 191.784 134.766 191.829 134.885 191.93C135.004 192.031 135.059 192.169 135.059 192.362V193.352C135.059 193.857 134.922 194.26 134.655 194.572C134.38 194.884 134.022 195.04 133.581 195.04H130.588V210.296H134.169C134.619 210.296 134.977 210.452 135.243 210.764C135.519 211.076 135.647 211.479 135.647 211.984V212.975C135.647 213.167 135.592 213.314 135.473 213.406C135.353 213.507 135.206 213.553 135.032 213.553H127.264C127.072 213.553 126.925 213.498 126.824 213.378C126.723 213.259 126.677 213.112 126.677 212.947V173.473C126.677 173.299 126.723 173.152 126.824 173.033C126.925 172.913 127.062 172.858 127.264 172.858H135.032H135.023Z" fill="#10DF2D"/>
<path d="M143.378 172.858C144.214 172.858 144.967 172.978 145.646 173.225C146.326 173.464 146.904 173.803 147.391 174.225C147.877 174.656 148.254 175.179 148.511 175.794C148.768 176.409 148.906 177.106 148.906 177.858V191.637C148.906 192.49 148.731 193.187 148.401 193.728C148.061 194.27 147.593 194.71 146.987 195.04C147.584 195.37 148.061 195.802 148.401 196.334C148.74 196.866 148.906 197.554 148.906 198.379V212.947C148.906 213.121 148.86 213.268 148.759 213.378C148.658 213.498 148.52 213.553 148.318 213.553H146.693C146.133 213.553 145.711 213.397 145.426 213.076C145.141 212.754 145.004 212.342 145.004 211.837V198.379C145.004 197.856 144.875 197.435 144.609 197.113C144.343 196.792 143.911 196.636 143.314 196.636H141.625V211.837C141.625 212.342 141.487 212.754 141.202 213.076C140.918 213.397 140.495 213.553 139.935 213.553H138.31C138.117 213.553 137.971 213.498 137.87 213.378C137.769 213.259 137.723 213.112 137.723 212.947V173.473C137.723 173.299 137.769 173.152 137.87 173.033C137.971 172.913 138.108 172.858 138.31 172.858H143.369H143.378ZM141.625 176.115V193.38H143.314C143.893 193.38 144.324 193.215 144.59 192.884C144.866 192.554 144.994 192.141 144.994 191.637V177.858C144.994 177.353 144.857 176.941 144.572 176.61C144.287 176.28 143.865 176.115 143.305 176.115H141.616H141.625Z" fill="#10DF2D"/>
<path d="M162.457 178.784C162.595 177.445 162.76 176.39 162.953 175.601C163.146 174.812 163.357 174.216 163.596 173.812C163.825 173.409 164.083 173.143 164.349 173.023C164.624 172.904 164.89 172.849 165.166 172.849H167.379C167.571 172.849 167.718 172.904 167.819 173.023C167.92 173.143 167.966 173.289 167.966 173.464V212.938C167.966 213.112 167.92 213.259 167.819 213.369C167.718 213.488 167.581 213.543 167.379 213.543H165.754C165.193 213.543 164.762 213.387 164.477 213.066C164.184 212.745 164.055 212.332 164.073 211.828L164.946 183.344L161.952 212.094C161.916 212.497 161.686 212.846 161.282 213.121C160.878 213.406 160.428 213.543 159.942 213.543H159.887C159.4 213.543 158.959 213.406 158.546 213.121C158.142 212.837 157.913 212.497 157.876 212.094L154.846 183.289L155.718 211.837C155.737 212.342 155.599 212.754 155.314 213.075C155.03 213.396 154.598 213.552 154.038 213.552H152.413C152.22 213.552 152.073 213.497 151.972 213.378C151.871 213.259 151.825 213.112 151.825 212.947V173.473C151.825 173.299 151.871 173.152 151.972 173.033C152.073 172.913 152.211 172.858 152.413 172.858H154.396C154.671 172.858 154.956 172.913 155.25 173.014C155.544 173.115 155.838 173.381 156.113 173.785C156.388 174.188 156.627 174.785 156.857 175.574C157.077 176.363 157.261 177.427 157.398 178.784L159.932 203.379L162.494 178.784H162.457Z" fill="#10DF2D"/>
<path d="M179.801 172.858C179.976 172.858 180.122 172.904 180.242 173.005C180.361 173.106 180.416 173.244 180.416 173.436V174.427C180.416 174.932 180.278 175.335 180.012 175.647C179.737 175.959 179.379 176.115 178.938 176.115H175.357V191.784H179.223C179.397 191.784 179.544 191.829 179.663 191.93C179.783 192.031 179.838 192.169 179.838 192.362V193.352C179.838 193.857 179.7 194.26 179.434 194.572C179.158 194.884 178.8 195.04 178.36 195.04H175.366V210.296H178.947C179.397 210.296 179.755 210.452 180.021 210.764C180.297 211.076 180.425 211.479 180.425 211.984V212.975C180.425 213.167 180.37 213.314 180.251 213.406C180.132 213.507 179.985 213.553 179.81 213.553H172.043C171.85 213.553 171.703 213.498 171.602 213.378C171.501 213.259 171.455 213.112 171.455 212.947V173.473C171.455 173.299 171.501 173.152 171.602 173.033C171.703 172.913 171.841 172.858 172.043 172.858H179.81H179.801Z" fill="#10DF2D"/>
<path d="M191.462 186.894C190.902 186.894 190.48 186.738 190.195 186.417C189.91 186.096 189.773 185.683 189.773 185.179V177.39C189.773 176.867 189.635 176.445 189.35 176.124C189.066 175.803 188.643 175.647 188.083 175.647C187.523 175.647 187.073 175.803 186.807 176.124C186.531 176.445 186.403 176.867 186.403 177.39C186.403 179.152 186.504 180.748 186.706 182.161C186.908 183.573 187.183 184.885 187.532 186.087C187.881 187.289 188.276 188.426 188.707 189.49C189.148 190.554 189.589 191.619 190.03 192.674C190.47 193.729 190.92 194.811 191.352 195.912C191.792 197.013 192.178 198.214 192.527 199.517C192.876 200.811 193.151 202.242 193.353 203.792C193.555 205.342 193.656 207.085 193.656 209.021C193.656 209.792 193.528 210.489 193.262 211.103C192.995 211.718 192.619 212.241 192.123 212.672C191.627 213.103 191.04 213.443 190.351 213.672C189.662 213.901 188.9 214.021 188.065 214.021C186.302 214.021 184.925 213.571 183.951 212.681C182.969 211.791 182.482 210.571 182.482 209.021V200.123C182.482 199.948 182.528 199.801 182.629 199.691C182.73 199.572 182.868 199.517 183.07 199.517H184.695C185.255 199.517 185.678 199.673 185.962 199.994C186.247 200.315 186.385 200.728 186.385 201.233V209.021C186.385 209.544 186.522 209.966 186.807 210.287C187.092 210.608 187.514 210.764 188.074 210.764C188.634 210.764 189.084 210.608 189.35 210.287C189.626 209.966 189.754 209.544 189.754 209.021C189.754 206.544 189.571 204.37 189.212 202.508C188.854 200.645 188.404 198.958 187.863 197.435C187.321 195.912 186.733 194.472 186.118 193.105C185.494 191.738 184.916 190.298 184.374 188.793C183.832 187.28 183.382 185.619 183.024 183.794C182.666 181.968 182.482 179.84 182.482 177.4C182.482 176.629 182.611 175.932 182.877 175.317C183.143 174.702 183.52 174.18 184.016 173.748C184.512 173.308 185.099 172.978 185.779 172.749C186.458 172.519 187.22 172.4 188.074 172.4C189.837 172.4 191.214 172.849 192.187 173.739C193.17 174.629 193.656 175.849 193.656 177.4V186.298C193.656 186.472 193.61 186.619 193.509 186.738C193.408 186.858 193.271 186.913 193.069 186.913H191.444L191.462 186.894Z" fill="#10DF2D"/>
<path d="M6.69347 7.92599C5.95895 7.21045 4.7929 7.21962 4.06756 7.94434C3.3514 8.67823 3.36059 9.84328 4.08592 10.568L86.444 91.4425C86.8021 91.8003 87.2704 91.9746 87.7478 91.9746C88.2253 91.9746 88.7119 91.7911 89.07 91.4242C89.7861 90.6903 89.7769 89.5253 89.0516 88.8005L6.69347 7.92599Z" fill="#514C4C"/>
<path d="M88.1888 60.4723C87.5461 60.2246 86.8759 60.0961 86.1965 60.0961C85.4252 60.0961 84.6723 60.2613 83.9562 60.5732C83.1757 60.9218 82.4963 61.4355 81.9546 62.0776L71.5611 58.078C72.3048 55.702 72.6996 53.2251 72.7364 50.7207C72.7915 47.4733 72.2497 44.29 71.1388 41.2444L81.3211 36.731C82.3678 37.8593 83.8368 38.5015 85.3885 38.5015C86.1597 38.5015 86.9126 38.3455 87.6196 38.0244C88.9693 37.4282 90.0068 36.3365 90.5301 34.9605C91.0627 33.5844 91.0259 32.0799 90.4291 30.7314C89.5477 28.7407 87.5553 27.4473 85.3701 27.4473C84.5989 27.4473 83.846 27.6032 83.139 27.9243C80.9814 28.8783 79.6684 31.1259 79.8704 33.4652L69.6881 37.9786C69.229 37.1071 68.724 36.2631 68.1823 35.465C67.8518 34.9788 67.3009 34.6852 66.7041 34.6852C66.346 34.6852 65.9971 34.7953 65.7033 34.9971C65.3085 35.2632 65.0423 35.6668 64.9504 36.1347C64.8586 36.6025 64.9504 37.0796 65.2259 37.474C65.988 38.5932 66.649 39.7949 67.2091 41.0426C69.8809 47.0604 69.8166 53.9407 67.0438 59.9127C67.0438 59.931 67.0255 59.9494 67.0163 59.9585C67.0255 59.9218 67.0163 59.9494 66.9061 60.1237C66.4195 60.9768 66.7225 62.0685 67.5764 62.5547C67.8426 62.7106 68.1456 62.784 68.4578 62.784C68.7057 62.784 68.9536 62.729 69.1831 62.6281C69.532 62.4721 69.8166 62.2152 70.0095 61.8758C70.2023 61.5272 70.1747 61.619 70.1564 61.6557C70.1655 61.6281 70.2023 61.5548 70.2757 61.3896L80.6692 65.3893C80.6325 66.2241 80.7977 67.0681 81.1466 67.8478C81.7434 69.1964 82.836 70.233 84.2133 70.7651C84.856 71.0127 85.5262 71.1412 86.2056 71.1412C86.9769 71.1412 87.7298 70.9761 88.4459 70.6641C89.7956 70.0679 90.8331 68.9762 91.3656 67.6002C91.8982 66.2241 91.8614 64.7197 91.2555 63.3711C90.6587 62.0226 89.5661 60.986 88.1888 60.4539V60.4723ZM84.5897 31.1901C84.8376 31.08 85.1039 31.025 85.3793 31.025C86.1505 31.025 86.8575 31.4837 87.1697 32.19C87.3809 32.6671 87.3901 33.1991 87.2064 33.6853C87.0136 34.1715 86.6555 34.5568 86.1781 34.7678C85.9302 34.8779 85.6639 34.9329 85.3885 34.9329C84.6172 34.9329 83.9103 34.4743 83.5981 33.7679C83.1574 32.7863 83.5981 31.6213 84.5897 31.1901ZM88.0328 66.325C87.8491 66.8112 87.4819 67.1965 87.0044 67.4075C86.7474 67.5176 86.4811 67.5726 86.2148 67.5726C85.9761 67.5726 85.7374 67.5268 85.5078 67.4442C85.0212 67.2607 84.6356 66.8938 84.4244 66.4168C84.2132 65.9397 84.1949 65.4077 84.3877 64.9215C84.5713 64.4353 84.9386 64.05 85.416 63.839C85.6731 63.7289 85.9394 63.6739 86.2056 63.6739C86.4444 63.6739 86.6831 63.7197 86.9126 63.8023C87.3992 63.9858 87.7849 64.3527 87.996 64.8297C88.2072 65.3068 88.2256 65.8388 88.0328 66.325Z" fill="#10DF2D"/>
<path d="M76.3257 48.1617C75.8482 48.1617 75.3983 48.3543 75.0678 48.7029C74.7373 49.0424 74.5536 49.4919 74.5628 49.9689C74.572 50.9413 75.3708 51.7302 76.344 51.7302L79.5208 51.6935C79.7687 51.6935 79.9983 51.6385 80.2278 51.5376C80.8797 51.244 81.2929 50.6019 81.2929 49.8863C81.2837 48.9139 80.4849 48.125 79.5117 48.125L76.3349 48.1617H76.3257Z" fill="#10DF2D"/>
<path d="M16.3712 52.3996C16.6191 52.3996 16.8486 52.3445 17.0781 52.2436C17.73 51.9501 18.1524 51.3079 18.1432 50.5924C18.134 49.62 17.3352 48.8311 16.362 48.8311L14.5532 48.8494C14.0758 48.8494 13.6259 49.042 13.2953 49.3906C12.9648 49.7301 12.7812 50.1796 12.7904 50.6566C12.7995 51.629 13.5983 52.4179 14.5716 52.4179L16.3803 52.3996H16.3712Z" fill="#10DF2D"/>
<path d="M46.0091 22.1362H46.0274C46.2753 22.1362 46.5049 22.0812 46.7344 21.9803C47.3863 21.6867 47.7995 21.0445 47.7995 20.329L47.6985 11.3297C47.6893 10.3573 46.8905 9.56836 45.9173 9.56836H45.8989C44.9165 9.57753 44.1177 10.3848 44.1361 11.3756L44.237 20.3749C44.2462 21.3473 45.045 22.1362 46.0183 22.1362H46.0091Z" fill="#10DF2D"/>
<path d="M46.6878 78.875H46.6694C46.192 78.875 45.7421 79.0676 45.4116 79.4162C45.081 79.7557 44.8974 80.2052 44.9066 80.6822L44.9984 89.2412C45.0076 90.2136 45.8064 91.0025 46.7796 91.0025H46.798C47.0459 91.0025 47.2754 90.9475 47.5049 90.8466C48.1568 90.553 48.57 89.9109 48.57 89.1953L48.4782 80.6363C48.469 79.6639 47.6702 78.875 46.697 78.875H46.6878Z" fill="#10DF2D"/>
<path d="M29.0316 16.8063C29.1969 16.8063 29.353 16.8063 29.5182 16.7879L34.0355 26.9706C33.3653 27.3192 34.4395 26.7505 33.8152 27.1449C33.4112 27.4018 33.1357 27.7962 33.0347 28.2641C32.9337 28.732 33.0164 29.209 33.2735 29.6126C33.604 30.1263 34.1641 30.4382 34.7792 30.4382C35.0271 30.4382 35.275 30.3832 35.5046 30.2823C35.5872 30.2456 35.6698 30.1997 35.7433 30.1539C36.7165 29.5301 36.0279 29.9245 37.093 29.4567C40.0219 28.154 43.1344 27.5027 46.3479 27.5027C50.5163 27.5027 54.5929 28.6402 58.1553 30.7868C58.4308 30.952 58.7521 31.0437 59.0735 31.0437C59.3214 31.0437 59.5693 30.9887 59.7988 30.8878C60.1385 30.741 60.414 30.4933 60.6068 30.1814C60.8547 29.7777 60.9282 29.2915 60.8088 28.8329C60.6894 28.3742 60.4048 27.9797 60.0008 27.732C59.1929 27.2458 58.3482 26.7963 57.4851 26.4019L63.398 11.0728C63.4714 11.0728 63.5449 11.0728 63.6183 11.0728C64.3896 11.0728 65.1425 10.9076 65.8586 10.5957C67.2083 9.99944 68.2458 8.90778 68.7784 7.53174C69.871 4.68792 68.4478 1.48633 65.6107 0.394673C64.968 0.146985 64.2978 0.0185547 63.6183 0.0185547C62.8471 0.0185547 62.0942 0.18368 61.3781 0.495582C60.0284 1.09187 58.9909 2.18353 58.4583 3.55957C57.6045 5.76123 58.2747 8.2748 60.0743 9.77927L54.1614 25.1084C52.2241 24.5121 50.2317 24.136 48.2301 23.9892C47.6058 23.9433 46.9723 23.925 46.3479 23.925C44.8605 23.925 43.3639 24.0534 41.9041 24.3011C40.3524 24.5671 38.8007 24.9799 37.3041 25.5304L32.7868 15.3477C34.5038 13.7514 35.0455 11.2104 34.0814 9.05456C33.2 7.06389 31.2076 5.77041 29.0224 5.77041C28.2512 5.77041 27.4983 5.92636 26.7913 6.24744C24.0093 7.48587 22.7423 10.7517 23.9818 13.5405C24.8632 15.5311 26.8556 16.8246 29.0408 16.8246L29.0316 16.8063ZM61.7729 4.82553C61.9565 4.33933 62.3238 3.95403 62.8012 3.74304C63.0583 3.63296 63.3245 3.57792 63.5908 3.57792C63.8295 3.57792 64.0682 3.62378 64.2978 3.70635C64.7844 3.88982 65.17 4.25676 65.3812 4.74296C65.5924 5.21999 65.6107 5.75206 65.4179 6.23826C65.2343 6.72446 64.867 7.10976 64.3896 7.32075C64.1325 7.43083 63.8662 7.48587 63.6 7.48587C63.3613 7.48587 63.1225 7.44001 62.893 7.35744C61.883 6.97215 61.3781 5.83462 61.7729 4.82553ZM27.1953 10.5774C27.3789 10.0912 27.7462 9.70589 28.2236 9.49489C28.4715 9.38481 28.7378 9.32977 29.0132 9.32977C29.7845 9.32977 30.4915 9.78845 30.8036 10.4948C31.0148 10.9718 31.024 11.5039 30.8404 11.9901C30.6567 12.4763 30.2895 12.8616 29.812 13.0726C29.5641 13.1827 29.2979 13.2377 29.0224 13.2377C28.2512 13.2377 27.5442 12.779 27.232 12.0727C27.0209 11.5957 27.0117 11.0636 27.1953 10.5774Z" fill="#10DF2D"/>
<path d="M63.6649 83.7641C63.4996 83.7641 63.3436 83.7641 63.1783 83.7824L58.661 73.6089C58.863 73.4988 58.5692 73.6547 58.7712 73.5447C59.1843 73.3153 59.4873 72.93 59.6159 72.4713C59.7444 72.0127 59.6893 71.5265 59.4598 71.1137C59.1476 70.5541 58.5508 70.1963 57.8989 70.1963C57.5959 70.1963 57.2929 70.2789 57.0267 70.4256C56.4115 70.7742 56.2646 70.8293 55.6127 71.1228C52.6838 72.4255 49.5713 73.0768 46.3578 73.0768C43.0708 73.0768 39.8848 72.3888 36.9008 71.0311C36.6621 70.921 36.4142 70.866 36.1663 70.866C35.4685 70.866 34.8258 71.2788 34.5412 71.9118C34.1647 72.7374 34.4769 73.7098 35.239 74.1776L31.2266 84.5805C30.3728 84.5438 29.5464 84.7089 28.766 85.0575C27.4163 85.6538 26.3788 86.7455 25.8463 88.1215C25.3138 89.4976 25.3505 91.002 25.9565 92.3506C26.5533 93.6991 27.6459 94.7357 29.0231 95.2678C29.6658 95.5155 30.336 95.6439 31.0155 95.6439C31.7867 95.6439 32.5396 95.4788 33.2558 95.1669C34.6054 94.5706 35.643 93.4789 36.1755 92.1029C37.0294 89.9012 36.3591 87.3876 34.5595 85.8832L38.5627 75.4986C40.9774 76.2509 43.4931 76.6453 46.0364 76.682C49.2499 76.7279 52.3992 76.1867 55.4107 75.0766L59.928 85.2502C58.2111 86.8464 57.6694 89.3875 58.6334 91.5433C59.5149 93.534 61.5073 94.8274 63.6925 94.8274C64.4637 94.8274 65.2166 94.6715 65.9236 94.3504C67.2733 93.7541 68.3108 92.6625 68.8341 91.2864C69.3666 89.9104 69.3299 88.4059 68.7331 87.0574C67.8517 85.0667 65.8593 83.7732 63.6741 83.7732L63.6649 83.7641ZM32.8242 90.8094C32.6406 91.2956 32.2733 91.6809 31.7959 91.8919C31.5388 92.002 31.2726 92.057 31.0063 92.057C30.7676 92.057 30.5289 92.0111 30.2993 91.9286C29.8127 91.7451 29.4271 91.3782 29.2159 90.9011C29.0047 90.4241 28.9864 89.892 29.1792 89.4058C29.3628 88.9196 29.7301 88.5343 30.2075 88.3233C30.4646 88.2133 30.7308 88.1582 30.9971 88.1582C31.2358 88.1582 31.4745 88.2041 31.7041 88.2867C32.7141 88.6719 33.219 89.8095 32.8242 90.8186V90.8094ZM64.4637 91.0754C64.2158 91.1855 63.9495 91.2406 63.6741 91.2406C62.9028 91.2406 62.1959 90.7819 61.8837 90.0755C61.6725 89.5985 61.6633 89.0664 61.847 88.5802C62.0398 88.094 62.3979 87.7087 62.8753 87.4977C63.1232 87.3876 63.3895 87.3326 63.6649 87.3326C64.4362 87.3326 65.1431 87.7913 65.4553 88.4976C65.896 89.4792 65.4553 90.6443 64.4637 91.0754Z" fill="#10DF2D"/>
<path d="M23.0365 62.5734C23.3671 62.9863 23.872 63.2339 24.4229 63.2339C24.6708 63.2339 24.9187 63.1789 25.1483 63.078C25.1758 63.0688 25.2034 63.0505 25.2309 63.0413C25.6532 62.8211 25.9746 62.4542 26.1215 62.0047C26.2684 61.5552 26.2317 61.069 26.0113 60.647C25.8277 60.2892 25.6532 59.9223 25.4972 59.5645V59.537C23.0182 53.9778 22.8621 47.7948 25.0473 42.1346C25.0473 42.1346 25.0473 42.1163 25.0564 42.1071C25.0564 42.1071 25.0564 42.0888 25.0656 42.0796C25.589 40.7311 25.2676 41.2907 26.0389 40.0614C26.296 39.6578 26.3694 39.1807 26.2684 38.7129C26.1582 38.245 25.8828 37.8506 25.4788 37.6029C25.1942 37.4286 24.8636 37.3277 24.5331 37.3277C23.9088 37.3277 23.3487 37.6396 23.0182 38.1625C22.4397 39.089 22.8896 38.1808 22.4305 39.1716L16.9675 37.0708C17.0594 34.7315 15.6362 32.5482 13.4327 31.7042C12.79 31.4566 12.1197 31.3281 11.4403 31.3281C10.669 31.3281 9.91614 31.4932 9.19999 31.8051C7.85031 32.4014 6.81279 33.4931 6.28027 34.8691C5.18767 37.713 6.6108 40.9145 9.44789 42.0062C10.0906 42.2539 10.7608 42.3823 11.4403 42.3823C12.2115 42.3823 12.9644 42.2172 13.6806 41.9053C14.461 41.5567 15.1404 41.043 15.6821 40.4008L21.1359 42.5016C20.2912 45.2353 19.8964 48.0608 19.9607 50.923C20.025 53.8035 20.5667 56.6381 21.5583 59.3443L9.59479 64.6467C8.5481 63.5183 7.07906 62.8762 5.52738 62.8762C4.75614 62.8762 4.00325 63.0321 3.29628 63.3532C1.9466 63.9495 0.909085 65.0411 0.376558 66.4172C-0.15597 67.7932 -0.119244 69.2977 0.486736 70.6462C1.36816 72.6369 3.36055 73.9304 5.54575 73.9304C6.31699 73.9304 7.06988 73.7744 7.77685 73.4533C9.93451 72.4993 11.2475 70.2518 11.0455 67.9125L23.0365 62.5918V62.5734ZM13.2582 37.5478C13.0746 38.034 12.7073 38.4193 12.2299 38.6303C11.9728 38.7404 11.7065 38.7954 11.4403 38.7954C11.2016 38.7954 10.9628 38.7496 10.7333 38.667C9.72333 38.2817 9.21835 37.1442 9.61315 36.1351C9.79678 35.6489 10.164 35.2636 10.6415 35.0526C10.8986 34.9425 11.1648 34.8875 11.4311 34.8875C11.6698 34.8875 11.9085 34.9334 12.1381 35.0159C13.148 35.4012 13.653 36.5387 13.2582 37.5478ZM7.3545 69.0867C7.16169 69.5729 6.80361 69.9582 6.32617 70.1692C6.07827 70.2793 5.81201 70.3343 5.53656 70.3343C4.76532 70.3343 4.05834 69.8756 3.74617 69.1693C3.535 68.6922 3.51663 68.1602 3.70944 67.674C3.89307 67.1878 4.26033 66.8025 4.73777 66.5915C4.98567 66.4814 5.25194 66.4264 5.52738 66.4264C6.29863 66.4264 7.00561 66.885 7.31778 67.5914C7.52895 68.0684 7.53813 68.6005 7.3545 69.0867Z" fill="#10DF2D"/>
<path d="M66.7134 26.1355L58.1012 35.7036C57.7798 36.0613 57.6237 36.5108 57.6421 36.9879C57.6696 37.4649 57.8808 37.9052 58.2297 38.2171C58.5602 38.5107 58.9826 38.6758 59.4233 38.6758C59.6712 38.6758 59.9191 38.6208 60.1486 38.5199C60.3782 38.419 60.5802 38.2722 60.7546 38.0795L69.275 28.6124C69.7158 28.8234 70.184 28.9701 70.6706 29.0527C70.992 29.1077 71.3133 29.1353 71.6347 29.1353C72.4059 29.1353 73.1588 28.9793 73.875 28.6582C74.4993 28.383 75.0594 27.9977 75.546 27.5024C77.6945 25.3466 77.6853 21.8422 75.5277 19.6864C74.7197 18.8883 73.7097 18.3563 72.5896 18.1636C72.2682 18.1086 71.9469 18.0811 71.6255 18.0811C70.8543 18.0811 70.1014 18.237 69.3852 18.5581C68.7609 18.8333 68.2008 19.2186 67.7142 19.714C66.0248 21.4111 65.63 24.0164 66.7134 26.1263V26.1355ZM70.2575 22.2367C70.4319 22.0624 70.6247 21.9248 70.8451 21.8331C71.093 21.723 71.3592 21.6679 71.6347 21.6679C72.158 21.6679 72.663 21.8789 73.0211 22.2367C73.3884 22.6036 73.5995 23.099 73.5995 23.6219C73.5995 24.1448 73.3975 24.6402 73.0303 25.0071C72.8558 25.1814 72.663 25.319 72.4427 25.4108C72.1948 25.5209 71.9285 25.5759 71.6531 25.5759C71.1389 25.5759 70.6339 25.3741 70.2758 25.0163H70.2666C69.5046 24.2457 69.4954 23.0073 70.2666 22.2367H70.2575Z" fill="#10DF2D"/>
<path d="M27.8018 74.6734C28.573 74.6734 29.3259 74.5175 30.0421 74.1964H30.0696V74.1781C30.6848 73.9029 31.2357 73.5176 31.7131 73.0405C32.7506 71.9947 33.3291 70.6095 33.3199 69.1326C33.3199 68.2611 33.1087 67.3988 32.7139 66.6282L39.4256 59.2251C40.0866 58.4912 40.0316 57.3628 39.297 56.7023C38.9665 56.4088 38.5442 56.2437 38.1034 56.2437C37.5985 56.2437 37.121 56.4546 36.7813 56.8308L30.1523 64.1513C29.7115 63.9403 29.2433 63.7935 28.7567 63.711C28.4353 63.6559 28.114 63.6284 27.7926 63.6284C27.0214 63.6284 26.2685 63.7844 25.5523 64.1054C24.928 64.3806 24.3679 64.7659 23.8813 65.2613C22.8346 66.3071 22.2653 67.6923 22.2745 69.1693C22.2745 70.6462 22.853 72.0314 23.8997 73.0681C24.7076 73.8662 25.7176 74.3982 26.8377 74.5909C27.1591 74.6459 27.4804 74.6734 27.8018 74.6734ZM25.8461 69.1509C25.8461 68.628 26.0481 68.1327 26.4154 67.7657C26.5898 67.5914 26.7826 67.4538 27.003 67.3621C27.2509 67.252 27.5172 67.1969 27.7926 67.1969C28.316 67.1969 28.8209 67.4079 29.179 67.7657C29.5463 68.1327 29.7575 68.628 29.7575 69.1509C29.7575 69.6738 29.5555 70.1692 29.1882 70.5361C29.0229 70.7104 28.8209 70.8389 28.6098 70.9398H28.6006C28.3527 71.059 28.0864 71.1141 27.811 71.1141C27.2876 71.1141 26.7826 70.9031 26.4246 70.5453C26.0573 70.1784 25.8461 69.683 25.8461 69.1601V69.1509Z" fill="#10DF2D"/>
<path d="M61.8837 50.9135L59.1751 50.4915C59.0833 50.4731 58.9915 50.4731 58.8997 50.4731C58.0183 50.4731 57.2746 51.1061 57.1368 51.9776C56.9807 52.95 57.651 53.8674 58.6242 54.0142L61.3328 54.4361C61.4246 54.4545 61.5164 54.4545 61.6082 54.4545C61.8561 54.4545 62.104 54.3994 62.3336 54.2985C62.8936 54.0509 63.2793 53.5463 63.3711 52.9408C63.4445 52.473 63.3343 51.996 63.0497 51.6107C62.7651 51.2254 62.3519 50.9685 61.8837 50.8951V50.9135Z" fill="#10DF2D"/>
<path d="M53.8499 31.8232C53.1521 31.8232 52.5094 32.2361 52.2248 32.8782L49.856 38.153C49.452 39.052 49.856 40.107 50.7558 40.5107C50.9853 40.6116 51.2332 40.6666 51.4903 40.6666C51.7474 40.6666 51.9861 40.6116 52.2156 40.5107C52.6196 40.3364 52.941 40.0153 53.1154 39.6116L55.4934 34.3368C55.8974 33.4378 55.4934 32.3828 54.5936 31.9792C54.3641 31.8783 54.1162 31.8232 53.8591 31.8232H53.8499Z" fill="#10DF2D"/>
<path d="M33.5582 51.0602L36.8268 51.3171C36.8727 51.3171 36.9186 51.3171 36.9737 51.3171C37.2216 51.3171 37.4695 51.2621 37.6991 51.1611C38.2959 50.8951 38.6998 50.3263 38.7549 49.6658C38.8284 48.6843 38.0939 47.8219 37.1114 47.7486L33.8428 47.4917C33.7969 47.4917 33.751 47.4917 33.6959 47.4917C32.7686 47.4917 31.9882 48.2164 31.9147 49.1338C31.878 49.6108 32.0249 50.0695 32.3371 50.4364C32.6492 50.8034 33.0808 51.0235 33.5582 51.0602Z" fill="#10DF2D"/>
<path d="M98.0862 212.984V239.853H96.3141V235.404C94.8267 238.34 91.9621 240 88.5558 240C83.2305 240 79.209 236.056 79.209 230.405C79.209 224.754 83.2305 220.809 88.5558 220.809C91.9254 220.809 94.7533 222.479 96.2774 225.332V212.984H98.0862ZM96.2774 230.405C96.2774 225.662 93.018 222.442 88.6659 222.442C84.3139 222.442 81.0545 225.662 81.0545 230.405C81.0545 235.147 84.3139 238.367 88.6659 238.367C93.018 238.367 96.2774 235.147 96.2774 230.405Z" fill="#514C4C"/>
<path d="M103.669 230.405C103.669 224.79 107.69 220.809 113.126 220.809C118.561 220.809 122.583 224.79 122.583 230.405C122.583 236.019 118.561 240 113.126 240C107.69 240 103.669 236.019 103.669 230.405ZM120.737 230.405C120.737 225.662 117.478 222.442 113.126 222.442C108.774 222.442 105.514 225.662 105.514 230.405C105.514 235.147 108.774 238.367 113.126 238.367C117.478 238.367 120.737 235.147 120.737 230.405Z" fill="#514C4C"/>
<path d="M168.61 228.808V239.853H166.801V228.955C166.801 224.68 164.588 222.442 160.897 222.442C156.619 222.442 153.974 225.304 153.974 229.79V239.853H152.166V228.955C152.166 224.68 149.953 222.442 146.262 222.442C141.983 222.442 139.339 225.304 139.339 229.79V239.853H137.53V220.956H139.266V225.011C140.496 222.369 143.067 220.809 146.51 220.809C149.953 220.809 152.414 222.369 153.433 225.368C154.663 222.616 157.417 220.809 161.081 220.809C165.644 220.809 168.619 223.524 168.619 228.808H168.61Z" fill="#514C4C"/>
<path d="M189.727 227.872V239.862H187.992V236.496C186.798 238.67 184.475 240.009 181.179 240.009C176.937 240.009 174.366 237.835 174.366 234.615C174.366 231.753 176.175 229.331 181.436 229.331H187.927V227.808C187.927 224.295 186.008 222.414 182.308 222.414C179.701 222.414 177.341 223.396 175.78 224.808L174.871 223.506C176.753 221.836 179.508 220.827 182.446 220.827C187.119 220.827 189.727 223.221 189.727 227.891V227.872ZM187.918 234.276V230.725H181.464C177.552 230.725 176.175 232.358 176.175 234.523C176.175 236.982 178.094 238.505 181.427 238.505C184.76 238.505 186.826 236.982 187.918 234.266V234.276Z" fill="#514C4C"/>
<path d="M197.191 212.984H199V239.853H197.191V212.984Z" fill="#514C4C"/>
</g>
<defs>
<clipPath id="clip0_100_99">
<rect width="199" height="240" fill="white"/>
</clipPath>
</defs>
</svg>
