<svg width="191" height="230" viewBox="0 0 191 230" fill="none" xmlns="http://www.w3.org/2000/svg">
<g clip-path="url(#clip0_100_99)">
<path d="M0.792969 102.824H6.54747L25.0271 153.022L43.6653 102.824H49.3405L27.5386 160.056H22.1895L0.792969 102.824Z" fill="#514C4C"/>
<path d="M56.9541 102.824H62.3032V160.056H56.9541V102.824Z" fill="#514C4C"/>
<path d="M77.293 102.824H95.0411C100.011 102.824 104.224 103.43 107.687 104.644C111.141 105.857 114.023 107.404 116.314 109.294C118.606 111.184 120.421 113.268 121.743 115.562C123.065 117.857 124.034 120.046 124.66 122.147C125.277 124.248 125.673 126.147 125.832 127.844C125.99 129.541 126.078 130.745 126.078 131.44C126.078 132.134 125.999 133.339 125.832 135.035C125.673 136.732 125.277 138.631 124.66 140.732C124.034 142.833 123.065 145.031 121.743 147.317C120.421 149.611 118.606 151.695 116.314 153.585C114.014 155.475 111.141 157.023 107.687 158.236C104.232 159.449 100.011 160.056 95.0411 160.056H77.293V102.824ZM82.6421 155.212H93.6664C97.4469 155.212 100.99 154.737 104.285 153.796C107.581 152.855 110.445 151.414 112.877 149.471C115.31 147.528 117.222 145.066 118.632 142.077C120.033 139.088 120.738 135.545 120.738 131.448C120.738 127.352 120.033 123.809 118.632 120.82C117.231 117.831 115.31 115.36 112.877 113.426C110.445 111.483 107.581 110.041 104.285 109.101C100.99 108.16 97.4469 107.685 93.6664 107.685H82.6421V155.22V155.212Z" fill="#514C4C"/>
<path d="M155.653 102.824H161.161L185.307 160.056H179.315L173.075 144.855H142.69L136.204 160.056H130.617L155.653 102.824ZM158.165 108.644L144.796 140.011H171.137L158.174 108.644H158.165Z" fill="#514C4C"/>
<path d="M4.89966 195.854C5.80734 197.217 6.97939 198.219 8.39819 198.87C9.81698 199.52 11.2798 199.837 12.7868 199.837C13.6239 199.837 14.4876 199.705 15.36 199.441C16.2324 199.177 17.0343 198.782 17.7481 198.263C18.462 197.736 19.0524 197.094 19.5106 196.32C19.9689 195.555 20.198 194.659 20.198 193.648C20.198 192.215 19.7397 191.124 18.8321 190.368C17.9244 189.621 16.7876 188.988 15.4393 188.478C14.091 187.968 12.6193 187.485 11.0243 187.01C9.42924 186.535 7.95757 185.885 6.60927 185.041C5.26097 184.206 4.13299 183.072 3.2165 181.656C2.30882 180.241 1.85057 178.324 1.85057 175.915C1.85057 174.834 2.08851 173.682 2.56438 172.452C3.04025 171.23 3.78049 170.113 4.79392 169.093C5.80734 168.082 7.11158 167.229 8.70662 166.553C10.3017 165.867 12.2228 165.533 14.4611 165.533C16.4968 165.533 18.4355 165.814 20.2949 166.368C22.1543 166.931 23.7846 168.065 25.1858 169.779L21.088 173.507C20.4536 172.531 19.5635 171.739 18.4091 171.15C17.2547 170.553 15.9416 170.262 14.4699 170.262C12.9983 170.262 11.9055 170.447 10.9714 170.816C10.0461 171.186 9.29705 171.652 8.73306 172.232C8.16907 172.812 7.78132 173.427 7.5522 174.096C7.32308 174.764 7.20851 175.37 7.20851 175.933C7.20851 177.507 7.66676 178.711 8.57444 179.555C9.48211 180.39 10.6189 181.076 11.9672 181.603C13.3155 182.131 14.7872 182.597 16.3822 183.019C17.9773 183.441 19.4489 184.021 20.7972 184.777C22.1455 185.533 23.2735 186.544 24.19 187.819C25.0977 189.094 25.5559 190.852 25.5559 193.085C25.5559 194.87 25.2123 196.478 24.5337 197.911C23.8463 199.344 22.9298 200.549 21.7754 201.533C20.621 202.509 19.2551 203.265 17.6776 203.784C16.1002 204.303 14.4171 204.566 12.6281 204.566C10.2488 204.566 7.98401 204.144 5.8514 203.309C3.70999 202.474 2.01801 201.182 0.749023 199.432L4.89966 195.863V195.854Z" fill="#514C4C"/>
<path d="M33.0205 166.491H57.0431V171.212H38.07V182.281H55.7301V187.001H38.07V198.905H57.9949V203.626H33.0293V166.5L33.0205 166.491Z" fill="#514C4C"/>
<path d="M64.7627 166.491H72.2797L84.106 194.597H84.3175L96.038 166.491H103.555V203.617H98.5054V173.102H98.3997L85.8332 203.617H82.4669L69.9004 173.102H69.7946V203.617H64.7451V166.491H64.7627Z" fill="#514C4C"/>
<path d="M118.236 186.465C118.421 186.465 118.562 186.518 118.659 186.632C118.756 186.746 118.8 186.887 118.8 187.045V200.303C118.8 201.788 118.333 202.958 117.39 203.81C116.447 204.663 115.134 205.094 113.442 205.094C112.622 205.094 111.891 204.98 111.239 204.76C110.587 204.54 110.023 204.215 109.547 203.802C109.071 203.38 108.71 202.879 108.454 202.298C108.199 201.709 108.075 201.05 108.075 200.303V169.99C108.075 168.504 108.542 167.335 109.485 166.482C110.428 165.63 111.741 165.199 113.433 165.199C114.235 165.199 114.967 165.313 115.627 165.533C116.288 165.753 116.852 166.078 117.328 166.491C117.804 166.904 118.165 167.405 118.421 167.994C118.677 168.583 118.8 169.243 118.8 169.99V183.608C118.8 183.775 118.756 183.916 118.659 184.03C118.562 184.144 118.43 184.197 118.236 184.197H116.676C116.139 184.197 115.733 184.047 115.46 183.74C115.187 183.432 115.055 183.036 115.055 182.553V169.99C115.055 169.489 114.922 169.085 114.667 168.777C114.402 168.469 113.997 168.32 113.442 168.32C112.887 168.32 112.499 168.469 112.226 168.777C111.953 169.085 111.82 169.489 111.82 169.99V200.303C111.82 200.804 111.953 201.208 112.208 201.516C112.473 201.824 112.878 201.973 113.433 201.973C113.988 201.973 114.376 201.824 114.649 201.516C114.922 201.208 115.055 200.804 115.055 200.303V190.193C114.552 190.193 114.147 190.061 113.839 189.788C113.53 189.516 113.38 189.111 113.38 188.575V187.019C113.38 186.834 113.433 186.694 113.548 186.597C113.662 186.509 113.803 186.456 113.971 186.456H118.245L118.236 186.465Z" fill="#10DF2D"/>
<path d="M129.595 165.656C129.763 165.656 129.904 165.7 130.018 165.796C130.133 165.893 130.186 166.025 130.186 166.21V167.159C130.186 167.643 130.054 168.029 129.798 168.328C129.534 168.627 129.19 168.777 128.767 168.777H125.33V183.792H129.04C129.208 183.792 129.349 183.836 129.463 183.933C129.578 184.03 129.631 184.162 129.631 184.346V185.296C129.631 185.779 129.498 186.166 129.243 186.465C128.979 186.764 128.635 186.913 128.212 186.913H125.339V201.533H128.776C129.208 201.533 129.551 201.683 129.807 201.982C130.071 202.281 130.195 202.667 130.195 203.151V204.1C130.195 204.285 130.142 204.426 130.027 204.514C129.913 204.61 129.772 204.654 129.604 204.654H122.149C121.964 204.654 121.823 204.602 121.726 204.487C121.629 204.373 121.585 204.232 121.585 204.074V166.245C121.585 166.078 121.629 165.937 121.726 165.823C121.823 165.709 121.955 165.656 122.149 165.656H129.604H129.595Z" fill="#10DF2D"/>
<path d="M137.614 165.656C138.416 165.656 139.139 165.77 139.791 166.007C140.443 166.236 140.998 166.561 141.465 166.966C141.932 167.379 142.293 167.88 142.54 168.469C142.787 169.058 142.919 169.726 142.919 170.447V183.652C142.919 184.469 142.752 185.137 142.434 185.656C142.108 186.175 141.659 186.597 141.077 186.913C141.65 187.23 142.108 187.643 142.434 188.153C142.76 188.663 142.919 189.322 142.919 190.113V204.074C142.919 204.241 142.875 204.382 142.778 204.487C142.681 204.602 142.549 204.654 142.355 204.654H140.795C140.258 204.654 139.852 204.505 139.579 204.197C139.306 203.889 139.174 203.494 139.174 203.01V190.113C139.174 189.612 139.05 189.208 138.795 188.9C138.539 188.592 138.125 188.443 137.552 188.443H135.931V203.01C135.931 203.494 135.799 203.889 135.525 204.197C135.252 204.505 134.847 204.654 134.309 204.654H132.75C132.564 204.654 132.423 204.602 132.327 204.487C132.23 204.373 132.186 204.232 132.186 204.074V166.245C132.186 166.078 132.23 165.937 132.327 165.823C132.423 165.709 132.556 165.656 132.75 165.656H137.605H137.614ZM135.931 168.777V185.322H137.552C138.107 185.322 138.522 185.164 138.777 184.847C139.042 184.531 139.165 184.135 139.165 183.652V170.447C139.165 169.964 139.033 169.568 138.76 169.251C138.486 168.935 138.081 168.777 137.543 168.777H135.922H135.931Z" fill="#10DF2D"/>
<path d="M155.926 171.335C156.059 170.051 156.217 169.04 156.402 168.284C156.587 167.528 156.79 166.957 157.019 166.57C157.239 166.183 157.486 165.928 157.742 165.814C158.006 165.7 158.262 165.647 158.526 165.647H160.65C160.835 165.647 160.976 165.7 161.073 165.814C161.17 165.928 161.214 166.069 161.214 166.236V204.065C161.214 204.232 161.17 204.373 161.073 204.478C160.976 204.593 160.844 204.646 160.65 204.646H159.09C158.553 204.646 158.138 204.496 157.865 204.188C157.583 203.881 157.46 203.485 157.477 203.002L158.315 175.704L155.442 203.256C155.407 203.643 155.186 203.977 154.798 204.241C154.411 204.514 153.979 204.646 153.512 204.646H153.459C152.992 204.646 152.569 204.514 152.172 204.241C151.785 203.969 151.564 203.643 151.529 203.256L148.621 175.652L149.458 203.01C149.476 203.494 149.344 203.889 149.07 204.197C148.797 204.505 148.383 204.654 147.845 204.654H146.286C146.101 204.654 145.96 204.602 145.863 204.487C145.766 204.373 145.722 204.232 145.722 204.074V166.245C145.722 166.078 145.766 165.937 145.863 165.823C145.96 165.709 146.092 165.656 146.286 165.656H148.189C148.454 165.656 148.727 165.709 149.009 165.805C149.291 165.902 149.573 166.157 149.837 166.544C150.101 166.931 150.331 167.502 150.551 168.258C150.762 169.014 150.939 170.034 151.071 171.335L153.503 194.905L155.962 171.335H155.926Z" fill="#10DF2D"/>
<path d="M172.573 165.656C172.74 165.656 172.881 165.7 172.996 165.796C173.111 165.893 173.163 166.025 173.163 166.21V167.159C173.163 167.643 173.031 168.029 172.776 168.328C172.511 168.627 172.168 168.777 171.745 168.777H168.308V183.792H172.018C172.185 183.792 172.326 183.836 172.441 183.933C172.555 184.03 172.608 184.162 172.608 184.346V185.296C172.608 185.779 172.476 186.166 172.22 186.465C171.956 186.764 171.612 186.913 171.189 186.913H168.317V201.533H171.753C172.185 201.533 172.529 201.683 172.784 201.982C173.049 202.281 173.172 202.667 173.172 203.151V204.1C173.172 204.285 173.119 204.426 173.005 204.514C172.89 204.61 172.749 204.654 172.582 204.654H165.126C164.941 204.654 164.8 204.602 164.703 204.487C164.607 204.373 164.562 204.232 164.562 204.074V166.245C164.562 166.078 164.607 165.937 164.703 165.823C164.8 165.709 164.933 165.656 165.126 165.656H172.582H172.573Z" fill="#10DF2D"/>
<path d="M183.765 179.107C183.227 179.107 182.822 178.957 182.549 178.65C182.276 178.342 182.144 177.946 182.144 177.463V169.999C182.144 169.498 182.011 169.093 181.738 168.786C181.465 168.478 181.06 168.328 180.522 168.328C179.984 168.328 179.553 168.478 179.297 168.786C179.033 169.093 178.909 169.498 178.909 169.999C178.909 171.687 179.006 173.216 179.2 174.57C179.394 175.924 179.658 177.181 179.993 178.333C180.328 179.485 180.707 180.575 181.121 181.595C181.544 182.614 181.967 183.634 182.39 184.645C182.813 185.656 183.245 186.694 183.659 187.749C184.082 188.804 184.452 189.955 184.787 191.204C185.122 192.443 185.386 193.815 185.58 195.3C185.774 196.786 185.871 198.457 185.871 200.311C185.871 201.05 185.748 201.718 185.492 202.307C185.237 202.896 184.875 203.397 184.4 203.81C183.924 204.224 183.36 204.549 182.699 204.769C182.038 204.989 181.306 205.103 180.504 205.103C178.812 205.103 177.491 204.672 176.556 203.819C175.614 202.966 175.146 201.797 175.146 200.311V191.784C175.146 191.617 175.191 191.476 175.287 191.371C175.384 191.256 175.517 191.204 175.71 191.204H177.27C177.808 191.204 178.213 191.353 178.486 191.661C178.76 191.968 178.892 192.364 178.892 192.848V200.311C178.892 200.813 179.024 201.217 179.297 201.525C179.57 201.832 179.976 201.982 180.513 201.982C181.051 201.982 181.483 201.832 181.738 201.525C182.003 201.217 182.126 200.813 182.126 200.311C182.126 197.938 181.95 195.854 181.606 194.07C181.262 192.285 180.83 190.667 180.311 189.208C179.791 187.749 179.227 186.368 178.636 185.058C178.037 183.749 177.482 182.368 176.962 180.927C176.442 179.476 176.01 177.885 175.666 176.135C175.323 174.386 175.146 172.346 175.146 170.008C175.146 169.269 175.27 168.601 175.525 168.012C175.781 167.423 176.142 166.922 176.618 166.509C177.094 166.087 177.658 165.77 178.31 165.55C178.962 165.331 179.694 165.216 180.513 165.216C182.205 165.216 183.527 165.647 184.461 166.5C185.404 167.353 185.871 168.522 185.871 170.008V178.535C185.871 178.702 185.827 178.843 185.73 178.957C185.633 179.072 185.501 179.124 185.307 179.124H183.747L183.765 179.107Z" fill="#10DF2D"/>
<path d="M6.42397 7.59527C5.71897 6.90955 4.5998 6.91834 3.90362 7.61286C3.21625 8.31617 3.22506 9.43267 3.92124 10.1272L82.9685 87.632C83.3122 87.9748 83.7616 88.1419 84.2198 88.1419C84.6781 88.1419 85.1452 87.966 85.4888 87.6144C86.1762 86.9111 86.1674 85.7946 85.4712 85.1001L6.42397 7.59527Z" fill="#514C4C"/>
<path d="M84.6429 57.9527C84.026 57.7153 83.3827 57.5922 82.7306 57.5922C81.9904 57.5922 81.2678 57.7505 80.5804 58.0494C79.8313 58.3834 79.1792 58.8758 78.6593 59.4912L68.6836 55.6581C69.3974 53.3812 69.7764 51.0075 69.8116 48.6074C69.8645 45.4953 69.3446 42.4447 68.2783 39.5259L78.0512 35.2006C79.0558 36.2819 80.4658 36.8973 81.9551 36.8973C82.6954 36.8973 83.418 36.7479 84.0965 36.4402C85.392 35.8687 86.3878 34.8226 86.8901 33.5038C87.4012 32.1851 87.3659 30.7434 86.7931 29.451C85.9471 27.5433 84.0349 26.3037 81.9375 26.3037C81.1973 26.3037 80.4746 26.4532 79.7961 26.7609C77.7252 27.6752 76.465 29.8291 76.6589 32.0709L66.8859 36.3962C66.4453 35.561 65.9606 34.7522 65.4407 33.9874C65.1234 33.5214 64.5947 33.2401 64.0219 33.2401C63.6782 33.2401 63.3433 33.3456 63.0613 33.539C62.6824 33.794 62.4268 34.1808 62.3387 34.6291C62.2506 35.0775 62.3387 35.5347 62.6031 35.9127C63.3345 36.9852 63.969 38.1369 64.5066 39.3325C67.071 45.0997 67.0093 51.6932 64.3479 57.4164C64.3479 57.434 64.3303 57.4516 64.3215 57.4604C64.3303 57.4252 64.3215 57.4516 64.2158 57.6186C63.7487 58.4362 64.0395 59.4824 64.8591 59.9483C65.1146 60.0978 65.4054 60.1681 65.705 60.1681C65.943 60.1681 66.1809 60.1153 66.4012 60.0186C66.7361 59.8692 67.0093 59.623 67.1943 59.2977C67.3794 58.9637 67.353 59.0516 67.3353 59.0868C67.3442 59.0604 67.3794 58.9901 67.4499 58.8318L77.4255 62.6648C77.3903 63.4649 77.5489 64.2737 77.8838 65.0209C78.4566 66.3133 79.5053 67.3067 80.8271 67.8166C81.444 68.054 82.0873 68.177 82.7394 68.177C83.4797 68.177 84.2023 68.0188 84.8897 67.7199C86.1851 67.1484 87.1809 66.1023 87.692 64.7836C88.2031 63.4649 88.1679 62.0231 87.5862 60.7307C87.0134 59.4384 85.9648 58.445 84.6429 57.9351V57.9527ZM81.1884 29.8906C81.4264 29.7851 81.6819 29.7323 81.9463 29.7323C82.6865 29.7323 83.3651 30.1719 83.6647 30.8489C83.8674 31.306 83.8762 31.8159 83.7 32.2818C83.5149 32.7478 83.1712 33.117 82.713 33.3192C82.4751 33.4247 82.2195 33.4775 81.9551 33.4775C81.2149 33.4775 80.5363 33.0379 80.2367 32.361C79.8137 31.4203 80.2367 30.3038 81.1884 29.8906ZM84.4931 63.5616C84.3168 64.0275 83.9643 64.3968 83.5061 64.599C83.2594 64.7044 83.0038 64.7572 82.7482 64.7572C82.5191 64.7572 82.29 64.7132 82.0697 64.6341C81.6026 64.4583 81.2325 64.1066 81.0298 63.6495C80.8271 63.1923 80.8095 62.6824 80.9946 62.2165C81.1708 61.7505 81.5233 61.3813 81.9816 61.1791C82.2283 61.0736 82.4839 61.0209 82.7394 61.0209C82.9685 61.0209 83.1977 61.0648 83.418 61.1439C83.885 61.3198 84.2552 61.6714 84.4578 62.1286C84.6605 62.5857 84.6782 63.0956 84.4931 63.5616Z" fill="#10DF2D"/>
<path d="M73.2577 46.1543C72.7995 46.1543 72.3677 46.3389 72.0504 46.673C71.7332 46.9983 71.5569 47.4291 71.5657 47.8862C71.5746 48.8181 72.3412 49.5742 73.2754 49.5742L76.3244 49.539C76.5624 49.539 76.7827 49.4862 77.003 49.3895C77.6287 49.1082 78.0252 48.4928 78.0252 47.8071C78.0164 46.8752 77.2497 46.1191 76.3156 46.1191L73.2665 46.1543H73.2577Z" fill="#10DF2D"/>
<path d="M15.7125 50.2162C15.9505 50.2162 16.1708 50.1635 16.3911 50.0668C17.0168 49.7855 17.4221 49.1701 17.4133 48.4843C17.4045 47.5524 16.6378 46.7964 15.7037 46.7964L13.9677 46.814C13.5094 46.814 13.0776 46.9986 12.7604 47.3327C12.4431 47.6579 12.2669 48.0887 12.2757 48.5459C12.2845 49.4778 13.0512 50.2338 13.9853 50.2338L15.7214 50.2162H15.7125Z" fill="#10DF2D"/>
<path d="M44.1594 21.2131H44.177C44.4149 21.2131 44.6352 21.1604 44.8555 21.0637C45.4812 20.7824 45.8778 20.167 45.8778 19.4812L45.7808 10.8569C45.772 9.925 45.0053 9.16895 44.0712 9.16895H44.0536C43.1107 9.17774 42.344 9.95138 42.3616 10.9008L42.4586 19.5252C42.4674 20.4571 43.2341 21.2131 44.1682 21.2131H44.1594Z" fill="#10DF2D"/>
<path d="M44.8115 75.5879H44.7939C44.3356 75.5879 43.9038 75.7725 43.5866 76.1066C43.2693 76.4319 43.0931 76.8626 43.1019 77.3198L43.19 85.5221C43.1988 86.454 43.9655 87.2101 44.8996 87.2101H44.9172C45.1552 87.2101 45.3755 87.1573 45.5958 87.0606C46.2215 86.7793 46.618 86.1639 46.618 85.4782L46.5299 77.2758C46.5211 76.3439 45.7544 75.5879 44.8203 75.5879H44.8115Z" fill="#10DF2D"/>
<path d="M27.8651 16.1058C28.0238 16.1058 28.1736 16.1058 28.3322 16.0882L32.6679 25.8466C32.0246 26.1807 33.0556 25.6356 32.4564 26.0137C32.0686 26.2598 31.8043 26.6379 31.7073 27.0862C31.6104 27.5346 31.6897 27.9917 31.9365 28.3786C32.2537 28.8709 32.7913 29.1698 33.3817 29.1698C33.6196 29.1698 33.8576 29.117 34.0779 29.0203C34.1572 28.9852 34.2365 28.9412 34.307 28.8972C35.2411 28.2994 34.5802 28.6775 35.6024 28.2291C38.4136 26.9807 41.401 26.3565 44.4853 26.3565C48.4861 26.3565 52.3989 27.4467 55.8181 29.5039C56.0824 29.6621 56.3909 29.75 56.6993 29.75C56.9372 29.75 57.1752 29.6973 57.3955 29.6006C57.7215 29.4599 57.9859 29.2225 58.171 28.9236C58.4089 28.5368 58.4794 28.0709 58.3649 27.6313C58.2503 27.1917 57.9771 26.8137 57.5894 26.5763C56.8139 26.1104 56.0031 25.6796 55.1748 25.3016L60.85 10.6112C60.9205 10.6112 60.9909 10.6112 61.0614 10.6112C61.8017 10.6112 62.5243 10.4529 63.2117 10.154C64.5071 9.5826 65.5029 8.53642 66.014 7.21771C67.0627 4.49239 65.6968 1.4242 62.9737 0.378025C62.3569 0.140657 61.7136 0.0175781 61.0614 0.0175781C60.3212 0.0175781 59.5986 0.175823 58.9112 0.47473C57.6158 1.04617 56.62 2.09234 56.1089 3.41105C55.2893 5.52098 55.9326 7.92982 57.6599 9.3716L51.9847 24.062C50.1253 23.4906 48.213 23.1301 46.2919 22.9894C45.6926 22.9455 45.0846 22.9279 44.4853 22.9279C43.0577 22.9279 41.6213 23.051 40.2201 23.2884C38.7308 23.5433 37.2415 23.9389 35.8051 24.4664L31.4694 14.708C33.1173 13.1783 33.6372 10.7431 32.7119 8.67708C31.866 6.76935 29.9537 5.52977 27.8563 5.52977C27.1161 5.52977 26.3935 5.67922 25.7149 5.98692C23.0447 7.17376 21.8286 10.3035 23.0183 12.9761C23.8643 14.8838 25.7766 16.1234 27.8739 16.1234L27.8651 16.1058ZM59.2902 4.62426C59.4664 4.15832 59.8189 3.78908 60.2771 3.58688C60.5239 3.48138 60.7794 3.42863 61.035 3.42863C61.2641 3.42863 61.4933 3.47259 61.7136 3.55171C62.1806 3.72754 62.5507 4.07919 62.7534 4.54514C62.9561 5.00229 62.9737 5.51219 62.7887 5.97813C62.6124 6.44407 62.2599 6.81331 61.8017 7.01551C61.5549 7.12101 61.2994 7.17376 61.0438 7.17376C60.8147 7.17376 60.5856 7.1298 60.3653 7.05068C59.3959 6.68144 58.9112 5.59131 59.2902 4.62426ZM26.1026 10.1365C26.2789 9.67051 26.6314 9.30127 27.0896 9.09907C27.3276 8.99357 27.5831 8.94082 27.8475 8.94082C28.5877 8.94082 29.2663 9.38039 29.5659 10.0573C29.7686 10.5145 29.7774 11.0244 29.6012 11.4903C29.4249 11.9563 29.0724 12.3255 28.6142 12.5277C28.3762 12.6332 28.1207 12.686 27.8563 12.686C27.1161 12.686 26.4375 12.2464 26.1379 11.5694C25.9352 11.1123 25.9264 10.6024 26.1026 10.1365Z" fill="#10DF2D"/>
<path d="M61.1051 80.2739C60.9465 80.2739 60.7967 80.2739 60.6381 80.2915L56.3024 70.5419C56.4962 70.4364 56.2143 70.5858 56.4081 70.4803C56.8047 70.2606 57.0955 69.8913 57.2189 69.4517C57.3422 69.0122 57.2894 68.5462 57.0691 68.1506C56.7694 67.6143 56.1966 67.2715 55.5709 67.2715C55.2801 67.2715 54.9893 67.3506 54.7338 67.4913C54.1433 67.8253 54.0023 67.8781 53.3767 68.1594C50.5655 69.4078 47.5781 70.032 44.4938 70.032C41.3389 70.032 38.281 69.3726 35.417 68.0715C35.1879 67.966 34.9499 67.9133 34.712 67.9133C34.0422 67.9133 33.4254 68.3089 33.1522 68.9155C32.7909 69.7067 33.0905 70.6386 33.8219 71.0869L29.9709 81.0564C29.1514 81.0212 28.3582 81.1794 27.6092 81.5135C26.3138 82.085 25.318 83.1311 24.8068 84.4498C24.2957 85.7685 24.331 87.2103 24.9126 88.5027C25.4854 89.795 26.5341 90.7884 27.8559 91.2983C28.4728 91.5357 29.1161 91.6588 29.7682 91.6588C30.5085 91.6588 31.2311 91.5005 31.9185 91.2016C33.2139 90.6302 34.2097 89.584 34.7208 88.2653C35.5404 86.1554 34.897 83.7465 33.1698 82.3047L37.012 72.3529C39.3297 73.0738 41.7443 73.4518 44.1853 73.487C47.2697 73.5309 50.2923 73.0123 53.1828 71.9485L57.5185 81.6981C55.8706 83.2278 55.3506 85.663 56.2759 87.729C57.1219 89.6368 59.0342 90.8763 61.1316 90.8763C61.8718 90.8763 62.5944 90.7269 63.273 90.4192C64.5684 89.8477 65.5642 88.8016 66.0665 87.4829C66.5776 86.1642 66.5424 84.7224 65.9696 83.43C65.1236 81.5223 63.2113 80.2827 61.1139 80.2827L61.1051 80.2739ZM31.5043 87.0257C31.328 87.4917 30.9755 87.8609 30.5173 88.0631C30.2705 88.1686 30.015 88.2213 29.7594 88.2213C29.5303 88.2213 29.3012 88.1774 29.0809 88.0983C28.6138 87.9224 28.2437 87.5708 28.041 87.1136C27.8383 86.6565 27.8207 86.1466 28.0058 85.6806C28.182 85.2147 28.5345 84.8454 28.9927 84.6432C29.2395 84.5378 29.495 84.485 29.7506 84.485C29.9797 84.485 30.2089 84.529 30.4292 84.6081C31.3985 84.9773 31.8832 86.0675 31.5043 87.0345V87.0257ZM61.8718 87.2807C61.6339 87.3862 61.3783 87.4389 61.1139 87.4389C60.3737 87.4389 59.6951 86.9993 59.3955 86.3224C59.1928 85.8653 59.184 85.3553 59.3603 84.8894C59.5453 84.4235 59.889 84.0542 60.3473 83.852C60.5852 83.7465 60.8408 83.6938 61.1051 83.6938C61.8454 83.6938 62.5239 84.1333 62.8236 84.8103C63.2465 85.751 62.8236 86.8675 61.8718 87.2807Z" fill="#10DF2D"/>
<path d="M22.1105 59.9659C22.4278 60.3615 22.9125 60.5989 23.4412 60.5989C23.6792 60.5989 23.9171 60.5461 24.1374 60.4494C24.1638 60.4406 24.1903 60.423 24.2167 60.4143C24.6221 60.2033 24.9305 59.8516 25.0715 59.4208C25.2125 58.99 25.1773 58.5241 24.9658 58.1197C24.7895 57.7768 24.6221 57.4252 24.4723 57.0823V57.0559C22.0929 51.7284 21.9431 45.803 24.0405 40.3787C24.0405 40.3787 24.0405 40.3611 24.0493 40.3523C24.0493 40.3523 24.0493 40.3347 24.0581 40.326C24.5604 39.0336 24.252 39.5699 24.9922 38.3918C25.2389 38.005 25.3094 37.5479 25.2125 37.0995C25.1068 36.6512 24.8424 36.2731 24.4546 36.0358C24.1815 35.8687 23.8642 35.772 23.547 35.772C22.9477 35.772 22.4102 36.0709 22.0929 36.572C21.5377 37.46 21.9695 36.5896 21.5289 37.5391L16.2855 35.5259C16.3737 33.2841 15.0077 31.1917 12.8928 30.3829C12.2759 30.1455 11.6326 30.0225 10.9805 30.0225C10.2402 30.0225 9.51762 30.1807 8.83026 30.4796C7.53483 31.051 6.53903 32.0972 6.02791 33.4159C4.97924 36.1413 6.34516 39.2094 9.06819 40.2556C9.68506 40.493 10.3284 40.6161 10.9805 40.6161C11.7207 40.6161 12.4433 40.4578 13.1307 40.1589C13.8798 39.8248 14.5319 39.3325 15.0518 38.7171L20.2864 40.7304C19.4756 43.3502 19.0967 46.0579 19.1584 48.8008C19.2201 51.5613 19.74 54.2779 20.6917 56.8713L9.20919 61.9527C8.20457 60.8714 6.79459 60.256 5.30529 60.256C4.56505 60.256 3.84244 60.4055 3.16388 60.7132C1.86846 61.2846 0.872657 62.3308 0.361538 63.6495C-0.149582 64.9682 -0.114332 66.41 0.467286 67.7023C1.31328 69.61 3.22557 70.8496 5.32292 70.8496C6.06316 70.8496 6.78578 70.7002 7.46433 70.3925C9.53525 69.4782 10.7954 67.3243 10.6015 65.0825L22.1105 59.9835V59.9659ZM12.7253 35.983C12.5491 36.449 12.1966 36.8182 11.7383 37.0204C11.4916 37.1259 11.236 37.1786 10.9805 37.1786C10.7514 37.1786 10.5222 37.1347 10.3019 37.0556C9.33256 36.6863 8.84788 35.5962 9.22681 34.6291C9.40306 34.1632 9.75556 33.794 10.2138 33.5918C10.4606 33.4863 10.7161 33.4335 10.9717 33.4335C11.2008 33.4335 11.4299 33.4775 11.6502 33.5566C12.6196 33.9258 13.1043 35.016 12.7253 35.983ZM7.05896 66.2078C6.8739 66.6737 6.53022 67.0429 6.07197 67.2452C5.83404 67.3506 5.57848 67.4034 5.31411 67.4034C4.57387 67.4034 3.89531 66.9638 3.59569 66.2869C3.393 65.8297 3.37538 65.3198 3.56044 64.8539C3.73669 64.388 4.08918 64.0187 4.54743 63.8165C4.78536 63.711 5.04092 63.6583 5.30529 63.6583C6.04554 63.6583 6.72409 64.0978 7.02371 64.7748C7.2264 65.2319 7.23521 65.7418 7.05896 66.2078Z" fill="#10DF2D"/>
<path d="M64.0313 25.0465L55.7653 34.2159C55.4568 34.5587 55.307 34.9895 55.3246 35.4467C55.3511 35.9038 55.5538 36.3258 55.8886 36.6247C56.2059 36.906 56.6112 37.0643 57.0342 37.0643C57.2722 37.0643 57.5101 37.0115 57.7304 36.9148C57.9507 36.8181 58.1446 36.6775 58.312 36.4928L66.4899 27.4201C66.9129 27.6223 67.3624 27.763 67.8294 27.8421C68.1379 27.8949 68.4463 27.9212 68.7547 27.9212C69.495 27.9212 70.2176 27.7718 70.905 27.4641C71.5042 27.2004 72.0418 26.8311 72.5088 26.3564C74.5709 24.2904 74.5621 20.9321 72.4912 18.8661C71.7157 18.1013 70.7463 17.5914 69.6712 17.4068C69.3628 17.354 69.0544 17.3276 68.7459 17.3276C68.0057 17.3276 67.2831 17.4771 66.5957 17.7848C65.9965 18.0485 65.4589 18.4178 64.9918 18.8925C63.3704 20.5189 62.9914 23.0157 64.0313 25.0377V25.0465ZM67.4329 21.3101C67.6003 21.1431 67.7854 21.0112 67.9969 20.9233C68.2348 20.8178 68.4904 20.7651 68.7547 20.7651C69.257 20.7651 69.7417 20.9673 70.0854 21.3101C70.4379 21.6618 70.6406 22.1365 70.6406 22.6376C70.6406 23.1387 70.4467 23.6135 70.0942 23.9651C69.9268 24.1322 69.7417 24.264 69.5302 24.3519C69.2923 24.4574 69.0367 24.5102 68.7724 24.5102C68.2789 24.5102 67.7942 24.3168 67.4505 23.9739H67.4417C66.7103 23.2354 66.7014 22.0486 67.4417 21.3101H67.4329Z" fill="#10DF2D"/>
<path d="M26.6841 71.5618C27.4243 71.5618 28.1469 71.4123 28.8343 71.1046H28.8607V71.087C29.4512 70.8233 29.9799 70.4541 30.4382 69.9969C31.434 68.9947 31.9891 67.6672 31.9803 66.2518C31.9803 65.4166 31.7776 64.5902 31.3987 63.8517L37.8406 56.7571C38.4751 56.0538 38.4222 54.9725 37.7172 54.3395C37.4 54.0581 36.9946 53.8999 36.5716 53.8999C36.0869 53.8999 35.6287 54.1021 35.3026 54.4625L28.9401 61.4781C28.5171 61.2759 28.0676 61.1352 27.6006 61.0561C27.2921 61.0033 26.9837 60.977 26.6753 60.977C25.935 60.977 25.2124 61.1264 24.525 61.4341C23.9258 61.6978 23.3882 62.0671 22.9212 62.5418C21.9166 63.544 21.3702 64.8715 21.379 66.287C21.379 67.7024 21.9342 69.0299 22.9388 70.0233C23.7143 70.7881 24.6837 71.298 25.7588 71.4827C26.0672 71.5354 26.3756 71.5618 26.6841 71.5618ZM24.807 66.2694C24.807 65.7683 25.0009 65.2935 25.3534 64.9419C25.5208 64.7748 25.7059 64.643 25.9174 64.555C26.1553 64.4496 26.4109 64.3968 26.6753 64.3968C27.1776 64.3968 27.6623 64.599 28.0059 64.9419C28.3584 65.2935 28.5611 65.7683 28.5611 66.2694C28.5611 66.7705 28.3672 67.2452 28.0148 67.5969C27.8561 67.7639 27.6623 67.887 27.4596 67.9837H27.4508C27.2128 68.098 26.9573 68.1507 26.6929 68.1507C26.1906 68.1507 25.7059 67.9485 25.3622 67.6057C25.0097 67.254 24.807 66.7793 24.807 66.2782V66.2694Z" fill="#10DF2D"/>
<path d="M59.396 48.7921L56.7964 48.3877C56.7083 48.3701 56.6201 48.3701 56.532 48.3701C55.686 48.3701 54.9722 48.9767 54.84 49.8119C54.6902 50.7438 55.3335 51.6229 56.2676 51.7636L58.8673 52.168C58.9554 52.1856 59.0435 52.1856 59.1317 52.1856C59.3696 52.1856 59.6075 52.1328 59.8278 52.0361C60.3654 51.7988 60.7355 51.3152 60.8236 50.735C60.8941 50.2866 60.7884 49.8295 60.5152 49.4602C60.242 49.091 59.8455 48.8449 59.396 48.7745V48.7921Z" fill="#10DF2D"/>
<path d="M51.685 30.4971C51.0153 30.4971 50.3984 30.8927 50.1252 31.5081L47.8516 36.5631C47.4639 37.4247 47.8516 38.4357 48.7152 38.8225C48.9356 38.9192 49.1735 38.972 49.4202 38.972C49.667 38.972 49.8961 38.9192 50.1164 38.8225C50.5042 38.6555 50.8126 38.3478 50.98 37.961L53.2624 32.9059C53.6502 32.0444 53.2624 31.0333 52.3988 30.6465C52.1785 30.5498 51.9406 30.4971 51.6938 30.4971H51.685Z" fill="#10DF2D"/>
<path d="M32.2097 48.9325L35.3469 49.1787C35.391 49.1787 35.435 49.1787 35.4879 49.1787C35.7258 49.1787 35.9638 49.126 36.1841 49.0292C36.7569 48.7743 37.1446 48.2292 37.1975 47.5963C37.268 46.6556 36.563 45.8292 35.6201 45.7589L32.4829 45.5127C32.4388 45.5127 32.3947 45.5127 32.3419 45.5127C31.4518 45.5127 30.7028 46.2072 30.6323 47.0864C30.597 47.5435 30.738 47.9831 31.0376 48.3347C31.3373 48.6864 31.7514 48.8974 32.2097 48.9325Z" fill="#10DF2D"/>
<path d="M94.1427 204.109V229.859H92.4419V225.595C91.0143 228.409 88.2648 230 84.9954 230C79.8842 230 76.0244 226.22 76.0244 220.804C76.0244 215.389 79.8842 211.608 84.9954 211.608C88.2296 211.608 90.9438 213.208 92.4067 215.943V204.109H94.1427ZM92.4067 220.804C92.4067 216.259 89.2783 213.173 85.1012 213.173C80.9241 213.173 77.7957 216.259 77.7957 220.804C77.7957 225.349 80.9241 228.435 85.1012 228.435C89.2783 228.435 92.4067 225.349 92.4067 220.804Z" fill="#514C4C"/>
<path d="M99.501 220.804C99.501 215.424 103.361 211.608 108.578 211.608C113.795 211.608 117.655 215.424 117.655 220.804C117.655 226.185 113.795 230 108.578 230C103.361 230 99.501 226.185 99.501 220.804ZM115.883 220.804C115.883 216.259 112.755 213.173 108.578 213.173C104.401 213.173 101.272 216.259 101.272 220.804C101.272 225.349 104.401 228.435 108.578 228.435C112.755 228.435 115.883 225.349 115.883 220.804Z" fill="#514C4C"/>
<path d="M161.831 219.274V229.859H160.095V219.415C160.095 215.318 157.971 213.173 154.429 213.173C150.322 213.173 147.784 215.916 147.784 220.215V229.859H146.048V219.415C146.048 215.318 143.924 213.173 140.382 213.173C136.275 213.173 133.737 215.916 133.737 220.215V229.859H132.001V211.749H133.667V215.635C134.847 213.103 137.315 211.608 140.62 211.608C143.924 211.608 146.286 213.103 147.264 215.978C148.445 213.34 151.089 211.608 154.605 211.608C158.985 211.608 161.84 214.211 161.84 219.274H161.831Z" fill="#514C4C"/>
<path d="M182.1 218.378V229.868H180.434V226.642C179.288 228.725 177.059 230.009 173.895 230.009C169.824 230.009 167.356 227.925 167.356 224.839C167.356 222.097 169.092 219.776 174.142 219.776H180.372V218.316C180.372 214.949 178.531 213.147 174.979 213.147C172.476 213.147 170.212 214.088 168.714 215.441L167.841 214.193C169.648 212.593 172.291 211.626 175.111 211.626C179.597 211.626 182.1 213.921 182.1 218.395V218.378ZM180.364 224.514V221.112H174.168C170.414 221.112 169.092 222.677 169.092 224.751C169.092 227.108 170.934 228.567 174.133 228.567C177.332 228.567 179.315 227.108 180.364 224.505V224.514Z" fill="#514C4C"/>
<path d="M189.264 204.109H191V229.859H189.264V204.109Z" fill="#514C4C"/>
</g>
<defs>
<clipPath id="clip0_100_99">
<rect width="191" height="230" fill="white"/>
</clipPath>
</defs>
</svg>
