<svg width="544" height="114" viewBox="0 0 544 114" fill="none" xmlns="http://www.w3.org/2000/svg">
<g clip-path="url(#clip0_62_224)">
<path d="M83.2051 5.94434H90.2142L112.715 66.7813L135.418 5.94434H142.33L115.777 75.3057H109.258L83.2051 5.94434Z" fill="#514C4C"/>
<path d="M151.612 5.94434H158.13V75.3057H151.612V5.94434Z" fill="#514C4C"/>
<path d="M176.385 5.94434H198C204.056 5.94434 209.187 6.68019 213.395 8.1519C217.602 9.6236 221.107 11.4967 223.908 13.7807C226.701 16.0647 228.905 18.5972 230.523 21.3782C232.131 24.1591 233.315 26.8158 234.076 29.3579C234.827 31.9095 235.308 34.203 235.51 36.2672C235.703 38.3219 235.809 39.7745 235.809 40.625C235.809 41.4756 235.712 42.9282 235.51 44.9828C235.318 47.0375 234.836 49.3406 234.076 51.8922C233.315 54.4438 232.131 57.1005 230.523 59.8815C228.905 62.6624 226.71 65.1853 223.908 67.4789C221.107 69.7629 217.602 71.6456 213.395 73.1077C209.187 74.5794 204.046 75.3153 198 75.3153H176.385V5.94434ZM182.893 69.438H196.315C200.917 69.438 205.23 68.8646 209.245 67.7274C213.26 66.5806 216.745 64.8413 219.711 62.4904C222.676 60.1395 225.006 57.1483 226.72 53.5264C228.434 49.9044 229.29 45.604 229.29 40.6441C229.29 35.6843 228.434 31.3839 226.72 27.7619C225.006 24.14 222.676 21.1488 219.711 18.7979C216.745 16.447 213.26 14.6981 209.245 13.5609C205.23 12.4237 200.917 11.8503 196.315 11.8503H182.893V69.4571V69.438Z" fill="#514C4C"/>
<path d="M271.827 5.94434H278.537L307.951 75.3057H300.643L293.047 56.8903H256.037L248.142 75.3057H241.335L271.836 5.94434H271.827ZM274.888 13.0066L258.598 51.0226H290.678L274.888 13.0066Z" fill="#514C4C"/>
<path d="M315.423 41.284C316.53 42.9373 317.955 44.1509 319.678 44.9346C321.411 45.7182 323.192 46.11 325.022 46.11C326.042 46.11 327.092 45.9476 328.16 45.6322C329.229 45.3168 330.202 44.839 331.078 44.1987C331.954 43.568 332.666 42.7843 333.225 41.8478C333.783 40.9208 334.053 39.8314 334.053 38.6081C334.053 36.8689 333.494 35.55 332.387 34.6326C331.28 33.7247 329.903 32.9602 328.257 32.3486C326.61 31.737 324.819 31.1445 322.875 30.5711C320.93 29.9977 319.139 29.2045 317.493 28.1915C315.846 27.1785 314.469 25.8119 313.362 24.0917C312.255 22.3716 311.697 20.0589 311.697 17.1346C311.697 15.8253 311.985 14.4205 312.563 12.9393C313.141 11.458 314.046 10.101 315.288 8.86818C316.53 7.63538 318.118 6.61283 320.054 5.78141C321.999 4.95955 324.328 4.53906 327.063 4.53906C329.537 4.53906 331.906 4.8831 334.168 5.55206C336.431 6.23057 338.414 7.60671 340.118 9.68048L335.121 14.1912C334.351 13.0062 333.263 12.0505 331.858 11.3338C330.452 10.617 328.844 10.2539 327.053 10.2539C325.262 10.2539 323.924 10.4737 322.798 10.9228C321.661 11.372 320.756 11.9358 320.073 12.643C319.389 13.3406 318.908 14.0956 318.629 14.8984C318.349 15.7011 318.215 16.4465 318.215 17.125C318.215 19.0363 318.773 20.4985 319.88 21.5115C320.988 22.5245 322.364 23.3559 324.011 23.9866C325.657 24.6174 327.448 25.1908 329.393 25.7068C331.338 26.2133 333.128 26.9205 334.775 27.8379C336.421 28.7458 337.798 29.9786 338.905 31.5267C340.012 33.0749 340.571 35.206 340.571 37.9105C340.571 40.0703 340.157 42.0198 339.319 43.7591C338.491 45.4984 337.365 46.9606 335.959 48.1456C334.553 49.3306 332.888 50.2385 330.962 50.8787C329.037 51.519 326.995 51.8344 324.819 51.8344C321.912 51.8344 319.158 51.3279 316.559 50.3053C313.95 49.2924 311.889 47.7251 310.349 45.6035L315.403 41.284H315.423Z" fill="#514C4C"/>
<path d="M349.679 5.70508H378.938V11.4199H355.821V24.8277H377.33V30.5521H355.821V44.9825H380.084V50.6973H349.669V5.70508H349.679Z" fill="#514C4C"/>
<path d="M388.345 5.70508H397.501L411.904 39.7646H412.164L426.443 5.70508H435.599V50.6973H429.456V13.7039H429.331L414.032 50.6877H409.931L394.632 13.7039H394.507V50.6877H388.364V5.70508H388.345Z" fill="#514C4C"/>
<path d="M453.468 29.9021C453.69 29.9021 453.863 29.969 453.979 30.1028C454.094 30.2366 454.152 30.4086 454.152 30.6093V46.6834C454.152 48.4801 453.574 49.904 452.438 50.9361C451.293 51.9682 449.685 52.4842 447.624 52.4842C446.623 52.4842 445.728 52.3505 444.938 52.0829C444.149 51.8153 443.455 51.4235 442.878 50.917C442.3 50.4105 441.857 49.7989 441.549 49.0917C441.241 48.3845 441.087 47.5817 441.087 46.6739V9.94807C441.087 8.15144 441.655 6.72752 442.801 5.69541C443.946 4.66331 445.554 4.1377 447.615 4.1377C448.587 4.1377 449.482 4.27149 450.282 4.53907C451.09 4.80665 451.774 5.19847 452.352 5.70497C452.929 6.21147 453.372 6.81353 453.68 7.53027C453.988 8.23745 454.142 9.0402 454.142 9.94807V26.4522C454.142 26.6529 454.085 26.8249 453.969 26.9587C453.854 27.0925 453.69 27.1594 453.459 27.1594H451.553C450.898 27.1594 450.397 26.9778 450.07 26.6051C449.742 26.2324 449.579 25.7546 449.579 25.1716V9.94807C449.579 9.33645 449.415 8.84907 449.107 8.47637C448.789 8.10366 448.289 7.92209 447.615 7.92209C446.941 7.92209 446.459 8.10366 446.132 8.47637C445.805 8.84907 445.641 9.33645 445.641 9.94807V46.6834C445.641 47.295 445.795 47.7824 446.113 48.1551C446.43 48.5278 446.931 48.7094 447.605 48.7094C448.279 48.7094 448.76 48.5278 449.088 48.1551C449.415 47.7824 449.579 47.295 449.579 46.6834V34.4319C448.963 34.4319 448.472 34.2695 448.096 33.9446C447.721 33.6196 447.538 33.1322 447.538 32.4728V30.5807C447.538 30.3513 447.605 30.1888 447.74 30.0742C447.875 29.9595 448.048 29.9021 448.25 29.9021H453.459H453.468Z" fill="#10DF2D"/>
<path d="M467.313 4.68262C467.516 4.68262 467.689 4.73996 467.824 4.85463C467.958 4.96931 468.026 5.13177 468.026 5.36113V6.50792C468.026 7.09087 467.862 7.56869 467.554 7.92229C467.236 8.28543 466.813 8.46701 466.293 8.46701H462.105V26.6627H466.63C466.832 26.6627 467.005 26.72 467.14 26.8347C467.275 26.9494 467.342 27.1118 467.342 27.3412V28.488C467.342 29.0709 467.179 29.5487 466.861 29.9023C466.543 30.2655 466.12 30.4471 465.6 30.4471H462.095V48.1744H466.283C466.803 48.1744 467.227 48.356 467.544 48.7192C467.862 49.0823 468.016 49.5506 468.016 50.1335V51.2803C468.016 51.5097 467.949 51.6721 467.814 51.7868C467.679 51.9015 467.506 51.9588 467.304 51.9588H458.225C457.994 51.9588 457.83 51.8919 457.714 51.7582C457.599 51.6244 457.541 51.4523 457.541 51.2517V5.39936C457.541 5.19867 457.599 5.02665 457.714 4.89286C457.83 4.75907 457.994 4.69217 458.225 4.69217H467.304L467.313 4.68262Z" fill="#10DF2D"/>
<path d="M477.076 4.68262C478.049 4.68262 478.935 4.82597 479.734 5.10311C480.523 5.38024 481.207 5.77206 481.775 6.269C482.343 6.76594 482.776 7.37756 483.084 8.0943C483.392 8.81104 483.546 9.61379 483.546 10.493V26.5002C483.546 27.4941 483.344 28.2968 482.95 28.9276C482.555 29.5583 482.006 30.0648 481.303 30.4471C482.006 30.8293 482.555 31.3263 482.95 31.9474C483.344 32.5686 483.546 33.3618 483.546 34.327V51.2421C483.546 51.4428 483.489 51.6148 483.373 51.7486C483.258 51.8824 483.094 51.9493 482.863 51.9493H480.957C480.302 51.9493 479.801 51.7677 479.474 51.395C479.146 51.0223 478.983 50.5445 478.983 49.9615V34.327C478.983 33.7154 478.829 33.228 478.521 32.8553C478.213 32.4826 477.712 32.301 477.009 32.301H475.035V49.9615C475.035 50.5445 474.872 51.0223 474.544 51.395C474.217 51.7677 473.726 51.9493 473.062 51.9493H471.155C470.924 51.9493 470.761 51.8824 470.645 51.7486C470.529 51.6148 470.472 51.4428 470.472 51.2421V5.39936C470.472 5.19867 470.529 5.02665 470.645 4.89286C470.761 4.75907 470.924 4.69217 471.155 4.69217H477.076V4.68262ZM475.035 8.46701V28.5166H477.009C477.693 28.5166 478.184 28.3255 478.501 27.9432C478.819 27.561 478.973 27.0736 478.973 26.4906V10.493C478.973 9.91005 478.81 9.42266 478.482 9.0404C478.155 8.65814 477.664 8.46701 476.999 8.46701H475.026H475.035Z" fill="#10DF2D"/>
<path d="M499.384 11.5731C499.538 10.0249 499.73 8.79214 499.962 7.87471C500.183 6.96684 500.433 6.26921 500.712 5.80094C500.982 5.32311 501.281 5.02686 501.598 4.89307C501.916 4.75928 502.234 4.69238 502.551 4.69238H505.132C505.353 4.69238 505.526 4.75928 505.642 4.89307C505.758 5.02686 505.815 5.19888 505.815 5.39957V51.2423C505.815 51.443 505.758 51.615 505.642 51.7488C505.526 51.8826 505.363 51.9495 505.132 51.9495H503.225C502.571 51.9495 502.07 51.7679 501.733 51.3952C501.396 51.0225 501.232 50.5447 501.261 49.9617L502.282 16.877L498.777 50.2675C498.729 50.7454 498.469 51.1372 497.997 51.4621C497.526 51.787 496.996 51.9495 496.428 51.9495H496.361C495.793 51.9495 495.273 51.787 494.801 51.4621C494.329 51.1372 494.06 50.7358 494.021 50.2675L490.488 16.8101L491.508 49.9617C491.527 50.5447 491.373 51.0225 491.036 51.3952C490.699 51.7679 490.199 51.9495 489.544 51.9495H487.638C487.407 51.9495 487.243 51.8826 487.127 51.7488C487.012 51.615 486.954 51.443 486.954 51.2423V5.39957C486.954 5.19888 487.012 5.02686 487.127 4.89307C487.243 4.75928 487.407 4.69238 487.638 4.69238H489.948C490.266 4.69238 490.603 4.74972 490.95 4.87396C491.296 4.99819 491.633 5.29445 491.951 5.77227C492.269 6.24054 492.558 6.93817 492.818 7.84604C493.077 8.75391 493.289 10.0058 493.443 11.5731L496.399 40.1376L499.393 11.5731H499.384Z" fill="#10DF2D"/>
<path d="M519.661 4.68262C519.863 4.68262 520.037 4.73996 520.171 4.85463C520.306 4.96931 520.373 5.13177 520.373 5.36113V6.50792C520.373 7.09087 520.21 7.56869 519.902 7.92229C519.584 8.28543 519.16 8.46701 518.64 8.46701H514.452V26.6627H518.977C519.18 26.6627 519.353 26.72 519.488 26.8347C519.623 26.9494 519.69 27.1118 519.69 27.3412V28.488C519.69 29.0709 519.526 29.5487 519.209 29.9023C518.891 30.2655 518.467 30.4471 517.947 30.4471H514.443V48.1744H518.631C519.151 48.1744 519.574 48.356 519.892 48.7192C520.21 49.0823 520.364 49.5506 520.364 50.1335V51.2803C520.364 51.5097 520.296 51.6721 520.162 51.7868C520.027 51.9015 519.854 51.9588 519.651 51.9588H510.572C510.341 51.9588 510.178 51.8919 510.062 51.7582C509.946 51.6244 509.889 51.4523 509.889 51.2517V5.39936C509.889 5.19867 509.946 5.02665 510.062 4.89286C510.178 4.75907 510.341 4.69217 510.572 4.69217H519.651L519.661 4.68262Z" fill="#10DF2D"/>
<path d="M533.304 20.9959C532.649 20.9959 532.148 20.8143 531.821 20.4416C531.494 20.0689 531.33 19.591 531.33 19.0081V9.95805C531.33 9.34643 531.166 8.85905 530.839 8.48634C530.512 8.11364 530.021 7.93206 529.356 7.93206C528.692 7.93206 528.172 8.11364 527.864 8.48634C527.546 8.85905 527.392 9.34643 527.392 9.95805C527.392 12.0031 527.508 13.8476 527.748 15.4913C527.989 17.135 528.307 18.6545 528.721 20.0498C529.125 21.445 529.587 22.7638 530.098 23.9966C530.608 25.239 531.128 26.4718 531.648 27.695C532.168 28.9182 532.687 30.1797 533.198 31.4603C533.708 32.7408 534.17 34.1361 534.575 35.646C534.979 37.156 535.306 38.8093 535.547 40.6059C535.788 42.4025 535.903 44.4285 535.903 46.6838C535.903 47.5822 535.749 48.3849 535.441 49.1017C535.133 49.8088 534.69 50.4205 534.112 50.927C533.535 51.4335 532.841 51.8253 532.042 52.0928C531.234 52.3604 530.348 52.4942 529.375 52.4942C527.315 52.4942 525.707 51.9782 524.561 50.9461C523.416 49.914 522.848 48.49 522.848 46.6934V36.3628C522.848 36.1621 522.905 35.9901 523.021 35.8563C523.136 35.7225 523.3 35.6556 523.531 35.6556H525.438C526.092 35.6556 526.593 35.8372 526.92 36.2099C527.248 36.5826 527.411 37.0604 527.411 37.6434V46.6934C527.411 47.305 527.575 47.7924 527.902 48.1651C528.23 48.5378 528.721 48.7194 529.385 48.7194C530.049 48.7194 530.56 48.5378 530.877 48.1651C531.195 47.7924 531.349 47.305 531.349 46.6934C531.349 43.8073 531.137 41.294 530.723 39.1342C530.3 36.9744 529.78 35.0153 529.144 33.2473C528.509 31.4794 527.825 29.807 527.103 28.2206C526.381 26.6342 525.698 24.9618 525.062 23.2034C524.427 21.445 523.897 19.5146 523.483 17.393C523.06 15.281 522.857 12.8059 522.857 9.96761C522.857 9.06929 523.011 8.26654 523.319 7.5498C523.628 6.84262 524.07 6.231 524.648 5.7245C525.226 5.218 525.909 4.82618 526.708 4.5586C527.508 4.29102 528.393 4.15723 529.395 4.15723C531.455 4.15723 533.063 4.67328 534.209 5.71494C535.354 6.74705 535.922 8.17098 535.922 9.96761V20.2982C535.922 20.4989 535.865 20.6709 535.749 20.8047C535.634 20.9385 535.47 21.0054 535.239 21.0054H533.333L533.304 20.9959Z" fill="#10DF2D"/>
<path d="M311.388 113.13C310.329 112.586 309.511 111.812 308.943 110.799C308.375 109.786 308.096 108.61 308.096 107.253C308.096 105.609 308.452 104.147 309.174 102.876C309.896 101.596 310.907 100.611 312.207 99.9137C313.507 99.2161 315.009 98.8721 316.703 98.8721C318.301 98.8721 319.678 99.2448 320.834 99.9806C321.989 100.726 322.798 101.758 323.26 103.106L318.244 105.141C317.936 104.214 317.348 103.746 316.491 103.746C315.827 103.746 315.288 104.033 314.874 104.606C314.46 105.179 314.258 105.925 314.258 106.861C314.258 107.578 314.402 108.142 314.7 108.562C314.999 108.983 315.413 109.193 315.952 109.193C316.848 109.193 317.512 108.668 317.926 107.616L322.595 109.872C321.931 111.171 320.949 112.184 319.64 112.901C318.33 113.618 316.838 113.971 315.143 113.971C313.699 113.971 312.457 113.704 311.388 113.15V113.13Z" fill="#514C4C"/>
<path d="M336.643 99.6932C337.789 100.247 338.665 101.031 339.271 102.054C339.888 103.076 340.186 104.271 340.186 105.647C340.186 107.291 339.801 108.743 339.04 110.005C338.28 111.266 337.201 112.241 335.825 112.929C334.448 113.617 332.859 113.961 331.059 113.961C329.489 113.961 328.141 113.684 326.996 113.12C325.85 112.556 324.974 111.763 324.348 110.75C323.732 109.728 323.414 108.533 323.414 107.157C323.414 105.513 323.799 104.07 324.56 102.818C325.32 101.566 326.399 100.601 327.785 99.913C329.172 99.2249 330.76 98.8809 332.561 98.8809C334.13 98.8809 335.478 99.158 336.624 99.7123L336.643 99.6932ZM330.288 104.529C329.817 105.131 329.586 105.895 329.586 106.851C329.586 107.606 329.759 108.198 330.096 108.648C330.433 109.097 330.914 109.317 331.53 109.317C332.272 109.317 332.869 109.02 333.341 108.418C333.812 107.816 334.043 107.052 334.043 106.096C334.043 105.341 333.87 104.749 333.533 104.299C333.186 103.85 332.715 103.63 332.098 103.63C331.357 103.63 330.76 103.927 330.288 104.529Z" fill="#514C4C"/>
<path d="M365.998 99.4733C366.72 99.8842 367.279 100.458 367.683 101.184C368.088 101.92 368.29 102.751 368.29 103.678C368.29 104.07 368.242 104.519 368.155 105.016L366.403 113.722H360.327L361.897 105.924C361.935 105.675 361.955 105.484 361.955 105.36C361.955 104.892 361.829 104.538 361.589 104.271C361.348 104.013 361.011 103.879 360.578 103.879C360.039 103.879 359.538 104.099 359.076 104.538C358.614 104.978 358.286 105.532 358.094 106.211L356.582 113.713H350.507L352.076 105.914C352.115 105.666 352.134 105.475 352.134 105.351C352.134 104.882 352.009 104.529 351.768 104.261C351.527 104.003 351.191 103.869 350.757 103.869C350.18 103.869 349.65 104.127 349.149 104.634C348.658 105.14 348.331 105.781 348.187 106.545L346.752 113.703H340.677L343.594 99.0433H349.669L349.323 100.869C350.526 99.5115 351.98 98.833 353.665 98.833C354.762 98.833 355.716 99.1197 356.515 99.6931C357.314 100.266 357.882 101.021 358.2 101.968C359.75 99.8747 361.512 98.833 363.495 98.833C364.448 98.833 365.286 99.0433 366.008 99.4542L365.998 99.4733Z" fill="#514C4C"/>
<path d="M390.973 95.9854C392.359 96.6735 393.399 97.6578 394.092 98.9289C394.786 100.209 395.084 101.691 394.997 103.392C394.892 105.446 394.314 107.253 393.255 108.82C392.205 110.387 390.78 111.591 388.999 112.451C387.218 113.311 385.196 113.741 382.924 113.741H374.259L378.014 94.9629H386.034C387.94 94.9629 389.587 95.3069 390.973 95.995V95.9854ZM387.632 100.773C387.025 100.104 386.197 99.7698 385.138 99.7698H383.299L381.489 108.906H384.05C384.898 108.906 385.658 108.677 386.342 108.227C387.025 107.769 387.565 107.128 387.95 106.297C388.335 105.466 388.527 104.519 388.527 103.468C388.527 102.341 388.229 101.442 387.622 100.773H387.632Z" fill="#514C4C"/>
<path d="M408.323 98.8047L407.62 104.214C407.264 104.156 406.927 104.137 406.619 104.137C405.521 104.137 404.578 104.405 403.798 104.93C403.018 105.456 402.546 106.144 402.383 106.985H402.354L401.006 113.742H394.931L397.877 99.0818H403.952L403.577 100.984C404.876 99.5405 406.455 98.8142 408.323 98.8142V98.8047Z" fill="#514C4C"/>
<path d="M430.775 105.093C431.286 105.8 431.545 106.631 431.545 107.596C431.545 108.81 431.17 109.88 430.429 110.807C429.678 111.734 428.638 112.451 427.309 112.967C425.981 113.474 424.469 113.732 422.774 113.732H412.732L416.507 94.9531H426.086C428.137 94.9531 429.755 95.3258 430.949 96.0617C432.142 96.7975 432.73 97.801 432.73 99.0529C432.73 100.104 432.354 101.06 431.594 101.92C430.833 102.78 429.861 103.372 428.647 103.716C429.543 103.927 430.255 104.395 430.766 105.093H430.775ZM424.479 108.695C424.902 108.371 425.114 107.96 425.114 107.463C425.114 107.109 424.97 106.822 424.671 106.622C424.373 106.421 423.968 106.316 423.439 106.316H420.473L419.905 109.183H422.871C423.516 109.183 424.055 109.02 424.479 108.705V108.695ZM425.518 101.729C425.846 101.423 426 101.041 426 100.572C426 100.238 425.894 99.9703 425.692 99.7792C425.49 99.5881 425.191 99.502 424.816 99.502H421.821L421.282 102.178H424.276C424.777 102.178 425.191 102.025 425.518 101.719V101.729Z" fill="#514C4C"/>
<path d="M435.425 113.14C434.597 112.604 433.952 111.849 433.49 110.884C433.028 109.919 432.797 108.82 432.797 107.587C432.797 105.982 433.134 104.51 433.808 103.182C434.482 101.853 435.396 100.793 436.561 100.018C437.726 99.2444 439.007 98.8525 440.403 98.8525C441.337 98.8525 442.165 99.0341 442.877 99.3973C443.59 99.7604 444.148 100.296 444.562 100.993L444.938 99.0628H451.013L448.067 113.723H441.992L442.29 112.279C441.067 113.388 439.719 113.942 438.237 113.942C437.178 113.942 436.234 113.675 435.406 113.14H435.425ZM442.107 108.973C442.531 108.658 442.868 108.237 443.108 107.711C443.349 107.186 443.474 106.622 443.474 106.01C443.474 105.332 443.301 104.787 442.964 104.386C442.617 103.984 442.165 103.784 441.587 103.784C440.846 103.784 440.22 104.118 439.71 104.787C439.2 105.456 438.94 106.259 438.94 107.186C438.94 107.903 439.094 108.457 439.411 108.849C439.729 109.241 440.172 109.441 440.75 109.441C441.231 109.441 441.693 109.288 442.117 108.973H442.107Z" fill="#514C4C"/>
<path d="M454.778 113.13C453.719 112.586 452.901 111.812 452.333 110.799C451.765 109.786 451.485 108.61 451.485 107.253C451.485 105.609 451.842 104.147 452.564 102.876C453.286 101.596 454.297 100.611 455.597 99.9137C456.896 99.2161 458.398 98.8721 460.093 98.8721C461.691 98.8721 463.068 99.2448 464.223 99.9806C465.379 100.726 466.187 101.758 466.649 103.106L461.633 105.141C461.325 104.214 460.738 103.746 459.881 103.746C459.217 103.746 458.677 104.033 458.263 104.606C457.849 105.179 457.647 105.925 457.647 106.861C457.647 107.578 457.792 108.142 458.09 108.562C458.389 108.983 458.803 109.193 459.342 109.193C460.237 109.193 460.902 108.668 461.316 107.616L465.985 109.872C465.321 111.171 464.339 112.184 463.029 112.901C461.72 113.618 460.228 113.971 458.533 113.971C457.089 113.971 455.847 113.704 454.778 113.15V113.13Z" fill="#514C4C"/>
<path d="M474.545 108.342C474.506 108.552 474.487 108.686 474.487 108.743C474.487 109.173 474.718 109.365 475.19 109.336C475.584 109.336 476.162 109.183 476.913 108.877L477.452 113.187C476.932 113.455 476.278 113.655 475.507 113.789C474.737 113.923 473.967 113.99 473.216 113.99C471.704 113.99 470.51 113.608 469.625 112.853C468.739 112.098 468.306 111.094 468.306 109.862C468.306 109.47 468.344 109.107 468.412 108.763L469.442 103.669H467.42L468.181 99.8654H470.202L471.04 95.7656H477.086L476.249 99.8654H479.705L478.945 103.669H475.488L474.545 108.332V108.342Z" fill="#514C4C"/>
<path d="M492.039 99.7319C493.194 100.296 494.08 101.089 494.696 102.121C495.322 103.153 495.63 104.329 495.63 105.666C495.63 106.326 495.553 107.023 495.389 107.759H485.617C485.819 108.935 486.589 109.527 487.937 109.527C488.967 109.527 489.949 109.164 490.903 108.428L494.032 111.486C492.289 113.111 490.18 113.923 487.716 113.923C486.079 113.923 484.654 113.656 483.441 113.121C482.228 112.585 481.294 111.821 480.63 110.817C479.965 109.814 479.647 108.658 479.647 107.339C479.647 105.733 480.004 104.281 480.716 103C481.429 101.71 482.42 100.707 483.682 99.9899C484.952 99.2636 486.387 98.9004 487.985 98.9004C489.584 98.9004 490.883 99.1776 492.039 99.7414V99.7319ZM489.035 92.832L493.598 94.4375L489.227 97.897L485.395 97.6294L489.035 92.832ZM489.872 104.357C489.872 103.965 489.738 103.631 489.468 103.363C489.198 103.096 488.842 102.962 488.419 102.962C487.947 102.962 487.504 103.144 487.08 103.507C486.657 103.87 486.31 104.357 486.04 104.969H489.738C489.824 104.739 489.872 104.529 489.872 104.348V104.357Z" fill="#514C4C"/>
<path d="M509.475 98.8047L508.772 104.214C508.415 104.156 508.079 104.137 507.77 104.137C506.673 104.137 505.729 104.405 504.949 104.93C504.17 105.456 503.698 106.144 503.534 106.985H503.505L502.157 113.742H496.082L499.028 99.0818H505.103L504.728 100.984C506.028 99.5405 507.607 98.8142 509.475 98.8142V98.8047Z" fill="#514C4C"/>
<path d="M517.648 99.0724L514.702 113.732H508.627L511.573 99.0724H517.648ZM517.908 92.5262C518.37 92.9849 518.602 93.5869 518.602 94.3324C518.602 95.0109 518.438 95.632 518.101 96.1863C517.764 96.7406 517.311 97.1707 516.734 97.486C516.156 97.8014 515.53 97.9543 514.847 97.9543C514.076 97.9543 513.46 97.7249 512.998 97.2662C512.536 96.8075 512.305 96.2054 512.305 95.46C512.305 94.7815 512.468 94.1603 512.805 93.6156C513.142 93.0709 513.595 92.6313 514.173 92.3159C514.75 92.0006 515.376 91.8477 516.06 91.8477C516.83 91.8477 517.446 92.077 517.908 92.5357V92.5262Z" fill="#514C4C"/>
<path d="M520.671 113.14C519.843 112.604 519.198 111.849 518.736 110.884C518.274 109.919 518.043 108.82 518.043 107.587C518.043 105.982 518.38 104.51 519.054 103.182C519.728 101.853 520.642 100.793 521.807 100.018C522.972 99.2444 524.253 98.8525 525.649 98.8525C526.583 98.8525 527.411 99.0341 528.123 99.3973C528.836 99.7604 529.394 100.296 529.808 100.993L530.184 99.0628H536.259L533.313 113.723H527.238L527.536 112.279C526.313 113.388 524.966 113.942 523.483 113.942C522.424 113.942 521.48 113.675 520.652 113.14H520.671ZM527.353 108.973C527.777 108.658 528.114 108.237 528.355 107.711C528.595 107.186 528.72 106.622 528.72 106.01C528.72 105.332 528.547 104.787 528.21 104.386C527.864 103.984 527.411 103.784 526.833 103.784C526.092 103.784 525.466 104.118 524.956 104.787C524.446 105.456 524.186 106.259 524.186 107.186C524.186 107.903 524.34 108.457 524.657 108.849C524.975 109.241 525.418 109.441 525.996 109.441C526.477 109.441 526.939 109.288 527.363 108.973H527.353Z" fill="#514C4C"/>
<path d="M5.25684 6.1826C4.67916 5.61876 3.76451 5.62832 3.19646 6.20171C2.62841 6.7751 2.63803 7.68297 3.21571 8.24681L67.8772 71.3295C68.1564 71.6067 68.5319 71.7405 68.8978 71.7405C69.2636 71.7405 69.6488 71.5971 69.9376 71.3104C70.5056 70.737 70.496 69.8292 69.9183 69.2653L5.25684 6.1826Z" fill="#514C4C"/>
<path d="M69.2447 47.1611C68.7441 46.97 68.2146 46.8744 67.685 46.8744C67.0785 46.8744 66.4911 46.9987 65.9231 47.2471C65.3165 47.5147 64.7774 47.9161 64.3537 48.4226L56.1892 45.2976C56.7669 43.4436 57.0846 41.5132 57.1135 39.5541C57.1616 37.0216 56.738 34.5369 55.8522 32.1669L63.8531 28.6406C64.6715 29.5198 65.8268 30.0263 67.0496 30.0263C67.6561 30.0263 68.2434 29.902 68.8019 29.6535C69.8609 29.1853 70.6697 28.3347 71.0933 27.2644C71.5073 26.1845 71.4784 25.0186 71.0163 23.9674C70.3231 22.4097 68.7633 21.4062 67.0399 21.4062C66.4334 21.4062 65.8461 21.5305 65.2876 21.779C63.5931 22.5244 62.5629 24.2828 62.7266 26.0985L54.7258 29.6249C54.3695 28.9464 53.9652 28.287 53.5415 27.6658C53.2816 27.2835 52.8483 27.0542 52.3765 27.0542C52.0973 27.0542 51.8277 27.1402 51.587 27.2931C51.2789 27.5033 51.0671 27.8187 50.9997 28.1818C50.9323 28.545 50.9997 28.9177 51.2115 29.2235C51.8085 30.0931 52.3284 31.0297 52.7617 32.0045C54.8606 36.6967 54.8124 42.0675 52.6269 46.7215C52.6269 46.7311 52.6172 46.7502 52.6076 46.7598C52.6076 46.7311 52.6076 46.7502 52.521 46.8936C52.1358 47.5625 52.3765 48.413 53.0505 48.7953C53.2623 48.91 53.503 48.9769 53.7437 48.9769C53.9459 48.9769 54.1288 48.9387 54.3118 48.8526C54.591 48.7284 54.8124 48.5277 54.9568 48.2697C55.1109 48.0021 55.0916 48.069 55.0724 48.0977C55.0724 48.0786 55.1109 48.0212 55.1686 47.897L63.3332 51.022C63.3043 51.6718 63.4391 52.3312 63.7087 52.9333C64.1804 53.9845 65.0373 54.7968 66.1157 55.2077C66.6163 55.3989 67.1458 55.4944 67.6754 55.4944C68.282 55.4944 68.8693 55.3702 69.4373 55.1217C70.4964 54.6535 71.3148 53.8029 71.7288 52.7326C72.1428 51.6623 72.1139 50.4868 71.6421 49.4356C71.1703 48.3844 70.3135 47.5721 69.2351 47.1611H69.2447ZM66.4141 24.321C66.6163 24.235 66.8185 24.1872 67.0303 24.1872C67.6369 24.1872 68.1953 24.5408 68.436 25.0951C68.5997 25.4678 68.6093 25.8787 68.4649 26.261C68.3205 26.6432 68.0316 26.9395 67.6561 27.1115C67.4539 27.1975 67.2518 27.2453 67.0399 27.2453C66.4334 27.2453 65.875 26.8917 65.6343 26.3374C65.2876 25.5729 65.6343 24.665 66.4141 24.321ZM69.11 51.7292C68.9655 52.1114 68.6767 52.4077 68.3012 52.5797C68.099 52.6657 67.8968 52.7135 67.6754 52.7135C67.4828 52.7135 67.2999 52.6753 67.1266 52.6084C66.7415 52.465 66.443 52.1783 66.2697 51.8056C66.106 51.4329 66.0964 51.022 66.2408 50.6397C66.3852 50.2575 66.6741 49.9612 67.0496 49.7892C67.2518 49.7032 67.4539 49.6554 67.6754 49.6554C67.8679 49.6554 68.0509 49.6936 68.2242 49.7605C68.6093 49.9039 68.9078 50.1906 69.0811 50.5633C69.2447 50.936 69.2544 51.3469 69.11 51.7292Z" fill="#10DF2D"/>
<path d="M59.925 37.5668C59.5495 37.5668 59.2029 37.7197 58.9333 37.9872C58.6733 38.2548 58.5289 38.6084 58.5385 38.9716C58.5385 39.7265 59.174 40.3477 59.9442 40.3477L62.4379 40.319C62.6304 40.319 62.8134 40.2808 62.9867 40.2044C63.4969 39.975 63.8243 39.4685 63.8243 38.9142C63.8243 38.1593 63.1889 37.5381 62.4186 37.5381L59.925 37.5668Z" fill="#10DF2D"/>
<path d="M12.8538 40.8728C13.0464 40.8728 13.2293 40.8345 13.4026 40.7581C13.9129 40.5287 14.2402 40.0222 14.2402 39.4679C14.2402 38.713 13.6048 38.0918 12.8346 38.0918L11.4192 38.1109C11.0438 38.1109 10.6971 38.2638 10.4372 38.5314C10.1772 38.799 10.0328 39.1526 10.0424 39.5157C10.0424 40.2707 10.6779 40.8919 11.4481 40.8919L12.8634 40.8728H12.8538Z" fill="#10DF2D"/>
<path d="M36.1244 17.2593H36.1437C36.3362 17.2593 36.5192 17.2211 36.6925 17.1446C37.2028 16.9153 37.5301 16.4088 37.5301 15.8545L37.4531 8.84001C37.4531 8.08504 36.8176 7.46387 36.0474 7.46387H36.0281C35.2579 7.46387 34.6321 8.10416 34.6417 8.86868L34.7187 15.8832C34.7187 16.6381 35.3542 17.2593 36.1244 17.2593Z" fill="#10DF2D"/>
<path d="M36.6533 61.5244H36.6341C36.2586 61.5244 35.912 61.6773 35.652 61.9449C35.3921 62.2125 35.2477 62.5661 35.2573 62.9292L35.3343 69.5997C35.3343 70.3547 35.9698 70.9758 36.74 70.9758H36.7593C36.9518 70.9758 37.1347 70.9376 37.308 70.8612C37.8183 70.6318 38.1457 70.1253 38.1457 69.571L38.0687 62.9006C38.0687 62.1456 37.4332 61.5244 36.663 61.5244H36.6533Z" fill="#10DF2D"/>
<path d="M22.7897 13.1016C22.9148 13.1016 23.04 13.1016 23.1652 13.0825L26.7179 21.024C26.198 21.3011 27.0356 20.852 26.5446 21.1578C26.2268 21.3585 26.015 21.6643 25.9284 22.0274C25.8514 22.3906 25.9188 22.7633 26.1209 23.0786C26.3809 23.48 26.8238 23.7189 27.3052 23.7189C27.4977 23.7189 27.6903 23.6807 27.8732 23.6042C27.9406 23.5756 27.9984 23.5373 28.0658 23.4991C28.8264 23.0117 28.2872 23.3175 29.1249 22.9544C31.426 21.9414 33.8715 21.4254 36.3844 21.4254C39.6579 21.4254 42.864 22.3141 45.6561 23.9865C45.8776 24.1203 46.1279 24.1872 46.3782 24.1872C46.5804 24.1872 46.7633 24.149 46.9463 24.063C47.2062 23.9483 47.4277 23.7571 47.5817 23.5087C47.7743 23.1933 47.832 22.8206 47.7454 22.4575C47.6587 22.0943 47.4277 21.7885 47.1099 21.5974C46.4745 21.2151 45.8102 20.8711 45.1362 20.5557L49.7769 8.60047C49.8347 8.60047 49.8924 8.60047 49.9502 8.60047C50.5568 8.60047 51.1441 8.47623 51.7121 8.22777C52.7712 7.75949 53.5896 6.90896 54.0036 5.83863C54.8605 3.62151 53.7436 1.12725 51.5099 0.267165C51.0093 0.0760342 50.4797 -0.0195312 49.9502 -0.0195312C49.3436 -0.0195312 48.7563 0.104704 48.1883 0.353174C47.1292 0.821444 46.3108 1.67198 45.8968 2.74231C45.2325 4.46249 45.7524 6.42158 47.1581 7.59703L42.5174 19.5523C40.9962 19.084 39.4364 18.7877 37.8574 18.6826C37.3664 18.6444 36.8754 18.6348 36.3844 18.6348C35.2194 18.6348 34.0448 18.7304 32.899 18.9311C31.6763 19.1413 30.4632 19.4567 29.2885 19.8867L25.7358 11.9453C27.0837 10.7029 27.5074 8.71515 26.7564 7.0332C26.0632 5.47548 24.5034 4.47204 22.78 4.47204C22.1735 4.47204 21.5862 4.59628 21.0277 4.84475C18.8422 5.80996 17.8505 8.36156 18.8229 10.5309C19.5161 12.0886 21.0759 13.092 22.7993 13.092L22.7897 13.1016ZM48.506 3.76486C48.6504 3.3826 48.9393 3.08634 49.3147 2.91433C49.5169 2.82832 49.7191 2.78054 49.9406 2.78054C50.1331 2.78054 50.316 2.81876 50.4894 2.88566C50.8745 3.02901 51.1729 3.3157 51.3366 3.68841C51.5003 4.06111 51.5099 4.47204 51.3655 4.85431C51.2211 5.23657 50.9322 5.53282 50.5567 5.70484C50.3546 5.79085 50.1524 5.83863 49.9309 5.83863C49.7384 5.83863 49.5554 5.8004 49.3821 5.73351C48.5926 5.4277 48.1979 4.5485 48.4964 3.76486H48.506ZM21.3551 8.24688C21.4995 7.86462 21.7884 7.56836 22.1638 7.39635C22.366 7.31034 22.5682 7.26255 22.78 7.26255C23.3866 7.26255 23.945 7.61615 24.1857 8.17043C24.3494 8.54313 24.359 8.95406 24.2146 9.33632C24.0702 9.71859 23.7813 10.0148 23.4058 10.1869C23.2037 10.2729 23.0015 10.3206 22.7897 10.3206C22.1831 10.3206 21.6247 9.96706 21.384 9.41278C21.2203 9.04007 21.2107 8.62914 21.3551 8.24688Z" fill="#10DF2D"/>
<path d="M49.9887 65.3377C49.8635 65.3377 49.7383 65.3377 49.6132 65.3568L46.0604 57.4153C46.2241 57.3293 45.993 57.4535 46.1471 57.3675C46.4744 57.1859 46.7055 56.8897 46.8114 56.5265C46.9173 56.1729 46.8692 55.7907 46.6863 55.4658C46.4359 55.0262 45.9738 54.749 45.4635 54.749C45.2228 54.749 44.9917 54.8064 44.7799 54.9306C44.2985 55.1982 44.183 55.246 43.6631 55.4753C41.362 56.4883 38.9165 57.0044 36.394 57.0044C33.8137 57.0044 31.3104 56.4692 28.9612 55.4084C28.7782 55.3224 28.5857 55.2842 28.3835 55.2842C27.8347 55.2842 27.334 55.5996 27.103 56.0965C26.8045 56.7463 27.0548 57.5013 27.6517 57.8645L24.5034 65.978C23.8391 65.9493 23.1844 66.0735 22.5778 66.3507C21.5187 66.8189 20.7003 67.6695 20.2863 68.7398C19.8723 69.8101 19.9012 70.9856 20.373 72.0368C20.8448 73.088 21.7017 73.9003 22.78 74.3113C23.2806 74.5024 23.8102 74.598 24.3397 74.598C24.9463 74.598 25.5336 74.4737 26.1016 74.2253C27.1607 73.757 27.9791 72.9065 28.3931 71.8361C29.0574 70.1159 28.5375 68.1569 27.1318 66.9814L30.2802 58.8775C32.1769 59.4604 34.1506 59.7758 36.1533 59.7949C38.6758 59.8235 41.1502 59.4031 43.509 58.543L47.0618 66.4845C45.7138 67.7268 45.2902 69.7146 46.0412 71.3965C46.7344 72.9542 48.2941 73.9577 50.0175 73.9577C50.6241 73.9577 51.2114 73.8334 51.7698 73.585C52.8289 73.1167 53.6377 72.2662 54.0613 71.1958C54.4753 70.1159 54.4464 68.9501 53.9843 67.8988C53.291 66.3411 51.7313 65.3377 50.0079 65.3377H49.9887ZM25.7647 70.8327C25.6202 71.215 25.3314 71.5112 24.9559 71.6832C24.7537 71.7692 24.5515 71.817 24.3301 71.817C24.1375 71.817 23.9546 71.7788 23.7813 71.7119C23.3962 71.5685 23.0977 71.2818 22.9244 70.9091C22.7607 70.5364 22.7511 70.1255 22.8955 69.7432C23.0399 69.361 23.3288 69.0647 23.7043 68.8927C23.9065 68.8067 24.1087 68.7589 24.3301 68.7589C24.5227 68.7589 24.7056 68.7971 24.8789 68.864C25.6684 69.1698 26.0631 70.0491 25.7647 70.8327ZM50.6145 71.0334C50.4123 71.1194 50.2101 71.1672 49.9983 71.1672C49.3917 71.1672 48.8333 70.8136 48.5926 70.2593C48.4289 69.8866 48.4193 69.4757 48.5637 69.0934C48.7081 68.7111 48.997 68.4149 49.3725 68.2429C49.5747 68.1569 49.7768 68.1091 49.9887 68.1091C50.5952 68.1091 51.1536 68.4627 51.3943 69.0169C51.7409 69.7815 51.3943 70.6893 50.6145 71.0334Z" fill="#10DF2D"/>
<path d="M18.0812 48.8047C18.3412 49.1297 18.7359 49.3208 19.1692 49.3208C19.3617 49.3208 19.5543 49.2826 19.7372 49.1966C19.7565 49.187 19.7854 49.1774 19.8046 49.1679C20.1416 48.9959 20.3823 48.7092 20.4979 48.3556C20.6134 48.002 20.5845 47.6293 20.4112 47.2948C20.2668 47.0177 20.132 46.731 20.0068 46.4443V46.4252C18.062 42.096 17.9368 37.27 19.6506 32.8453C19.6506 32.8453 19.6506 32.8357 19.6506 32.8262C19.6506 32.8262 19.6506 32.8166 19.6506 32.8071C20.0646 31.7559 19.8046 32.1955 20.4112 31.2398C20.6134 30.9244 20.6712 30.5517 20.5845 30.1886C20.4978 29.8254 20.2764 29.5196 19.9587 29.3189C19.7372 29.1756 19.4773 29.1087 19.2173 29.1087C18.7263 29.1087 18.2834 29.3572 18.0235 29.7585C17.5709 30.4753 17.9272 29.7777 17.5613 30.5422L13.2769 28.908C13.3443 27.0827 12.2274 25.3816 10.504 24.7222C10.0034 24.5311 9.47382 24.4355 8.94428 24.4355C8.33771 24.4355 7.75041 24.5598 7.18236 24.8083C6.12328 25.2765 5.3049 26.1271 4.8909 27.1974C4.03401 29.4145 5.15085 31.9088 7.38454 32.7689C7.8852 32.96 8.41474 33.0556 8.94428 33.0556C9.55084 33.0556 10.1381 32.9313 10.7062 32.6828C11.3128 32.4153 11.8519 32.0139 12.2756 31.5074L16.56 33.1416C15.8957 35.2727 15.5876 37.4802 15.6357 39.7069C15.6935 41.9527 16.1075 44.1603 16.8874 46.2722L7.49045 50.4102C6.67207 49.531 5.51672 49.0245 4.29396 49.0245C3.6874 49.0245 3.10009 49.1488 2.54167 49.3972C1.48259 49.8655 0.664216 50.716 0.250213 51.7864C-0.16379 52.8567 -0.134906 54.0322 0.336865 55.0834C1.03008 56.6411 2.58981 57.6445 4.31322 57.6445C4.91978 57.6445 5.50709 57.5203 6.06551 57.2718C7.76004 56.5264 8.79023 54.768 8.62655 52.9523L18.0427 48.8047H18.0812ZM10.4077 29.2903C10.2633 29.6725 9.97447 29.9688 9.59898 30.1408C9.39679 30.2268 9.1946 30.2746 8.97316 30.2746C8.7806 30.2746 8.59767 30.2364 8.42437 30.1695C7.63487 29.8637 7.24012 28.9845 7.53859 28.2008C7.68301 27.8186 7.97185 27.5223 8.34734 27.3503C8.54953 27.2643 8.75172 27.2165 8.97316 27.2165C9.16572 27.2165 9.34865 27.2547 9.52196 27.3216C10.3115 27.6274 10.7062 28.5066 10.4077 29.2903ZM5.77667 53.8888C5.63225 54.2711 5.34341 54.5673 4.96792 54.7393C4.76573 54.8254 4.56355 54.8731 4.35173 54.8731C3.74517 54.8731 3.18675 54.5196 2.94605 53.9653C2.78237 53.5926 2.77274 53.1816 2.91716 52.7994C3.06158 52.4171 3.35042 52.1209 3.72591 51.9488C3.9281 51.8628 4.13029 51.815 4.3421 51.815C4.94867 51.815 5.50709 52.1686 5.74779 52.7229C5.91146 53.0956 5.92109 53.5066 5.77667 53.8888Z" fill="#10DF2D"/>
<path d="M52.3856 20.3839L45.6267 27.8476C45.3764 28.1247 45.2512 28.4783 45.2705 28.851C45.2897 29.2237 45.4534 29.5677 45.7326 29.8162C45.9926 30.0456 46.3199 30.1698 46.6665 30.1698C46.8687 30.1698 47.0517 30.1316 47.2346 30.0456C47.4175 29.9691 47.5716 29.8544 47.7064 29.7015L54.3978 22.3143C54.7444 22.4768 55.1103 22.5915 55.4954 22.6584C55.7457 22.7061 56.0057 22.7253 56.256 22.7253C56.8626 22.7253 57.4595 22.601 58.0179 22.3526C58.509 22.1328 58.9518 21.8365 59.3273 21.4542C61.0122 19.7723 61.0122 17.0391 59.3177 15.3572C58.6823 14.736 57.8831 14.3251 57.007 14.1626C56.7567 14.1148 56.4967 14.0957 56.2464 14.0957C55.6398 14.0957 55.0429 14.2199 54.4845 14.4684C53.9934 14.6882 53.5505 14.9845 53.1751 15.3667C51.8464 16.6951 51.5383 18.7211 52.3856 20.3744V20.3839ZM55.1584 17.3449C55.2932 17.2111 55.4473 17.106 55.6206 17.0296C55.8131 16.9436 56.0249 16.8958 56.2368 16.8958C56.6411 16.8958 57.0455 17.0582 57.3247 17.3354C57.6136 17.6221 57.7772 18.0043 57.7772 18.4153C57.7772 18.8262 57.6232 19.2085 57.3343 19.4952C57.1995 19.6289 57.0455 19.7341 56.8722 19.8105C56.6796 19.8965 56.4678 19.9443 56.256 19.9443C55.8516 19.9443 55.4569 19.7818 55.1777 19.5143C54.5807 18.9122 54.5711 17.947 55.1777 17.3449H55.1584Z" fill="#10DF2D"/>
<path d="M21.8266 58.2373C22.4332 58.2373 23.0301 58.1131 23.5885 57.8646H23.6078V57.855C24.0892 57.6352 24.5224 57.339 24.8979 56.9663C25.7163 56.154 26.1688 55.0645 26.1592 53.9177C26.1592 53.2392 25.9955 52.5703 25.6874 51.9682L30.9539 46.1961C31.4738 45.6227 31.4257 44.7435 30.8576 44.2274C30.5977 43.998 30.2607 43.8643 29.9141 43.8643C29.5194 43.8643 29.1439 44.0267 28.8743 44.323L23.6655 50.0282C23.3189 49.8658 22.9531 49.7511 22.568 49.6842C22.3176 49.6364 22.0577 49.6173 21.8073 49.6173C21.2008 49.6173 20.6039 49.7415 20.0454 49.99C19.5544 50.2098 19.1115 50.5061 18.736 50.8883C17.9176 51.7006 17.4651 52.7901 17.4748 53.9369C17.4748 55.0836 17.9273 56.1731 18.7553 56.9854C19.3907 57.6066 20.1898 58.0175 21.066 58.18C21.3163 58.2277 21.5763 58.2469 21.8266 58.2469V58.2373ZM20.2861 53.9369C20.2861 53.5259 20.4402 53.1437 20.7386 52.857C20.8734 52.7232 21.0275 52.618 21.2008 52.5416C21.3933 52.4556 21.6052 52.4078 21.817 52.4078C22.2214 52.4078 22.6257 52.5703 22.9049 52.8474C23.1938 53.1341 23.3575 53.5164 23.3575 53.9273C23.3575 54.3382 23.2034 54.7205 22.9049 55.0072C22.7701 55.141 22.6161 55.2461 22.4524 55.3226H22.4428C22.2502 55.4086 22.0384 55.4563 21.8266 55.4563C21.4222 55.4563 21.0179 55.2939 20.7386 55.0167C20.4498 54.73 20.2861 54.3478 20.2861 53.9369Z" fill="#10DF2D"/>
<path d="M48.5828 39.7071L46.455 39.3726C46.378 39.3631 46.3106 39.3535 46.2335 39.3535C45.5403 39.3535 44.953 39.8505 44.8471 40.529C44.7316 41.2839 45.2515 42.0007 46.0121 42.1154L48.1399 42.4498C48.2169 42.4594 48.2843 42.4689 48.3613 42.4689C48.5539 42.4689 48.7464 42.4307 48.9294 42.3543C49.3626 42.1631 49.6707 41.7618 49.7478 41.2935C49.8055 40.9303 49.7189 40.5576 49.4974 40.2614C49.276 39.9651 48.9486 39.7644 48.5828 39.7071Z" fill="#10DF2D"/>
<path d="M42.2766 24.8184C41.7278 24.8184 41.2272 25.1433 40.9961 25.6402L39.1283 29.7591C38.8105 30.4567 39.1283 31.2881 39.8311 31.6035C40.014 31.6895 40.2066 31.7277 40.4088 31.7277C40.611 31.7277 40.7939 31.6895 40.9768 31.6035C41.2946 31.4602 41.5449 31.2117 41.6893 30.9059L43.5571 26.787C43.8749 26.0894 43.5571 25.258 42.8543 24.9426C42.6714 24.8566 42.4788 24.8184 42.2766 24.8184Z" fill="#10DF2D"/>
<path d="M26.3424 39.8317L28.9034 40.0324C28.9034 40.0324 28.9804 40.0324 29.0189 40.0324C29.2115 40.0324 29.404 39.9942 29.587 39.9177C30.0588 39.7075 30.3765 39.2679 30.415 38.7518C30.4728 37.9873 29.8951 37.3184 29.1248 37.2515L26.5638 37.0508C26.5638 37.0508 26.4868 37.0508 26.4483 37.0508C25.7262 37.0508 25.11 37.6146 25.0522 38.3314C25.0233 38.7041 25.1389 39.0577 25.3796 39.3443C25.6203 39.631 25.9669 39.8031 26.3327 39.8317H26.3424Z" fill="#10DF2D"/>
<path d="M426.018 49.1592V80.3613H423.939V75.1912C422.206 78.5933 418.855 80.5333 414.869 80.5333C408.64 80.5333 403.941 75.9462 403.941 69.3904C403.941 62.8346 408.64 58.2475 414.869 58.2475C418.807 58.2475 422.119 60.1779 423.891 63.5035V49.1592H426.009H426.018ZM423.9 69.3904C423.9 63.8858 420.088 60.1396 415.004 60.1396C409.92 60.1396 406.108 63.8858 406.108 69.3904C406.108 74.895 409.92 78.6411 415.004 78.6411C420.088 78.6411 423.9 74.895 423.9 69.3904Z" fill="#514C4C"/>
<path d="M432.536 69.39C432.536 62.8724 437.235 58.2471 443.599 58.2471C449.963 58.2471 454.661 62.8724 454.661 69.39C454.661 75.9076 449.963 80.5329 443.599 80.5329C437.235 80.5329 432.536 75.9076 432.536 69.39ZM452.495 69.39C452.495 63.8854 448.682 60.1393 443.599 60.1393C438.515 60.1393 434.702 63.8854 434.702 69.39C434.702 74.8946 438.515 78.6407 443.599 78.6407C448.682 78.6407 452.495 74.8946 452.495 69.39Z" fill="#514C4C"/>
<path d="M508.463 67.5366V80.3615H506.344V67.699C506.344 62.7392 503.764 60.1303 499.441 60.1303C494.444 60.1303 491.344 63.4559 491.344 68.6643V80.3519H489.226V67.6895C489.226 62.7296 486.646 60.1207 482.323 60.1207C477.326 60.1207 474.226 63.4464 474.226 68.6547V80.3424H472.107V58.391H474.139V63.1024C475.583 60.0347 478.587 58.2285 482.612 58.2285C486.636 58.2285 489.515 60.0347 490.709 63.5228C492.153 60.331 495.369 58.2285 499.653 58.2285C504.987 58.2285 508.463 61.3822 508.463 67.527V67.5366Z" fill="#514C4C"/>
<path d="M533.149 66.4466V80.3705H531.117V76.4618C529.721 78.9848 527.006 80.5425 523.155 80.5425C518.196 80.5425 515.192 78.0196 515.192 74.2734C515.192 70.9477 517.311 68.1381 523.453 68.1381H531.04V66.3701C531.04 62.2895 528.797 60.101 524.474 60.101C521.422 60.101 518.668 61.2383 516.848 62.8724L515.789 61.3625C517.994 59.4321 521.21 58.2471 524.647 58.2471C530.116 58.2471 533.168 61.0185 533.168 66.4466H533.149ZM531.03 73.8911V69.7723H523.492C518.918 69.7723 517.311 71.6645 517.311 74.1874C517.311 77.0448 519.554 78.8127 523.453 78.8127C527.353 78.8127 529.769 77.0448 531.04 73.8911H531.03Z" fill="#514C4C"/>
<path d="M541.882 49.1592H544V80.3613H541.882V49.1592Z" fill="#514C4C"/>
</g>
<defs>
<clipPath id="clip0_62_224">
<rect width="544" height="114" fill="white"/>
</clipPath>
</defs>
</svg>
