<svg width="175" height="176" viewBox="0 0 175 176" fill="none" xmlns="http://www.w3.org/2000/svg">
<path d="M140.69 22.6661L141.99 28.236C143.045 32.7471 146.396 36.3789 150.81 37.7963L156.263 39.5464C162.923 41.6811 166.763 48.6441 165.006 55.3917L163.566 60.9195C162.402 65.395 163.683 70.1625 166.94 73.4636L170.964 77.5402C175.876 82.5201 176.045 90.4515 171.347 95.6037L167.498 99.8214C164.381 103.237 163.302 108.045 164.654 112.477L166.325 117.949C168.367 124.63 164.822 131.721 158.257 134.094L152.879 136.036C148.525 137.611 145.329 141.357 144.467 145.902L143.403 151.514C142.103 158.366 135.659 162.991 128.735 162.039L123.063 161.261C118.469 160.631 113.891 162.46 111.009 166.079L107.453 170.546C103.11 176 95.2453 177.098 89.5431 173.044L84.8723 169.723C81.0905 167.034 76.1782 166.526 71.9383 168.389L66.7049 170.688C60.3163 173.494 52.8281 170.815 49.6594 164.584L47.0627 159.483C44.9604 155.352 40.837 152.623 36.213 152.301L30.5023 151.904C23.5292 151.421 18.1376 145.575 18.224 138.598L18.2956 132.882C18.3524 128.254 15.9673 123.928 12.0147 121.497L7.13312 118.495C1.17297 114.83 -0.889116 107.162 2.43473 101.033L5.15822 96.0147C7.36386 91.9524 7.25811 87.0193 4.8838 83.0359L1.95122 78.1186C-1.62823 72.1138 0.109069 64.3784 5.90944 60.5047L10.659 57.3328C14.5065 54.7638 16.7104 50.357 16.4543 45.7349L16.1416 40.0253C15.7604 33.0547 20.9013 27.0235 27.851 26.2909L33.5403 25.691C38.1484 25.2044 42.1527 22.3326 44.0795 18.1291L46.458 12.9378C49.3626 6.59873 56.7315 3.65279 63.2354 6.23284L68.5601 8.34421C72.8716 10.0533 77.7634 9.3716 81.4256 6.54975L85.9513 3.06388C91.4762 -1.18951 99.3834 -0.376544 103.953 4.92194L107.695 9.25764C110.725 12.7711 115.377 14.4376 119.941 13.6413L125.576 12.6622C132.457 11.4654 139.089 15.8557 140.679 22.6589L140.69 22.6661Z" fill="url(#paint0_linear_18_247)"/>
<defs>
<linearGradient id="paint0_linear_18_247" x1="13.9222" y1="38.7103" x2="160.348" y2="135.632" gradientUnits="userSpaceOnUse">
<stop stop-color="#38E900"/>
<stop offset="0.04" stop-color="#52CE07"/>
<stop offset="0.1" stop-color="#72AE10"/>
<stop offset="0.16" stop-color="#8D9318"/>
<stop offset="0.24" stop-color="#A37D1E"/>
<stop offset="0.32" stop-color="#B46C23"/>
<stop offset="0.43" stop-color="#C06026"/>
<stop offset="0.58" stop-color="#C75928"/>
<stop offset="0.99" stop-color="#C95829"/>
</linearGradient>
</defs>
</svg>
