<svg width="60" height="92" viewBox="0 0 60 92" fill="none" xmlns="http://www.w3.org/2000/svg">
<g clip-path="url(#clip0_68_174)">
<path d="M5.84649 33.193H19.8074V41.5962C19.8074 44.0304 26.949 50.4217 30.7444 53.6468C32.2073 54.8882 33.051 56.703 33.051 58.6125V85.4628C33.051 89.0718 30.1019 91.9949 26.4666 91.9949H6.58439C2.94646 91.9949 0 89.0693 0 85.4628V58.0366C0 56.9564 0.270909 55.8942 0.784347 54.942L5.16276 46.8613C5.6891 45.8912 5.95743 44.8059 5.94711 43.7053L5.8439 33.1904L5.84649 33.193Z" fill="white"/>
<path d="M37.9226 18.6922H35.9617C35.3915 18.6922 34.9297 18.234 34.9297 17.6684C34.9297 17.1027 35.3915 16.6445 35.9617 16.6445H37.9226C38.4928 16.6445 38.9546 17.1027 38.9546 17.6684C38.9546 18.234 38.4928 18.6922 37.9226 18.6922Z" fill="white"/>
<path d="M49.8061 18.6922H45.3426C44.7724 18.6922 44.3105 18.234 44.3105 17.6684C44.3105 17.1027 44.7724 16.6445 45.3426 16.6445H49.8061C50.3763 16.6445 50.8382 17.1027 50.8382 17.6684C50.8382 18.234 50.3763 18.6922 49.8061 18.6922Z" fill="white"/>
<path d="M58.9685 18.6922H57.0076C56.4374 18.6922 55.9756 18.234 55.9756 17.6684C55.9756 17.1027 56.4374 16.6445 57.0076 16.6445H58.9685C59.5387 16.6445 60.0005 17.1027 60.0005 17.6684C60.0005 18.234 59.5387 18.6922 58.9685 18.6922Z" fill="white"/>
<path d="M35.5848 15.4189C35.3216 15.4189 35.0559 15.3191 34.8546 15.1194C34.4521 14.7201 34.4521 14.0725 34.8546 13.6707L36.2427 12.2936C36.6452 11.8943 37.3005 11.8943 37.703 12.2936C38.1055 12.6929 38.1055 13.3405 37.703 13.7424L36.3149 15.1194C36.1137 15.3191 35.8505 15.4189 35.5848 15.4189Z" fill="white"/>
<path d="M41.1346 9.91332C40.8714 9.91332 40.6057 9.81349 40.4044 9.61384C40.0019 9.21455 40.0019 8.56696 40.4044 8.16511L42.9071 5.68229C43.3096 5.28299 43.9649 5.28299 44.3674 5.68229C44.7699 6.08159 44.7699 6.72917 44.3674 7.13102L41.8647 9.61384C41.6635 9.81349 41.4003 9.91332 41.1346 9.91332Z" fill="white"/>
<path d="M47.6746 3.42183C47.4114 3.42183 47.1457 3.322 46.9444 3.12235C46.542 2.72305 46.542 2.07547 46.9444 1.67361L48.3325 0.296544C48.735 -0.102754 49.3878 -0.102754 49.7929 0.296544C50.1954 0.695843 50.1954 1.34342 49.7929 1.74528L48.4048 3.12235C48.2035 3.322 47.9404 3.42183 47.6746 3.42183Z" fill="white"/>
<path d="M37.5451 23.497C37.282 23.497 37.0162 23.3972 36.815 23.1975L35.4269 21.8205C35.0244 21.4212 35.0244 20.7736 35.4269 20.3717C35.8294 19.9724 36.4821 19.9724 36.8872 20.3717L38.2753 21.7488C38.6778 22.1481 38.6778 22.7957 38.2753 23.1975C38.074 23.3972 37.8109 23.497 37.5451 23.497Z" fill="white"/>
<path d="M43.7505 29.65C43.4874 29.65 43.2216 29.5502 43.0204 29.3506L40.6905 27.0392C40.288 26.6399 40.288 25.9923 40.6905 25.5905C41.093 25.1912 41.7458 25.1912 42.1509 25.5905L44.4807 27.9018C44.8832 28.3011 44.8832 28.9487 44.4807 29.3506C44.2794 29.5502 44.0163 29.65 43.7505 29.65Z" fill="white"/>
<path d="M48.8977 34.7568C48.6345 34.7568 48.3687 34.657 48.1675 34.4573L46.7794 33.0802C46.3769 32.6809 46.3769 32.0334 46.7794 31.6315C47.1819 31.2322 47.8347 31.2322 48.2397 31.6315L49.6278 33.0086C50.0303 33.4079 50.0303 34.0555 49.6278 34.4573C49.4266 34.657 49.1634 34.7568 48.8977 34.7568Z" fill="white"/>
<path d="M30.5994 14.501H29.0049C29.0178 14.5675 29.0255 14.6366 29.0255 14.7057V20.2473C29.0255 20.3625 29.0023 20.47 28.9688 20.5724H30.6019C31.1025 20.5724 31.5076 20.1705 31.5076 19.6739V15.402C31.5076 14.9054 31.1025 14.5035 30.6019 14.5035L30.5994 14.501Z" fill="white"/>
<path d="M27.9578 30.5545L23.502 21.7136C23.2362 21.1889 23.6232 20.5694 24.2166 20.5694H27.0186C26.9851 20.4671 26.9619 20.3595 26.9619 20.2444V14.7028C26.9619 14.6337 26.9696 14.5646 26.9825 14.498H10.9653C5.52647 14.498 1.86532 20.8177 0.306949 24.1606C-0.131666 25.1051 0.567538 26.1827 1.61505 26.1827H7.94918V31.0562L17.6297 31.1201V27.1016C17.6297 27.0862 17.6297 27.0708 17.6297 27.0555C17.6426 25.123 20.1324 24.309 21.3347 25.8294C22.8853 27.7901 24.8462 30.2652 25.8498 31.5348C26.2678 32.0646 26.9025 32.3795 27.5785 32.3999C28.1797 32.4179 28.5822 31.7933 27.9578 30.5545Z" fill="white"/>
</g>
<defs>
<clipPath id="clip0_68_174">
<rect width="60" height="92" fill="white"/>
</clipPath>
</defs>
</svg>
