<svg width="34" height="37" viewBox="0 0 34 37" fill="none" xmlns="http://www.w3.org/2000/svg">
<path d="M34 9.59696C33.9662 9.59696 30.5391 9.53493 27.6194 7.57054C25.0716 5.86462 24.1923 2.15297 24.057 0.777897V0.591797H17.8568V25.126C17.8568 28.0725 15.2414 30.4712 12.0285 30.4712C8.81565 30.4712 6.20027 28.0725 6.20027 25.126C6.20027 22.1794 8.81565 19.7808 12.0285 19.7808H13.9901V14.0944H12.0285C5.39987 14.0944 0 19.0467 0 25.126C0 31.2052 5.39987 36.1575 12.0285 36.1575C18.6572 36.1575 24.057 31.2052 24.057 25.126V12.223C28.555 15.1903 33.4251 15.2833 33.9887 15.2833V9.59696H34Z" fill="#EE6C22"/>
</svg>
