<svg width="93" height="86" viewBox="0 0 93 86" fill="none" xmlns="http://www.w3.org/2000/svg">
<g clip-path="url(#clip0_190_133)" filter="url(#filter0_d_190_133)">
<path d="M82.8311 57.0918H10.1678C6.76758 57.0918 4 54.3228 4 50.9197V6.17096C4 2.76791 6.76758 0 10.1678 0H82.8311C86.2324 0 89 2.76791 89 6.17096V50.9187C89 54.3217 86.2324 57.0907 82.8311 57.0907V57.0918ZM10.1678 2.06766C7.90811 2.06766 6.06875 3.90902 6.06875 6.17096V50.9187C6.06875 53.1817 7.90811 55.022 10.1678 55.022H82.8311C85.093 55.022 86.9313 53.1806 86.9313 50.9187V6.17096C86.9313 3.90795 85.0919 2.06766 82.8311 2.06766H10.1678Z" fill="white"/>
<path d="M32.0611 69.8078C31.9139 69.8078 31.7645 69.7769 31.6216 69.7096C31.1041 69.4673 30.8822 68.8514 31.1244 68.3337C33.2785 63.7426 33.2785 61.0878 31.1244 56.4945C30.8822 55.9768 31.1052 55.3609 31.6216 55.1186C32.1422 54.8763 32.7525 55.0983 32.9979 55.615C35.4102 60.7622 35.4102 64.066 32.9979 69.2111C32.8208 69.5858 32.4495 69.8068 32.0611 69.8068V69.8078Z" fill="white"/>
<path d="M61.8495 69.8079C61.4611 69.8079 61.0898 69.588 60.9127 69.2122C58.5004 64.0671 58.5004 60.7633 60.9127 55.6161C61.1571 55.0984 61.7684 54.8753 62.2891 55.1197C62.8044 55.362 63.0284 55.9779 62.7862 56.4956C60.6321 61.0878 60.6321 63.7437 62.7862 68.3348C63.0284 68.8514 62.8065 69.4684 62.2891 69.7107C62.1461 69.778 61.9967 69.8089 61.8495 69.8089V69.8079Z" fill="white"/>
<path d="M68.2075 77.9996H25.7017C23.6884 77.9996 22.0518 76.3622 22.0518 74.3489V71.3899C22.0518 69.3767 23.6884 67.7393 25.7017 67.7393H68.2075C70.2208 67.7393 71.8575 69.3767 71.8575 71.3899V74.3489C71.8575 76.3622 70.2208 77.9996 68.2075 77.9996ZM25.7017 69.808C24.8289 69.808 24.1205 70.5178 24.1205 71.3899V74.3489C24.1205 75.221 24.8289 75.9309 25.7017 75.9309H68.2075C69.0803 75.9309 69.7887 75.221 69.7887 74.3489V71.3899C69.7887 70.5178 69.0803 69.808 68.2075 69.808H25.7017Z" fill="white"/>
<path d="M41.193 36.4121C40.4985 36.4121 39.805 36.2296 39.1712 35.8634C37.9059 35.1322 37.1494 33.8225 37.1494 32.3601V15.8946C37.1494 14.4322 37.9059 13.1224 39.1712 12.3912C40.4387 11.66 41.9484 11.66 43.2159 12.3912L57.4677 20.6245C58.7331 21.3557 59.4895 22.6654 59.4895 24.1278C59.4895 25.5903 58.7331 26.9 57.4677 27.6312L43.2159 35.8645C42.5821 36.2296 41.8876 36.4132 41.1941 36.4132L41.193 36.4121ZM41.193 13.9155C40.8527 13.9155 40.5145 14.0052 40.2051 14.1834C39.5852 14.541 39.2171 15.1815 39.2171 15.8956V32.3611C39.2171 33.0753 39.5852 33.7157 40.2051 34.0723C40.8228 34.4299 41.5622 34.4299 42.181 34.0723L56.4328 25.839C57.0527 25.4814 57.4208 24.842 57.4208 24.1278C57.4208 23.4137 57.0527 22.7732 56.4328 22.4156L42.181 14.1824C41.8716 14.0041 41.5334 13.9144 41.193 13.9144V13.9155Z" fill="white"/>
<path d="M77.4706 44.847H68.5203C67.9484 44.847 67.4854 44.3838 67.4854 43.8127C67.4854 43.2416 67.9484 42.7783 68.5203 42.7783H77.4706C78.0425 42.7783 78.5055 43.2416 78.5055 43.8127C78.5055 44.3838 78.0425 44.847 77.4706 44.847Z" fill="white"/>
<path d="M60.699 44.847H15.529C14.9572 44.847 14.4941 44.3838 14.4941 43.8127C14.4941 43.2416 14.9572 42.7783 15.529 42.7783H60.6979C61.2698 42.7783 61.7328 43.2416 61.7328 43.8127C61.7328 44.3838 61.2698 44.847 60.6979 44.847H60.699Z" fill="white"/>
<path d="M64.6092 48.7594C61.8832 48.7594 59.6641 46.5401 59.6641 43.8128C59.6641 41.0854 61.8832 38.8662 64.6092 38.8662C67.3352 38.8662 69.5544 41.0854 69.5544 43.8128C69.5544 46.5401 67.3352 48.7594 64.6092 48.7594ZM64.6092 40.9339C63.0238 40.9339 61.7328 42.2255 61.7328 43.8128C61.7328 45.4001 63.0238 46.6907 64.6092 46.6907C66.1946 46.6907 67.4856 45.399 67.4856 43.8128C67.4856 42.2266 66.1946 40.9339 64.6092 40.9339Z" fill="white"/>
</g>
<defs>
<filter id="filter0_d_190_133" x="0" y="0" width="93" height="86" filterUnits="userSpaceOnUse" color-interpolation-filters="sRGB">
<feFlood flood-opacity="0" result="BackgroundImageFix"/>
<feColorMatrix in="SourceAlpha" type="matrix" values="0 0 0 0 0 0 0 0 0 0 0 0 0 0 0 0 0 0 127 0" result="hardAlpha"/>
<feOffset dy="4"/>
<feGaussianBlur stdDeviation="2"/>
<feComposite in2="hardAlpha" operator="out"/>
<feColorMatrix type="matrix" values="0 0 0 0 0 0 0 0 0 0 0 0 0 0 0 0 0 0 0.25 0"/>
<feBlend mode="normal" in2="BackgroundImageFix" result="effect1_dropShadow_190_133"/>
<feBlend mode="normal" in="SourceGraphic" in2="effect1_dropShadow_190_133" result="shape"/>
</filter>
<clipPath id="clip0_190_133">
<rect width="85" height="78" fill="white" transform="translate(4)"/>
</clipPath>
</defs>
</svg>
