<svg width="454" height="68" viewBox="0 0 454 68" fill="none" xmlns="http://www.w3.org/2000/svg">
<g clip-path="url(#clip0_191_148)">
<path d="M69.4395 5.01855H75.289L94.0671 56.3877L113.014 5.01855H118.783L96.6222 63.5855H91.1825L69.4395 5.01855Z" fill="white"/>
<path d="M126.529 5.01855H131.969V63.5855H126.529V5.01855Z" fill="white"/>
<path d="M147.203 5.01855H165.242C170.296 5.01855 174.579 5.63989 178.09 6.88256C181.601 8.12524 184.526 9.70682 186.864 11.6354C189.195 13.5639 191.035 15.7023 192.385 18.0505C193.726 20.3986 194.715 22.6419 195.35 24.7883C195.976 26.9428 196.378 28.8795 196.547 30.6224C196.707 32.3574 196.796 33.5839 196.796 34.302C196.796 35.0202 196.715 36.2468 196.547 37.9817C196.386 39.7166 195.984 41.6613 195.35 43.8158C194.715 45.9703 193.726 48.2135 192.385 50.5617C191.035 52.9099 189.203 55.0402 186.864 56.9768C184.526 58.9054 181.601 60.495 178.09 61.7296C174.579 62.9723 170.288 63.5936 165.242 63.5936H147.203V5.01855ZM152.635 58.631H163.836C167.677 58.631 171.276 58.1468 174.627 57.1866C177.978 56.2183 180.886 54.7497 183.361 52.7646C185.836 50.7796 187.78 48.2539 189.211 45.1956C190.641 42.1373 191.356 38.5062 191.356 34.3182C191.356 30.1302 190.641 26.499 189.211 23.4408C187.78 20.3825 185.836 17.8568 183.361 15.8718C180.886 13.8867 177.978 12.41 174.627 11.4498C171.276 10.4895 167.677 10.0054 163.836 10.0054H152.635V58.6471V58.631Z" fill="white"/>
<path d="M226.855 5.01855H232.456L257.003 63.5855H250.905L244.565 48.036H213.678L207.089 63.5855H201.408L226.863 5.01855H226.855ZM229.411 10.9818L215.815 43.0815H242.588L229.411 10.9818Z" fill="white"/>
<path d="M263.238 34.8585C264.162 36.2545 265.352 37.2793 266.79 37.941C268.236 38.6027 269.723 38.9335 271.249 38.9335C272.101 38.9335 272.977 38.7963 273.869 38.53C274.761 38.2637 275.572 37.8603 276.304 37.3196C277.035 36.7871 277.629 36.1254 278.095 35.3346C278.561 34.5519 278.786 33.632 278.786 32.5991C278.786 31.1305 278.32 30.0169 277.396 29.2423C276.472 28.4757 275.323 27.8301 273.949 27.3137C272.575 26.7973 271.081 26.297 269.458 25.8128C267.835 25.3287 266.34 24.6589 264.966 23.8036C263.592 22.9482 262.443 21.7943 261.519 20.3418C260.595 18.8893 260.129 16.9366 260.129 14.4674C260.129 13.3619 260.37 12.1757 260.852 10.9249C261.334 9.67421 262.089 8.52837 263.126 7.48743C264.162 6.44649 265.488 5.58307 267.103 4.88104C268.726 4.18708 270.671 3.83203 272.953 3.83203C275.018 3.83203 276.995 4.12253 278.883 4.68738C280.771 5.2603 282.426 6.42228 283.848 8.17332L279.678 11.982C279.035 10.9814 278.127 10.1745 276.954 9.5693C275.781 8.96411 274.439 8.65747 272.945 8.65747C271.45 8.65747 270.333 8.84307 269.393 9.22233C268.445 9.60158 267.69 10.0777 267.119 10.6748C266.549 11.2639 266.147 11.9013 265.914 12.5792C265.681 13.257 265.569 13.8864 265.569 14.4593C265.569 16.0732 266.035 17.3078 266.959 18.1631C267.883 19.0185 269.032 19.7205 270.406 20.2531C271.78 20.7856 273.274 21.2698 274.897 21.7055C276.52 22.1332 278.015 22.7303 279.389 23.505C280.763 24.2716 281.912 25.3125 282.836 26.6197C283.76 27.927 284.226 29.7264 284.226 32.01C284.226 33.8337 283.881 35.4798 283.182 36.9484C282.491 38.4171 281.55 39.6517 280.377 40.6523C279.204 41.6529 277.814 42.4194 276.207 42.9601C274.6 43.5007 272.897 43.767 271.081 43.767C268.654 43.767 266.356 43.3393 264.187 42.4759C262.009 41.6206 260.29 40.2972 259.004 38.5058L263.222 34.8585H263.238Z" fill="white"/>
<path d="M291.827 4.81641H316.246V9.64185H296.954V20.9631H314.904V25.7966H296.954V37.9812H317.202V42.8067H291.819V4.81641H291.827Z" fill="white"/>
<path d="M324.097 4.81641H331.738L343.759 33.5754H343.976L355.892 4.81641H363.533V42.8067H358.407V11.5704H358.302L345.534 42.7986H342.111L329.344 11.5704H329.239V42.7986H324.113V4.81641H324.097Z" fill="white"/>
<path d="M378.445 25.248C378.63 25.248 378.775 25.3045 378.871 25.4175C378.968 25.5304 379.016 25.6757 379.016 25.8451V39.4177C379.016 40.9347 378.534 42.1371 377.586 43.0085C376.63 43.88 375.288 44.3158 373.568 44.3158C372.733 44.3158 371.985 44.2028 371.326 43.9768C370.667 43.7509 370.089 43.4201 369.607 42.9924C369.125 42.5647 368.755 42.0483 368.498 41.4512C368.241 40.854 368.112 40.1762 368.112 39.4096V8.3993C368.112 6.88227 368.586 5.67994 369.543 4.80846C370.499 3.93698 371.841 3.49316 373.56 3.49316C374.372 3.49316 375.119 3.60613 375.786 3.83207C376.461 4.05802 377.031 4.38886 377.513 4.81653C377.995 5.2442 378.365 5.75257 378.622 6.35777C378.879 6.95489 379.008 7.63272 379.008 8.3993V22.335C379.008 22.5044 378.96 22.6497 378.863 22.7627C378.767 22.8756 378.63 22.9321 378.437 22.9321H376.846C376.3 22.9321 375.882 22.7788 375.609 22.4641C375.336 22.1494 375.199 21.7459 375.199 21.2537V8.3993C375.199 7.88286 375.063 7.47133 374.806 7.15663C374.54 6.84192 374.123 6.68861 373.56 6.68861C372.998 6.68861 372.596 6.84192 372.323 7.15663C372.05 7.47133 371.913 7.88286 371.913 8.3993V39.4177C371.913 39.9341 372.041 40.3457 372.307 40.6604C372.572 40.9751 372.99 41.1284 373.552 41.1284C374.115 41.1284 374.516 40.9751 374.789 40.6604C375.063 40.3457 375.199 39.9341 375.199 39.4177V29.0728C374.685 29.0728 374.275 28.9357 373.962 28.6613C373.648 28.387 373.496 27.9754 373.496 27.4186V25.8209C373.496 25.6273 373.552 25.4901 373.665 25.3932C373.777 25.2964 373.922 25.248 374.09 25.248H378.437H378.445Z" fill="white"/>
<path d="M390 3.95312C390.169 3.95312 390.314 4.00154 390.426 4.09837C390.539 4.1952 390.595 4.33238 390.595 4.52605V5.49436C390.595 5.98659 390.458 6.39005 390.201 6.68862C389.936 6.99525 389.583 7.14857 389.149 7.14857H385.653V22.5125H389.43C389.599 22.5125 389.743 22.5609 389.856 22.6578C389.968 22.7546 390.024 22.8918 390.024 23.0854V24.0538C390.024 24.546 389.888 24.9494 389.623 25.248C389.358 25.5546 389.004 25.708 388.57 25.708H385.645V40.6765H389.141C389.574 40.6765 389.928 40.8298 390.193 41.1365C390.458 41.4431 390.587 41.8385 390.587 42.3307V43.299C390.587 43.4927 390.531 43.6299 390.418 43.7267C390.306 43.8235 390.161 43.872 389.992 43.872H382.415C382.222 43.872 382.086 43.8155 381.989 43.7025C381.893 43.5895 381.845 43.4443 381.845 43.2748V4.55832C381.845 4.38887 381.893 4.24362 381.989 4.13065C382.086 4.01768 382.222 3.96119 382.415 3.96119H389.992L390 3.95312Z" fill="white"/>
<path d="M398.148 3.95312C398.959 3.95312 399.699 4.07416 400.366 4.30817C401.024 4.54218 401.595 4.87303 402.069 5.29263C402.543 5.71223 402.905 6.22867 403.162 6.83387C403.419 7.43906 403.547 8.11688 403.547 8.85926V22.3753C403.547 23.2145 403.379 23.8924 403.049 24.4249C402.72 24.9575 402.262 25.3852 401.675 25.708C402.262 26.0307 402.72 26.4503 403.049 26.9748C403.379 27.4993 403.547 28.1691 403.547 28.9841V43.2668C403.547 43.4362 403.499 43.5815 403.403 43.6944C403.306 43.8074 403.17 43.8639 402.977 43.8639H401.386C400.84 43.8639 400.422 43.7106 400.149 43.3959C399.875 43.0812 399.739 42.6777 399.739 42.1855V28.9841C399.739 28.4677 399.61 28.0561 399.353 27.7414C399.096 27.4267 398.678 27.2734 398.092 27.2734H396.444V42.1855C396.444 42.6777 396.308 43.0812 396.035 43.3959C395.761 43.7106 395.352 43.8639 394.797 43.8639H393.206C393.013 43.8639 392.877 43.8074 392.78 43.6944C392.684 43.5815 392.636 43.4362 392.636 43.2668V4.55832C392.636 4.38887 392.684 4.24362 392.78 4.13065C392.877 4.01768 393.013 3.96119 393.206 3.96119H398.148V3.95312ZM396.444 7.14857V24.078H398.092C398.662 24.078 399.072 23.9166 399.337 23.5938C399.602 23.271 399.731 22.8595 399.731 22.3673V8.85926C399.731 8.36703 399.594 7.9555 399.321 7.63273C399.048 7.30995 398.638 7.14857 398.084 7.14857H396.436H396.444Z" fill="white"/>
<path d="M416.765 9.77083C416.893 8.46361 417.054 7.42267 417.247 6.64801C417.432 5.88143 417.641 5.29237 417.874 4.89698C418.099 4.49351 418.348 4.24336 418.613 4.13039C418.878 4.01742 419.143 3.96094 419.408 3.96094H421.562C421.747 3.96094 421.891 4.01742 421.988 4.13039C422.084 4.24336 422.132 4.38861 422.132 4.55807V43.2665C422.132 43.436 422.084 43.5812 421.988 43.6942C421.891 43.8071 421.755 43.8636 421.562 43.8636H419.971C419.425 43.8636 419.007 43.7103 418.726 43.3956C418.444 43.0809 418.308 42.6774 418.332 42.1852L419.184 14.2493L416.259 42.4434C416.219 42.8469 416.002 43.1777 415.608 43.4521C415.214 43.7265 414.772 43.8636 414.298 43.8636H414.242C413.768 43.8636 413.334 43.7265 412.94 43.4521C412.546 43.1777 412.322 42.8388 412.289 42.4434L409.34 14.1928L410.192 42.1852C410.208 42.6774 410.08 43.0809 409.799 43.3956C409.517 43.7103 409.099 43.8636 408.553 43.8636H406.962C406.769 43.8636 406.633 43.8071 406.536 43.6942C406.44 43.5812 406.392 43.436 406.392 43.2665V4.55807C406.392 4.38861 406.44 4.24336 406.536 4.13039C406.633 4.01742 406.769 3.96094 406.962 3.96094H408.891C409.156 3.96094 409.437 4.00935 409.726 4.11425C410.015 4.21916 410.297 4.4693 410.562 4.87277C410.827 5.26816 411.068 5.85722 411.285 6.62381C411.502 7.39039 411.679 8.44747 411.807 9.77083L414.274 33.89L416.773 9.77083H416.765Z" fill="white"/>
<path d="M433.687 3.95312C433.856 3.95312 434 4.00154 434.113 4.09837C434.225 4.1952 434.281 4.33238 434.281 4.52605V5.49436C434.281 5.98659 434.145 6.39005 433.888 6.68862C433.623 6.99525 433.269 7.14857 432.835 7.14857H429.34V22.5125H433.116C433.285 22.5125 433.43 22.5609 433.542 22.6578C433.655 22.7546 433.711 22.8918 433.711 23.0854V24.0538C433.711 24.546 433.574 24.9494 433.309 25.248C433.044 25.5546 432.691 25.708 432.257 25.708H429.332V40.6765H432.827C433.261 40.6765 433.615 40.8298 433.88 41.1365C434.145 41.4431 434.273 41.8385 434.273 42.3307V43.299C434.273 43.4927 434.217 43.6299 434.105 43.7267C433.992 43.8235 433.848 43.872 433.679 43.872H426.102C425.909 43.872 425.772 43.8155 425.676 43.7025C425.579 43.5895 425.531 43.4443 425.531 43.2748V4.55832C425.531 4.38887 425.579 4.24362 425.676 4.13065C425.772 4.01768 425.909 3.96119 426.102 3.96119H433.679L433.687 3.95312Z" fill="white"/>
<path d="M445.073 17.7279C444.526 17.7279 444.109 17.5746 443.835 17.2599C443.562 16.9451 443.426 16.5417 443.426 16.0495V8.40783C443.426 7.8914 443.289 7.47986 443.016 7.16516C442.743 6.85046 442.333 6.69714 441.778 6.69714C441.224 6.69714 440.79 6.85046 440.533 7.16516C440.268 7.47986 440.139 7.8914 440.139 8.40783C440.139 10.1347 440.236 11.692 440.437 13.08C440.637 14.4679 440.903 15.7509 441.248 16.929C441.586 18.1071 441.971 19.2207 442.397 20.2616C442.823 21.3106 443.257 22.3516 443.691 23.3845C444.125 24.4173 444.559 25.4825 444.984 26.5638C445.41 27.645 445.796 28.8232 446.133 30.0981C446.471 31.3731 446.744 32.7691 446.945 34.2861C447.146 35.8031 447.242 37.5138 447.242 39.4182C447.242 40.1767 447.114 40.8545 446.857 41.4597C446.599 42.0568 446.23 42.5732 445.748 43.0009C445.266 43.4286 444.687 43.7594 444.02 43.9854C443.345 44.2113 442.606 44.3243 441.795 44.3243C440.075 44.3243 438.733 43.8885 437.777 43.0171C436.821 42.1456 436.347 40.9432 436.347 39.4262V30.7033C436.347 30.5339 436.395 30.3886 436.491 30.2756C436.588 30.1627 436.724 30.1062 436.917 30.1062H438.508C439.055 30.1062 439.472 30.2595 439.746 30.5742C440.019 30.8889 440.155 31.2924 440.155 31.7846V39.4262C440.155 39.9427 440.292 40.3542 440.565 40.6689C440.838 40.9836 441.248 41.1369 441.803 41.1369C442.357 41.1369 442.783 40.9836 443.048 40.6689C443.313 40.3542 443.442 39.9427 443.442 39.4262C443.442 36.9893 443.265 34.8671 442.919 33.0434C442.566 31.2197 442.132 29.5655 441.602 28.0727C441.071 26.5799 440.501 25.1678 439.898 23.8283C439.296 22.4888 438.725 21.0766 438.195 19.5919C437.664 18.1071 437.223 16.4771 436.877 14.6857C436.523 12.9024 436.355 10.8125 436.355 8.4159C436.355 7.65739 436.483 6.97956 436.74 6.37437C436.998 5.77724 437.367 5.2608 437.849 4.83313C438.331 4.40546 438.902 4.07462 439.569 3.84868C440.236 3.62274 440.975 3.50977 441.811 3.50977C443.53 3.50977 444.872 3.94551 445.828 4.82506C446.784 5.69655 447.258 6.89887 447.258 8.4159V17.1388C447.258 17.3083 447.21 17.4535 447.114 17.5665C447.017 17.6795 446.881 17.7359 446.688 17.7359H445.097L445.073 17.7279Z" fill="white"/>
<path d="M4.38749 5.22024C3.90538 4.74416 3.14204 4.75223 2.66797 5.23638C2.1939 5.72054 2.20193 6.48713 2.68404 6.96321L56.6479 60.2287C56.8809 60.4627 57.1942 60.5757 57.4996 60.5757C57.8049 60.5757 58.1263 60.4546 58.3674 60.2125C58.8414 59.7284 58.8334 58.9618 58.3513 58.4857L4.38749 5.22024Z" fill="white"/>
<path d="M57.7885 39.822C57.3707 39.6606 56.9288 39.5799 56.4868 39.5799C55.9806 39.5799 55.4905 39.6848 55.0164 39.8946C54.5102 40.1205 54.0602 40.4594 53.7067 40.8871L46.8929 38.2485C47.375 36.683 47.6402 35.053 47.6643 33.3988C47.7045 31.2604 47.3509 29.1624 46.6117 27.1612L53.2889 24.1837C53.9718 24.926 54.9361 25.3537 55.9565 25.3537C56.4627 25.3537 56.9529 25.2488 57.4189 25.039C58.3028 24.6436 58.9777 23.9254 59.3313 23.0217C59.6768 22.1098 59.6527 21.1254 59.267 20.2378C58.6885 18.9225 57.3868 18.0752 55.9485 18.0752C55.4423 18.0752 54.9521 18.1801 54.4861 18.3899C53.0719 19.0193 52.2122 20.5041 52.3488 22.0372L45.6716 25.0148C45.3743 24.4419 45.0368 23.8851 44.6833 23.3606C44.4663 23.0378 44.1047 22.8442 43.711 22.8442C43.478 22.8442 43.253 22.9168 43.0521 23.0459C42.795 23.2234 42.6182 23.4897 42.562 23.7963C42.5057 24.103 42.562 24.4177 42.7388 24.6759C43.2369 25.4102 43.6708 26.201 44.0324 27.0241C45.7841 30.9861 45.7439 35.521 43.9199 39.4508C43.9199 39.4588 43.9119 39.475 43.9038 39.4831C43.9038 39.4588 43.9038 39.475 43.8315 39.596C43.5101 40.1609 43.711 40.879 44.2735 41.2018C44.4502 41.2986 44.6511 41.3551 44.852 41.3551C45.0207 41.3551 45.1734 41.3229 45.3261 41.2502C45.5591 41.1453 45.7439 40.9759 45.8644 40.758C45.993 40.5321 45.9769 40.5885 45.9608 40.6128C45.9608 40.5966 45.993 40.5482 46.0412 40.4433L52.855 43.082C52.8309 43.6307 52.9433 44.1875 53.1683 44.6958C53.5621 45.5834 54.2772 46.2693 55.1771 46.6163C55.5949 46.7777 56.0369 46.8584 56.4788 46.8584C56.985 46.8584 57.4752 46.7535 57.9492 46.5437C58.8331 46.1483 59.5161 45.4301 59.8616 44.5264C60.2071 43.6226 60.183 42.6301 59.7893 41.7425C59.3956 40.8548 58.6804 40.1689 57.7805 39.822H57.7885ZM55.4262 20.5363C55.5949 20.4637 55.7637 20.4234 55.9405 20.4234C56.4467 20.4234 56.9127 20.7219 57.1136 21.1899C57.2502 21.5046 57.2582 21.8516 57.1377 22.1744C57.0172 22.4972 56.7761 22.7473 56.4627 22.8926C56.294 22.9652 56.1253 23.0055 55.9485 23.0055C55.4423 23.0055 54.9762 22.707 54.7754 22.239C54.4861 21.5934 54.7754 20.8268 55.4262 20.5363ZM57.676 43.6791C57.5555 44.0019 57.3145 44.252 57.0011 44.3973C56.8323 44.4699 56.6636 44.5102 56.4788 44.5102C56.3181 44.5102 56.1654 44.478 56.0208 44.4215C55.6994 44.3004 55.4503 44.0583 55.3057 43.7436C55.1691 43.4289 55.161 43.082 55.2816 42.7592C55.4021 42.4364 55.6431 42.1863 55.9565 42.041C56.1253 41.9684 56.294 41.9281 56.4788 41.9281C56.6395 41.9281 56.7922 41.9603 56.9368 42.0168C57.2582 42.1379 57.5073 42.3799 57.6519 42.6946C57.7885 43.0093 57.7966 43.3563 57.676 43.6791Z" fill="white"/>
<path d="M50.01 31.7195C49.6966 31.7195 49.4073 31.8486 49.1824 32.0746C48.9654 32.3005 48.8449 32.5991 48.8529 32.9057C48.8529 33.5432 49.3832 34.0677 50.026 34.0677L52.1071 34.0435C52.2678 34.0435 52.4205 34.0112 52.5651 33.9466C52.991 33.753 53.2642 33.3253 53.2642 32.8573C53.2642 32.2198 52.7339 31.6953 52.0911 31.6953L50.01 31.7195Z" fill="white"/>
<path d="M10.7265 34.5122C10.8872 34.5122 11.0399 34.48 11.1845 34.4154C11.6104 34.2217 11.8836 33.7941 11.8836 33.326C11.8836 32.6886 11.3533 32.1641 10.7104 32.1641L9.52928 32.1802C9.21591 32.1802 8.92665 32.3093 8.7097 32.5352C8.49275 32.7612 8.37223 33.0598 8.38026 33.3664C8.38026 34.0039 8.91058 34.5284 9.55339 34.5284L10.7345 34.5122H10.7265Z" fill="white"/>
<path d="M30.1477 14.5728H30.1637C30.3244 14.5728 30.4771 14.5405 30.6217 14.476C31.0476 14.2823 31.3208 13.8546 31.3208 13.3866L31.2565 7.46374C31.2565 6.82626 30.7262 6.30176 30.0834 6.30176H30.0673C29.4245 6.30176 28.9022 6.8424 28.9102 7.48794L28.9745 13.4108C28.9745 14.0483 29.5048 14.5728 30.1477 14.5728Z" fill="white"/>
<path d="M30.5893 51.9492H30.5732C30.2599 51.9492 29.9706 52.0783 29.7536 52.3043C29.5367 52.5302 29.4162 52.8288 29.4242 53.1354L29.4885 58.7678C29.4885 59.4053 30.0188 59.9298 30.6616 59.9298H30.6777C30.8384 59.9298 30.9911 59.8975 31.1357 59.8329C31.5615 59.6393 31.8347 59.2116 31.8347 58.7436L31.7705 53.1112C31.7705 52.4737 31.2401 51.9492 30.5973 51.9492H30.5893Z" fill="white"/>
<path d="M19.0188 11.0626C19.1233 11.0626 19.2277 11.0626 19.3322 11.0464L22.2972 17.752C21.8633 17.986 22.5623 17.6068 22.1525 17.865C21.8874 18.0344 21.7106 18.2926 21.6383 18.5993C21.574 18.9059 21.6302 19.2206 21.799 19.4869C22.0159 19.8258 22.3856 20.0275 22.7873 20.0275C22.948 20.0275 23.1087 19.9953 23.2614 19.9307C23.3176 19.9065 23.3658 19.8742 23.4221 19.842C24.0569 19.4304 23.6069 19.6886 24.3059 19.382C26.2263 18.5267 28.2673 18.0909 30.3644 18.0909C33.0964 18.0909 35.772 18.8414 38.1022 20.2535C38.287 20.3665 38.496 20.4229 38.7049 20.4229C38.8736 20.4229 39.0263 20.3907 39.1789 20.318C39.3959 20.2212 39.5807 20.0598 39.7093 19.85C39.87 19.5837 39.9182 19.269 39.8458 18.9624C39.7735 18.6558 39.5807 18.3975 39.3155 18.2362C38.7852 17.9134 38.2308 17.6229 37.6683 17.3566L41.5413 7.26191C41.5895 7.26191 41.6377 7.26191 41.6859 7.26191C42.1921 7.26191 42.6822 7.15701 43.1563 6.94721C44.0402 6.55181 44.7232 5.83364 45.0687 4.92988C45.7838 3.0578 44.8517 0.951715 42.9876 0.225478C42.5698 0.0640915 42.1278 -0.0166016 41.6859 -0.0166016C41.1797 -0.0166016 40.6895 0.0882994 40.2155 0.298101C39.3316 0.693497 38.6486 1.41166 38.3031 2.31543C37.7487 3.7679 38.1826 5.42211 39.3557 6.41463L35.4828 16.5093C34.2132 16.1139 32.9115 15.8638 31.5938 15.775C31.184 15.7427 30.7742 15.7347 30.3644 15.7347C29.3922 15.7347 28.4119 15.8154 27.4557 15.9848C26.4352 16.1623 25.4228 16.4286 24.4425 16.7918L21.4776 10.0862C22.6025 9.03716 22.956 7.35874 22.3293 5.93854C21.7508 4.62325 20.4491 3.77597 19.0108 3.77597C18.5046 3.77597 18.0144 3.88087 17.5484 4.09067C15.7244 4.90567 14.8968 7.06018 15.7084 8.89191C16.2869 10.2072 17.5886 11.0545 19.0269 11.0545L19.0188 11.0626ZM40.4806 3.17884C40.6012 2.85607 40.8422 2.60592 41.1556 2.46067C41.3243 2.38805 41.493 2.3477 41.6779 2.3477C41.8386 2.3477 41.9912 2.37998 42.1359 2.43647C42.4573 2.55751 42.7064 2.79958 42.8429 3.11429C42.9795 3.42899 42.9876 3.77597 42.8671 4.09874C42.7465 4.42151 42.5055 4.67166 42.1921 4.81691C42.0234 4.88953 41.8546 4.92988 41.6698 4.92988C41.5091 4.92988 41.3565 4.8976 41.2118 4.84112C40.5529 4.5829 40.2235 3.84052 40.4726 3.17884H40.4806ZM17.8216 6.96335C17.9421 6.64057 18.1832 6.39042 18.4966 6.24518C18.6653 6.17255 18.834 6.13221 19.0108 6.13221C19.517 6.13221 19.9831 6.43077 20.1839 6.89879C20.3205 7.21349 20.3286 7.56047 20.208 7.88325C20.0875 8.20602 19.8465 8.45617 19.5331 8.60141C19.3643 8.67404 19.1956 8.71438 19.0188 8.71438C18.5126 8.71438 18.0466 8.41582 17.8457 7.9478C17.7091 7.6331 17.7011 7.28612 17.8216 6.96335Z" fill="white"/>
<path d="M41.7181 55.1693C41.6136 55.1693 41.5091 55.1693 41.4047 55.1854L38.4397 48.4799C38.5763 48.4072 38.3835 48.5121 38.512 48.4395C38.7852 48.2862 38.9781 48.036 39.0665 47.7294C39.1549 47.4308 39.1147 47.1081 38.962 46.8337C38.7531 46.4625 38.3674 46.2285 37.9416 46.2285C37.7407 46.2285 37.5478 46.2769 37.3711 46.3818C36.9693 46.6078 36.8729 46.6481 36.439 46.8418C34.5186 47.6971 32.4777 48.1329 30.3725 48.1329C28.2191 48.1329 26.1299 47.681 24.1694 46.7853C24.0167 46.7127 23.856 46.6804 23.6873 46.6804C23.2293 46.6804 22.8114 46.9467 22.6186 47.3663C22.3695 47.915 22.5784 48.5525 23.0766 48.8591L20.4491 55.7099C19.8947 55.6857 19.3483 55.7906 18.8421 56.0246C17.9582 56.42 17.2752 57.1382 16.9297 58.042C16.5842 58.9457 16.6083 59.9383 17.002 60.8259C17.3958 61.7135 18.1109 62.3994 19.0108 62.7464C19.4287 62.9078 19.8706 62.9885 20.3125 62.9885C20.8187 62.9885 21.3089 62.8836 21.7829 62.6737C22.6668 62.2784 23.3498 61.5602 23.6953 60.6564C24.2497 59.2039 23.8158 57.5497 22.6427 56.5572L25.2702 49.7145C26.8531 50.2067 28.5003 50.473 30.1716 50.4891C32.2768 50.5133 34.3418 50.1583 36.3104 49.432L39.2754 56.1376C38.1505 57.1866 37.7969 58.865 38.4237 60.2852C39.0022 61.6005 40.3039 62.4478 41.7422 62.4478C42.2484 62.4478 42.7385 62.3429 43.2046 62.1331C44.0884 61.7377 44.7634 61.0195 45.1169 60.1158C45.4624 59.204 45.4383 58.2195 45.0526 57.3319C44.4741 56.0166 43.1724 55.1693 41.7341 55.1693H41.7181ZM21.5017 59.8092C21.3812 60.1319 21.1401 60.3821 20.8268 60.5273C20.658 60.5999 20.4893 60.6403 20.3045 60.6403C20.1438 60.6403 19.9911 60.608 19.8465 60.5515C19.5251 60.4305 19.276 60.1884 19.1314 59.8737C18.9948 59.559 18.9867 59.212 19.1072 58.8893C19.2278 58.5665 19.4688 58.3163 19.7822 58.1711C19.9509 58.0985 20.1197 58.0581 20.3045 58.0581C20.4652 58.0581 20.6179 58.0904 20.7625 58.1469C21.4214 58.4051 21.7508 59.1475 21.5017 59.8092ZM42.2403 59.9786C42.0716 60.0512 41.9029 60.0916 41.7261 60.0916C41.2199 60.0916 40.7538 59.793 40.553 59.325C40.4164 59.0103 40.4083 58.6633 40.5289 58.3405C40.6494 58.0178 40.8904 57.7676 41.2038 57.6224C41.3725 57.5497 41.5413 57.5094 41.7181 57.5094C42.2243 57.5094 42.6903 57.808 42.8912 58.276C43.1805 58.9215 42.8912 59.6881 42.2403 59.9786Z" fill="white"/>
<path d="M15.0901 41.2095C15.307 41.4839 15.6364 41.6453 15.998 41.6453C16.1587 41.6453 16.3194 41.613 16.4721 41.5404C16.4882 41.5323 16.5123 41.5242 16.5283 41.5162C16.8096 41.3709 17.0105 41.1288 17.1069 40.8303C17.2033 40.5317 17.1792 40.217 17.0346 39.9346C16.914 39.7006 16.8015 39.4585 16.6971 39.2164V39.2003C15.074 35.5449 14.9695 31.4699 16.3998 27.7338C16.3998 27.7338 16.3998 27.7257 16.3998 27.7177C16.3998 27.7177 16.3998 27.7096 16.3998 27.7015C16.7453 26.8139 16.5283 27.1851 17.0346 26.3782C17.2033 26.1119 17.2515 25.7972 17.1792 25.4905C17.1069 25.1839 16.9221 24.9257 16.6569 24.7562C16.4721 24.6352 16.2551 24.5787 16.0382 24.5787C15.6284 24.5787 15.2588 24.7885 15.0418 25.1274C14.6642 25.7326 14.9615 25.1436 14.6562 25.7891L11.0805 24.4092C11.1368 22.868 10.2047 21.4317 8.76643 20.8749C8.3486 20.7135 7.90667 20.6328 7.46474 20.6328C6.95852 20.6328 6.46838 20.7377 5.99431 20.9475C5.11045 21.3429 4.42746 22.0611 4.08195 22.9648C3.36683 24.8369 4.2989 26.943 6.16305 27.6692C6.58087 27.8306 7.02281 27.9113 7.46474 27.9113C7.97095 27.9113 8.46109 27.8064 8.93516 27.5966C9.44137 27.3707 9.89134 27.0318 10.2449 26.6041L13.8205 27.9839C13.2661 29.7834 13.009 31.6474 13.0491 33.5276C13.0974 35.4238 13.4429 37.2878 14.0937 39.0712L6.25143 42.5652C5.56845 41.8228 4.60424 41.3951 3.58378 41.3951C3.07756 41.3951 2.58742 41.5 2.12139 41.7098C1.23752 42.1052 0.554539 42.8234 0.209029 43.7272C-0.136481 44.6309 -0.112375 45.6234 0.281345 46.5111C0.859874 47.8264 2.16156 48.6736 3.59985 48.6736C4.10606 48.6736 4.5962 48.5687 5.06224 48.3589C6.47642 47.7295 7.33617 46.2448 7.19958 44.7116L15.0579 41.2095H15.0901ZM8.68607 24.732C8.56555 25.0548 8.32449 25.3049 8.01112 25.4502C7.84239 25.5228 7.67365 25.5632 7.48884 25.5632C7.32814 25.5632 7.17547 25.5309 7.03084 25.4744C6.37196 25.2162 6.04252 24.4738 6.29161 23.8121C6.41214 23.4893 6.65319 23.2392 6.96656 23.094C7.1353 23.0213 7.30403 22.981 7.48884 22.981C7.64954 22.981 7.80221 23.0133 7.94684 23.0697C8.60572 23.328 8.93516 24.0703 8.68607 24.732ZM4.82118 45.5024C4.70066 45.8252 4.4596 46.0753 4.14623 46.2206C3.9775 46.2932 3.80876 46.3335 3.63199 46.3335C3.12578 46.3335 2.65974 46.035 2.45886 45.567C2.32226 45.2523 2.31423 44.9053 2.43476 44.5825C2.55528 44.2597 2.79634 44.0096 3.10971 43.8643C3.27844 43.7917 3.44718 43.7514 3.62395 43.7514C4.13016 43.7514 4.5962 44.0499 4.79708 44.5179C4.93368 44.8326 4.94171 45.1796 4.82118 45.5024Z" fill="white"/>
<path d="M43.7189 17.211L38.0782 23.5131C37.8693 23.7471 37.7648 24.0457 37.7809 24.3604C37.797 24.6751 37.9336 24.9656 38.1666 25.1754C38.3835 25.369 38.6567 25.4739 38.946 25.4739C39.1147 25.4739 39.2674 25.4417 39.4201 25.369C39.5727 25.3045 39.7013 25.2076 39.8138 25.0785L45.3982 18.841C45.6875 18.9781 45.9928 19.075 46.3142 19.1315C46.5231 19.1718 46.7401 19.1879 46.949 19.1879C47.4552 19.1879 47.9534 19.083 48.4194 18.8732C48.8292 18.6876 49.1988 18.4375 49.5122 18.1147C50.9183 16.6945 50.9183 14.3867 49.5041 12.9665C48.9738 12.442 48.3069 12.095 47.5757 11.9579C47.3668 11.9175 47.1498 11.9014 46.9409 11.9014C46.4347 11.9014 45.9365 12.0063 45.4705 12.2161C45.0607 12.4017 44.6911 12.6518 44.3777 12.9746C43.2689 14.0962 43.0118 15.8069 43.7189 17.2029V17.211ZM46.033 14.6449C46.1455 14.532 46.274 14.4432 46.4187 14.3786C46.5794 14.306 46.7561 14.2657 46.9329 14.2657C47.2704 14.2657 47.6079 14.4029 47.8409 14.6369C48.0819 14.8789 48.2185 15.2017 48.2185 15.5487C48.2185 15.8957 48.09 16.2184 47.8489 16.4605C47.7364 16.5735 47.6079 16.6623 47.4632 16.7268C47.3025 16.7994 47.1257 16.8398 46.949 16.8398C46.6115 16.8398 46.2821 16.7026 46.049 16.4767C45.5509 15.9683 45.5428 15.1533 46.049 14.6449H46.033Z" fill="white"/>
<path d="M18.216 49.1743C18.7222 49.1743 19.2204 49.0694 19.6864 48.8596H19.7025V48.8515C20.1042 48.6659 20.4658 48.4158 20.7792 48.1011C21.4622 47.4152 21.8398 46.4953 21.8318 45.527C21.8318 44.9541 21.6952 44.3892 21.4381 43.8809L25.8333 39.007C26.2672 38.5228 26.227 37.7805 25.7529 37.3447C25.536 37.1511 25.2547 37.0381 24.9655 37.0381C24.636 37.0381 24.3227 37.1753 24.0977 37.4254L19.7507 42.2428C19.4614 42.1056 19.1561 42.0088 18.8347 41.9523C18.6258 41.9119 18.4088 41.8958 18.1999 41.8958C17.6937 41.8958 17.1955 42.0007 16.7295 42.2105C16.3197 42.3961 15.9501 42.6462 15.6367 42.969C14.9537 43.6549 14.5761 44.5748 14.5841 45.5431C14.5841 46.5114 14.9618 47.4313 15.6528 48.1172C16.1831 48.6417 16.85 48.9887 17.5812 49.1259C17.7901 49.1662 18.0071 49.1824 18.216 49.1824V49.1743ZM16.9304 45.5431C16.9304 45.1961 17.0589 44.8734 17.308 44.6313C17.4205 44.5183 17.5491 44.4296 17.6937 44.365C17.8544 44.2924 18.0312 44.252 18.2079 44.252C18.5454 44.252 18.8829 44.3892 19.1159 44.6232C19.357 44.8653 19.4936 45.1881 19.4936 45.5351C19.4936 45.882 19.365 46.2048 19.1159 46.4469C19.0034 46.5599 18.8749 46.6486 18.7383 46.7132H18.7302C18.5695 46.7858 18.3928 46.8261 18.216 46.8261C17.8785 46.8261 17.541 46.689 17.308 46.455C17.067 46.2129 16.9304 45.8901 16.9304 45.5431Z" fill="white"/>
<path d="M40.5451 33.5271L38.7693 33.2447C38.7051 33.2366 38.6488 33.2285 38.5845 33.2285C38.006 33.2285 37.5159 33.6481 37.4275 34.221C37.331 34.8585 37.7649 35.4637 38.3997 35.5605L40.1755 35.843C40.2398 35.851 40.296 35.8591 40.3603 35.8591C40.521 35.8591 40.6817 35.8268 40.8344 35.7623C41.1959 35.6009 41.4531 35.262 41.5173 34.8666C41.5655 34.5599 41.4932 34.2452 41.3084 33.9951C41.1236 33.745 40.8504 33.5755 40.5451 33.5271Z" fill="white"/>
<path d="M35.2822 20.9551C34.8242 20.9551 34.4064 21.2294 34.2135 21.649L32.6547 25.1269C32.3896 25.716 32.6547 26.418 33.2413 26.6843C33.394 26.7569 33.5547 26.7892 33.7234 26.7892C33.8921 26.7892 34.0448 26.7569 34.1975 26.6843C34.4626 26.5632 34.6715 26.3534 34.7921 26.0952L36.3509 22.6174C36.616 22.0283 36.3509 21.3263 35.7643 21.06C35.6116 20.9874 35.4509 20.9551 35.2822 20.9551Z" fill="white"/>
<path d="M21.9837 33.6323L24.121 33.8018C24.121 33.8018 24.1853 33.8018 24.2174 33.8018C24.3781 33.8018 24.5388 33.7695 24.6915 33.705C25.0852 33.5274 25.3504 33.1563 25.3825 32.7205C25.4307 32.075 24.9486 31.5101 24.3058 31.4536L22.1685 31.2842C22.1685 31.2842 22.1042 31.2842 22.072 31.2842C21.4694 31.2842 20.9552 31.7603 20.907 32.3655C20.8828 32.6802 20.9793 32.9787 21.1801 33.2208C21.381 33.4629 21.6703 33.6081 21.9756 33.6323H21.9837Z" fill="white"/>
<path d="M355.538 41.5088V67.8551H353.802V63.4896C352.356 66.3622 349.56 68.0003 346.233 68.0003C341.034 68.0003 337.113 64.127 337.113 58.5915C337.113 53.056 341.034 49.1827 346.233 49.1827C349.52 49.1827 352.284 50.8127 353.762 53.6208V41.5088H355.53H355.538ZM353.77 58.5915C353.77 53.9436 350.588 50.7804 346.346 50.7804C342.103 50.7804 338.921 53.9436 338.921 58.5915C338.921 63.2394 342.103 66.4026 346.346 66.4026C350.588 66.4026 353.77 63.2394 353.77 58.5915Z" fill="white"/>
<path d="M360.978 58.5914C360.978 53.0882 364.899 49.1826 370.21 49.1826C375.521 49.1826 379.442 53.0882 379.442 58.5914C379.442 64.0947 375.521 68.0002 370.21 68.0002C364.899 68.0002 360.978 64.0947 360.978 58.5914ZM377.634 58.5914C377.634 53.9435 374.452 50.7803 370.21 50.7803C365.967 50.7803 362.785 53.9435 362.785 58.5914C362.785 63.2393 365.967 66.4025 370.21 66.4025C374.452 66.4025 377.634 63.2393 377.634 58.5914Z" fill="white"/>
<path d="M424.343 57.0265V67.8555H422.575V57.1637C422.575 52.9757 420.421 50.7728 416.814 50.7728C412.643 50.7728 410.056 53.5809 410.056 57.9787V67.8474H408.288V57.1556C408.288 52.9676 406.135 50.7647 402.527 50.7647C398.357 50.7647 395.77 53.5728 395.77 57.9706V67.8394H394.002V49.3042H395.697V53.2823C396.903 50.6921 399.41 49.167 402.768 49.167C406.127 49.167 408.529 50.6921 409.526 53.6374C410.731 50.9422 413.415 49.167 416.99 49.167C421.442 49.167 424.343 51.8299 424.343 57.0184V57.0265Z" fill="white"/>
<path d="M444.944 56.1061V67.863H443.249V64.5627C442.084 66.693 439.818 68.0083 436.604 68.0083C432.466 68.0083 429.959 65.878 429.959 62.7148C429.959 59.9067 431.727 57.5343 436.853 57.5343H443.185V56.0415C443.185 52.5959 441.313 50.7481 437.705 50.7481C435.158 50.7481 432.86 51.7083 431.341 53.0882L430.457 51.8132C432.297 50.1832 434.981 49.1826 437.849 49.1826C442.413 49.1826 444.961 51.5227 444.961 56.1061H444.944ZM443.177 62.3921V58.9142H436.885C433.069 58.9142 431.727 60.5119 431.727 62.6422C431.727 65.0549 433.599 66.5478 436.853 66.5478C440.107 66.5478 442.124 65.0549 443.185 62.3921H443.177Z" fill="white"/>
<path d="M452.232 41.5088H454V67.8551H452.232V41.5088Z" fill="white"/>
</g>
<defs>
<clipPath id="clip0_191_148">
<rect width="454" height="68" fill="white"/>
</clipPath>
</defs>
</svg>
